<svg id="Dino" xmlns="http://www.w3.org/2000/svg" width="468.46" height="405.249" viewBox="0 0 468.46 405.249">
  <defs>
    <style>
      .cls-1 {
        fill: #007117;
      }

      .cls-1, .cls-2, .cls-3, .cls-4 {
        fill-rule: evenodd;
      }

      .cls-2, .cls-6 {
        fill: #fff;
      }

      .cls-3 {
        fill: #324274;
      }

      .cls-4 {
        fill: #393939;
      }

      .cls-5 {
        fill: #212121;
      }
    </style>
  </defs>
  <path id="Dino-2" data-name="Dino" class="cls-1" d="M1479.35,883.019c-4.03,4.125-5.14,10.639-9,15-16.4,18.529-41.59,33.944-69,41-12.42,3.2-26.48,2.854-40.71,2.855l0.01-.073-4.96-.66-0.01.133-6.01-.991a37.439,37.439,0,0,0-7.78-1.535,50.21,50.21,0,0,0-8.54-.729c-13.49,0-24.9,5.2-28.67,12.345a28.879,28.879,0,0,0-4.33,6.655c-8.01,15.2,5.71,31.656,9,38,2.16,4.162-5.4,16.211-10.86,24H1194.35a15.607,15.607,0,0,1-1-5c3.98-4.62,8.16-12.59,14-15,14.51-5.991,37.2-1.656,55-5v-2c2.82-4.36,1.13-17.587,1-24-4.78-3.314-7.88-9.879-12-14-17.55-17.561-30-35.406-30-71v-19c1.71-6.479,3.97-11.155,4-21v-3l-1-1-1-2-2-2-3-1-7-1h-21l-0.06.093a6.06,6.06,0,0,0-2.94.907c-5.69,2.122-4.78,7.772-10,10v1c-1.01.99-.99-0.986-1-1a5.642,5.642,0,0,1-.9-3.016c1.61-1.968,3.96-4.861,4.17-5.115,0.27-.336.14-0.5-0.25-0.3-0.43.231-4.35,2.3-6.49,3.429h-2.53v-1h-1c0.4-6.7-1.6-5.01-3-11,4-2.649,7.74-6.448,13-8,7.72-2.279,11.36,2.788,15,4,4.24,1.412,11.05-.455,14-1v-5c-5.68-3.642-11.26-8.056-19-10h-86c-20.75,0-39.82,1.2-41-18,0.04-.006.06-0.012,0.1-0.018a5.291,5.291,0,0,1-.1-0.982v-4a5,5,0,0,1,5-5h93c0.8-1.18.77-1.681,1-4h-85c-11.74,0-29.21,2.579-39-1-4.83-1.765-19.68-14.864-22-19-6.43-11.458-4-33.853-4-51v-42c5.28-19.659,18.05-38.246,36-45,15.4-5.795,60.26-2,81-2h68c19.1,4.73,35.72,20.537,42,38,4.04,11.231.09,24.075,3,36,6.23,25.56,8.98,53.814,21,74,13.43,22.544,50.64,27.824,70,45,4.5,3.992,7.73,9.732,12,14s10,7.5,14,12c17.01,19.1,25.59,45.327,54,53h12c26.44,0.008,33.33-15.61,54-16C1479.35,873.912,1479.41,878.693,1479.35,883.019Z" transform="translate(-1010.88 -613.781)"/>
  <path id="Dente_copiar" data-name="Dente copiar" class="cls-2" d="M1162.87,778.582s-11.81,12.056-12.04,12.287a0.476,0.476,0,0,1-.68.006c-0.13-.138-10.26-10.545-11.76-12.094-1.51,1.543-11.64,11.874-11.84,12.088a0.487,0.487,0,0,1-.69.006c-0.14-.149-11.95-12.293-11.95-12.293a2.112,2.112,0,0,1-.56-0.983V764.507a0.489,0.489,0,0,1,.48-0.491h49.04a0.489,0.489,0,0,1,.48.491V777.6A1.813,1.813,0,0,1,1162.87,778.582Zm-62.04,12.287a0.476,0.476,0,0,1-.68.006c-0.13-.138-10.26-10.545-11.76-12.094-1.51,1.543-11.64,11.874-11.84,12.088a0.487,0.487,0,0,1-.69.006c-0.14-.149-11.95-12.293-11.95-12.293a2.112,2.112,0,0,1-.56-0.983V764.507a0.489,0.489,0,0,1,.48-0.491h49.04a0.489,0.489,0,0,1,.48.491V777.6a1.813,1.813,0,0,1-.48.983S1101.06,790.638,1100.83,790.869Z" transform="translate(-1010.88 -613.781)"/>
  <path id="Dino_se_boa" data-name="Dino se boa" class="cls-1" d="M1479.35,883.019c-4.03,4.125-5.14,10.639-9,15-16.4,18.529-41.59,33.944-69,41-12.42,3.2-26.48,2.854-40.71,2.855l0.01-.073-4.96-.66-0.01.133-6.01-.991a37.439,37.439,0,0,0-7.78-1.535,50.21,50.21,0,0,0-8.54-.729c-13.49,0-24.9,5.2-28.67,12.345a28.879,28.879,0,0,0-4.33,6.655c-8.01,15.2,5.71,31.656,9,38,2.16,4.162-5.4,16.211-10.86,24H1194.35a15.607,15.607,0,0,1-1-5c3.98-4.62,8.16-12.59,14-15,14.51-5.991,37.2-1.656,55-5v-2c2.82-4.36,1.13-17.587,1-24-4.78-3.314-7.88-9.879-12-14-17.55-17.561-30-35.406-30-71v-19c1.71-6.479,3.97-11.155,4-21v-3l-1-1-1-2-2-2-3-1-7-1h-21l-0.06.093a6.06,6.06,0,0,0-2.94.907c-5.69,2.122-4.78,7.772-10,10v1c-1.01.99-.99-0.986-1-1a5.642,5.642,0,0,1-.9-3.016c1.61-1.968,3.96-4.861,4.17-5.115,0.27-.336.14-0.5-0.25-0.3-0.43.231-4.35,2.3-6.49,3.429h-2.53v-1h-1c0.4-6.7-1.6-5.01-3-11,4-2.649,7.74-6.448,13-8,7.72-2.279,11.36,2.788,15,4,4.24,1.412,11.05-.455,14-1v-5c-3.04-1.948-6.06-4.107-9.38-6h19.38v-36h-159v0.723c-8.17.355-16.36,0.339-22-1.723-4.83-1.765-19.68-14.864-22-19-6.43-11.458-4-33.853-4-51v-42c5.28-19.659,18.05-38.246,36-45,15.4-5.795,60.26-2,81-2h68c19.1,4.73,35.72,20.537,42,38,4.04,11.231.09,24.075,3,36,6.23,25.56,8.98,53.814,21,74,13.43,22.544,50.64,27.824,70,45,4.5,3.992,7.73,9.732,12,14s10,7.5,14,12c17.01,19.1,25.59,45.327,54,53h12c26.44,0.008,33.33-15.61,54-16C1479.35,873.912,1479.41,878.693,1479.35,883.019Z" transform="translate(-1010.88 -613.781)"/>
  <g id="Bolinhas">
    <path id="Dino_se_boa_copiar" data-name="Dino se boa copiar" class="cls-3" d="M1451.35,882.519a4.272,4.272,0,0,1-4,4.5,4.112,4.112,0,0,1-3.84-3.292,73.821,73.821,0,0,0,7.4-3.23A4.981,4.981,0,0,1,1451.35,882.519Zm-16,8.5a2.563,2.563,0,1,1,2.5,2A2.292,2.292,0,0,1,1435.35,891.019Zm20-9.5a1.5,1.5,0,1,1,1.5,1.5A1.5,1.5,0,0,1,1455.35,881.519Zm-49,16.5a2.542,2.542,0,1,1,3-2.5A2.782,2.782,0,0,1,1406.35,898.019Zm0-13c0,2.761-3.13,5-7,5s-7-2.239-7-5c0-2.244,2.08-4.121,4.93-4.753a51.123,51.123,0,0,0,9.07,4.735v0.018Zm-25.5-9c-9.66,0-17.5-6.716-17.5-15a14.3,14.3,0,0,1,6.62-11.736c6.05,8.757,11.88,17.629,19.49,24.783A19.659,19.659,0,0,1,1380.85,876.019Zm-26.5-27.5a3.036,3.036,0,1,1,3,3.5A3.277,3.277,0,0,1,1354.35,848.519Zm-56.5-44.5c-8.01,0-14.5-5.6-14.5-12.5a11.452,11.452,0,0,1,3.46-8.088c8,4.192,16.72,7.831,24.89,11.787C1309.87,800.316,1304.36,804.019,1297.85,804.019Zm-34-27c-6.35,0-11.5-4.7-11.5-10.5a10.5,10.5,0,0,1,6.79-9.574c1,2.087,2.05,4.128,3.21,6.074a42.394,42.394,0,0,0,9.63,10.922A12.019,12.019,0,0,1,1263.85,777.019Zm-1,4c2.49,0,4.5,1.567,4.5,3.5s-2.01,3.5-4.5,3.5-4.5-1.567-4.5-3.5S1260.37,781.019,1262.85,781.019Zm-14.5-27a4,4,0,1,1-4,4A4,4,0,0,1,1248.35,754.019Zm22,35.5a1.5,1.5,0,1,1,1.5,1.5A1.5,1.5,0,0,1,1270.35,789.519Zm4-6.5a1.563,1.563,0,1,1,1.5,2A1.8,1.8,0,0,1,1274.35,783.019Zm34.5,50a1.5,1.5,0,1,1-1.5,1.5A1.5,1.5,0,0,1,1308.85,833.019Zm-5.5-24a3.531,3.531,0,1,1-4,3.5A3.775,3.775,0,0,1,1303.35,809.019Zm8-3a5,5,0,1,1,5,5A5,5,0,0,1,1311.35,806.019Zm19,40.5a5.028,5.028,0,1,1,5,4.5A4.771,4.771,0,0,1,1330.35,846.519Zm-76-96.5c-12.15,0-22-13.208-22-29.5,0-10.623,4.19-19.931,10.47-25.125,4.11,18.57,7,38.051,13.3,54.521A16.368,16.368,0,0,1,1254.35,750.019Zm98.5,91c-16.29,0-29.5-10.521-29.5-23.5a20.154,20.154,0,0,1,4.81-12.842c1.47,1.066,2.87,2.175,4.19,3.342,4.5,3.992,7.73,9.732,12,14s10,7.5,14,12c1.6,1.8,3.12,3.656,4.6,5.557A36.2,36.2,0,0,1,1352.85,841.019Zm76.05,45.837a5.606,5.606,0,0,1,.45,2.163,6.521,6.521,0,0,1-13,0,5.583,5.583,0,0,1,.4-2h7.6C1425.94,887.019,1427.45,886.961,1428.9,886.856Z" transform="translate(-1010.88 -613.781)"/>
  </g>
  <path id="Nariz" class="cls-4" d="M1027.85,706.019c1.93,0,3.5,2.015,3.5,4.5s-1.57,4.5-3.5,4.5-3.5-2.015-3.5-4.5S1025.92,706.019,1027.85,706.019Z" transform="translate(-1010.88 -613.781)"/>
  <g id="Olho">
    <circle id="Olho-2" data-name="Olho" class="cls-5" cx="133.96" cy="66.75" r="25.5"/>
    <circle id="Brilho_olho" data-name="Brilho olho" class="cls-6" cx="143.46" cy="58.25" r="9"/>
  </g>
</svg>
