<svg width="48" height="128" viewBox="0 0 48 128" fill="none" xmlns="http://www.w3.org/2000/svg">
<g clip-path="url(#clip0)">
<path fill-rule="evenodd" clip-rule="evenodd" d="M22.799 24.3459C28.9404 24.3459 35.1955 18.5424 35.1955 12.399C35.1955 6.25837 29.2407 0 23.0986 0C16.9601 0 10.854 6.40532 10.854 12.5465C10.854 18.6903 16.6605 24.3459 22.799 24.3459ZM46.9877 59.9182V41.4889C46.9877 35.465 47.3884 36.0427 46.9877 32.2758C45.4538 27.6663 42.3831 26.1318 39.3124 26.1318H25.4991C19.3305 26.1318 16.3363 26.1127 10.195 26.1127C7.12712 26.1127 5.12723 25.9112 2.84941 27.9802C-0.256944 31.5016 0.053855 31.8097 0.053855 41.639V60.3921C0.053855 65.2443 -0.766354 72.7945 4.09151 72.7945C8.70169 72.7945 8.65807 69.5043 8.65807 64.6035C8.65807 57.6802 8.64185 55.8838 8.64185 51.7952C8.64185 47.3248 8.38585 46.5645 9.28471 46.5645C10.1893 46.5645 10.1809 46.6242 10.1809 51.3754C10.1809 55.7776 10.1485 117.765 10.1485 121.349C10.1485 124.421 11.7857 127.711 16.4092 127.711C21.0194 127.711 22.9428 125.012 22.9428 121.94V89.6919C22.9428 86.6199 23.0467 85.1317 23.8066 85.1317C24.5806 85.1317 24.4796 86.6199 24.4796 89.6919V121.94C24.4796 123.849 26.5041 128 31.1114 128C34.182 128 37.005 124.053 37.005 122.006C37.005 109.721 37.0758 55.0553 37.0758 51.1899C37.0758 49.0965 36.8956 46.4359 37.6807 46.4359C38.4624 46.4359 38.4491 47.1584 38.4491 50.1783V62.0058C38.4491 70.0825 39.7024 72.2022 42.773 72.2022C47.3777 72.2028 46.9877 64.3149 46.9877 59.9182Z" fill="#5B5B5B"/>
</g>
<defs>
<clipPath id="clip0">
<rect width="47.1651" height="128" fill="white"/>
</clipPath>
</defs>
</svg>
