<svg width="474" height="576" viewBox="0 0 474 576" fill="none" xmlns="http://www.w3.org/2000/svg">
<path d="M237 575.284C367.892 575.284 474 519.456 474 450.59C474 381.723 367.892 325.895 237 325.895C106.109 325.895 0 381.723 0 450.59C0 519.456 106.109 575.284 237 575.284Z" fill="#F5F5F5"/>
<path d="M45.2529 192.265C45.2607 235.27 59.6887 277.03 86.2298 310.868C112.771 344.706 149.892 368.666 191.657 378.918C233.422 389.171 277.419 385.122 316.611 367.419C355.804 349.717 387.929 319.384 407.848 281.271C427.768 243.157 434.332 199.465 426.491 157.181C418.65 114.897 396.857 76.4633 364.596 48.0262C332.335 19.589 291.47 2.79099 248.537 0.318186C205.603 -2.15462 163.08 9.84067 127.767 34.3859C102.296 52.0921 81.4884 75.699 67.1198 103.191C52.7512 130.683 45.2487 161.244 45.2529 192.265Z" fill="#0276AA"/>
<path opacity="0.55" d="M61.8928 270.457C79.3948 309.733 109.561 342.007 147.568 362.117C185.575 382.227 229.227 389.013 271.545 381.389C313.863 373.765 352.403 352.171 381.002 320.061C409.6 287.951 426.606 247.179 429.3 204.264C431.995 161.349 420.221 118.77 395.863 83.3352C371.505 47.9005 335.969 21.6565 294.936 8.79962C253.904 -4.05724 209.746 -2.7844 169.522 12.4146C129.299 27.6136 95.3329 55.8609 73.0562 92.6399C56.9838 119.178 47.5738 149.212 45.6298 180.177C43.6858 211.142 49.2657 242.117 61.8928 270.457Z" fill="white"/>
<path d="M208.267 29.2672C199.493 29.7547 188.329 33.2971 196.682 37.9769C205.034 42.6567 210.266 42.8517 210.575 49.3515C210.884 55.8512 206.919 62.7897 209.177 67.2258C211.436 71.6619 215.06 76.9754 218.342 75.3505C221.624 73.7256 230.399 63.1147 235.631 63.3909C240.864 63.6672 258.673 63.7809 261.029 57.8662C263.385 51.9514 266.034 52.2439 270.048 45.6304C274.061 39.0169 273.509 30.3884 268.309 30.5509C263.109 30.7134 262.508 32.9558 253.798 32.6471C245.088 32.3384 240.799 26.7648 232.446 28.601C224.094 30.4372 214.767 28.8285 208.267 29.2672Z" fill="#455A64"/>
<path d="M175.769 32.7446C166.019 38.4481 145.317 47.2715 135.503 44.9478C130.628 43.7616 124.81 42.0555 118.636 41.1617C82.2166 69.8388 57.3572 110.685 48.6171 156.207C51.1152 160.946 54.1998 165.352 57.798 169.321C65.7439 177.965 73.6574 178.794 83.3583 180.289C93.0592 181.784 88.9806 185.391 93.9366 190.884C96.3605 193.887 99.4549 196.28 102.971 197.871C108.496 200.698 101.346 206.727 99.5102 213.032C97.674 219.336 97.1377 222.781 102.061 235.293C106.985 247.805 120.244 257.522 124.258 262.267C128.272 267.012 122.016 272.943 124.047 283.115C126.078 293.287 126.598 320.489 137.046 335.438C147.495 350.388 153.296 348.324 152.093 338.054C150.891 327.785 147.218 318.149 152.873 310.17C158.528 302.192 170.747 303.801 174.29 289.485C177.832 275.169 180.513 275.754 186.899 270.684C193.285 265.615 190.149 261.617 195.837 250.454C198.063 246.067 201.248 240.217 199.411 235.293C197.689 230.678 193.318 227.298 189.028 225.219C183.422 222.537 177.166 221.27 171.755 218.215C162.249 212.853 156.464 202.648 147.673 196.181C140.897 191.515 133.092 188.56 124.924 187.569C117.628 186.448 109.52 189.47 102.419 187.699C95.3178 185.928 95.2041 177.185 95.4641 171.937C95.724 166.688 90.4105 165.567 85.3732 167.062C80.3359 168.557 77.3622 165.437 75.6235 158.629C73.8849 151.82 84.2195 142.867 92.8154 141.875C101.411 140.884 106.156 144.703 108.285 155.736C108.997 160.188 111.085 164.306 114.255 167.511C117.426 170.717 121.52 172.85 125.964 173.611C133.975 175.235 128.694 167.224 122.861 161.797C117.027 156.37 116.442 151.268 120.212 138.674C123.982 126.081 134.446 126.617 141.791 114.885C149.136 103.153 150.956 111.635 158.869 112.529C166.783 113.423 165.369 109.165 168.066 101.918C170.764 94.671 180.92 100.44 188.898 94.3135C196.877 88.1875 179.425 79.689 180.237 71.8731C181.05 64.0571 188.882 63.9596 184.072 52.3738C179.262 40.788 185.274 40.073 188.216 35.5719C191.157 31.0709 185.518 27.0248 175.769 32.7446ZM165.239 61.9935C162.867 67.9245 160.592 66.8683 156.578 73.368C152.564 79.8678 146.048 83.6864 141.775 84.3851C137.501 85.0838 130.156 77.7066 129.604 73.0105C129.052 68.3145 135.828 66.6408 143.497 65.3571C151.167 64.0734 157.618 60.4823 164.394 54.6975C169.691 50.0989 167.546 56.0137 165.174 61.9122L165.239 61.9935Z" fill="#455A64"/>
<path d="M428.495 170.361V170.897C426.807 171.639 425.288 172.718 424.031 174.068C422.773 175.417 421.804 177.009 421.183 178.745C417.218 189.616 416.308 184.969 406.266 192.622C396.224 200.276 400.416 205.866 401.245 213.145C402.074 220.425 390.52 229.135 384.752 231.962C378.983 234.79 377.017 251.461 379.243 259.586C381.47 267.711 371.915 271.269 366.244 278.874C360.573 286.479 357.697 298.942 354.041 305.003C352.281 308.038 349.684 310.5 346.559 312.094C343.434 313.688 339.916 314.346 336.426 313.989C329.374 313.047 322.419 301.688 318.243 291.76C313.898 281.663 312.469 270.551 314.116 259.684C316.911 242.248 316.7 219.889 295.673 215.307C289.027 213.86 282.121 214.153 275.442 212.934C268.764 211.715 261.874 208.514 258.884 202.404C256.382 197.302 257.097 191.192 255.196 185.83C253.067 179.802 247.656 174.244 249.248 168.053C250.256 164.137 253.798 161.554 257.113 159.197C263.32 154.891 269.089 151.154 273.866 145.32C278.172 140.039 284.623 136.757 291.074 134.726C301.961 131.313 309.631 133.897 316.505 137.017C323.378 140.137 326.888 147.482 331.763 147.888C336.638 148.294 340.619 145.58 345.461 146.263C350.303 146.945 353.586 149.236 358.265 148.262C362.945 147.287 359.744 142.022 358.964 139.064C358.184 136.107 353.959 137.033 348.337 137.212C342.715 137.391 341.22 135.896 339.091 132.24C336.963 128.584 333.843 131.98 331.08 130.615C328.318 129.25 329.098 136.058 328.968 138.739C328.838 141.421 326.579 136.806 326.579 136.806C326.579 136.806 324.402 140.511 323.329 138.902C322.257 137.293 324.418 133.15 323.947 129.038C323.476 124.927 317.545 126.13 313.71 123.075C309.875 120.02 304.659 119.825 299.654 121.678C294.649 123.53 293.674 122.36 291.529 126.926C289.384 131.492 278.53 134.921 275.02 134.466C271.51 134.011 273.704 126.812 276.466 120.426C279.228 114.04 285.468 115.893 289.076 109.409C292.683 102.926 287.451 102.243 283.795 101.285C280.138 100.326 278.92 97.0434 282.365 88.8537C285.809 80.6641 290.765 82.679 292.943 86.3351C295.12 89.9912 299.621 91.6486 304.399 91.5186C309.176 91.3886 307.909 88.1063 307.519 81.184C307.129 74.2618 310.2 70.4594 316.375 67.5995C322.549 64.7396 332.884 60.0436 336.784 56.1275C340.684 52.2114 347.85 54.5025 351.766 58.3211C355.682 62.1397 364.066 63.4072 372.89 64.5609C374.017 64.6885 375.158 64.5475 376.22 64.1492C377.282 63.751 378.235 63.1069 379 62.2697C406.56 92.1285 423.896 129.988 428.495 170.361Z" fill="#455A64"/>
<path d="M396.127 266.265C391.414 265.647 391.885 267.175 389.286 270.961C386.686 274.747 382.786 279.085 383.712 282.871C384.638 286.658 385.126 291.402 388.262 288.429C391.398 285.455 390.131 282.14 394.648 279.882C399.165 277.623 403.26 267.191 396.127 266.265Z" fill="#455A64"/>
<path opacity="0.1" d="M347.313 52.6827C246.778 -25.6231 194.569 43.3555 235.193 116.299C275.816 189.243 372.695 246.668 399.49 220.035C426.285 193.402 422.044 110.904 347.313 52.6827Z" fill="white"/>
<path opacity="0.1" d="M116.637 275.819C29.2965 110.644 182.041 8.14307 182.041 8.14307C157.175 15.6479 134.087 28.113 114.17 44.7861C94.254 61.4592 77.9223 81.9947 66.1607 105.153C54.3991 128.312 47.4516 153.613 45.7373 179.531C44.0229 205.448 47.5775 231.444 56.1863 255.95C64.7951 280.456 78.2797 302.963 95.8264 322.115C113.373 341.266 134.618 356.663 158.279 367.378C181.94 378.093 207.527 383.902 233.495 384.456C259.463 385.01 285.274 380.298 309.371 370.602C309.371 370.602 174.144 384.56 116.637 275.819Z" fill="black"/>
<path d="M259.961 488.541C260.182 488.732 260.654 489.436 261.519 490.462C262.413 491.451 263.363 492.388 264.365 493.267C266.382 495.169 268.533 496.923 270.801 498.517C273.496 500.457 275.98 501.745 279.238 503.726C279.583 503.912 279.884 504.169 280.123 504.48C280.302 504.754 280.409 505.068 280.435 505.395C280.455 506.059 280.291 506.716 279.961 507.293C279.631 507.87 279.147 508.344 278.564 508.663C277.389 509.283 276.098 509.653 274.773 509.749C271.734 510.221 268.625 509.934 265.723 508.914C263.242 507.869 260.941 506.441 258.905 504.681C257.215 503.147 255.22 501.985 253.052 501.272C251.162 500.749 248.758 500.558 247.22 499.19C246.033 496.727 246.496 495.49 246.817 493.076C247.089 491.065 246.757 488.129 247.913 488.36L250.055 487.566C250.055 488.692 252.65 489.577 254.731 489.798C256.461 490.009 259.759 489.959 259.87 489.144L259.961 488.541Z" fill="#263238"/>
<path d="M219.566 485.957C217.796 485.957 218.419 492.694 217.967 497.099C217.474 501.825 216.468 505.425 216.026 509.297C215.421 512.673 215.936 516.155 217.494 519.212C218.731 522.048 224.936 525.919 227.289 521.877C229.642 517.834 230.155 513.208 229.883 508.804C229.67 505.102 229.71 501.389 230.004 497.692C230.215 494.243 231.512 487.224 229.209 486.781L229.099 487.968C228.274 489.617 220.42 490.753 219.495 487.596L219.566 485.957Z" fill="#263238"/>
<path d="M219.847 373.872C219.676 382.45 217.836 439.236 217.836 439.236C217.207 443.879 216.831 448.551 216.71 453.234C216.479 464.578 217.152 493.961 217.152 493.961C217.886 498.758 230.406 497.913 231.623 495.701C231.623 495.701 234.73 453.677 236.148 442.404C237.385 432.61 240.985 404.05 240.985 404.05L244.002 433.484C243.714 437.418 243.714 441.367 244.002 445.3C244.374 450.499 246.888 488.813 246.888 488.813C246.938 490.723 259.357 492.835 261.087 488.44C261.087 488.44 261.992 434.832 262.093 430.065C262.203 424.635 261.439 373.219 261.439 373.219L219.847 373.872Z" fill="#0276AA"/>
<path opacity="0.3" d="M219.847 373.872C219.676 382.45 217.836 439.236 217.836 439.236C217.207 443.879 216.831 448.551 216.71 453.234C216.479 464.578 217.152 493.961 217.152 493.961C217.886 498.758 230.406 497.913 231.623 495.701C231.623 495.701 234.73 453.677 236.148 442.404C237.385 432.61 240.985 404.05 240.985 404.05L244.002 433.484C243.714 437.418 243.714 441.367 244.002 445.3C244.374 450.499 246.888 488.813 246.888 488.813C246.938 490.723 259.357 492.835 261.087 488.44C261.087 488.44 261.992 434.832 262.093 430.065C262.203 424.635 261.439 373.219 261.439 373.219L219.847 373.872Z" fill="black"/>
<path opacity="0.1" d="M242.453 388.584C246.056 387.191 249.339 385.084 252.107 382.39C252.107 382.39 250.568 386.885 244.253 390.585L243.791 431.383L241.035 404.091L242.453 388.584Z" fill="black"/>
<path d="M269.132 366.501L262.475 374.757C262.475 374.757 257.839 367.075 258.03 367.075C258.221 367.075 263.893 357.763 263.893 357.763L269.132 366.501Z" fill="#FFA8A7"/>
<path d="M256.009 310.379C261.238 310.298 264.053 313.758 267.885 319.771C271.153 324.91 278.725 337.198 280.857 340.889C283.26 345.072 283.592 346.772 281.712 349.939C279.922 352.956 269.283 367.185 269.283 367.185C266.105 366.29 261.238 362.006 259.89 358.487L267.483 346.329L256.421 330.672L256.009 310.379Z" fill="#E6E6E6"/>
<path d="M234.097 309.061C232.498 309.454 227.409 310.821 223.276 312.279C221.18 313.08 219.366 314.479 218.057 316.302C215.04 320.676 217.766 330.38 219.968 348.742C219.807 360.578 219.465 375.3 219.465 375.3C224.905 379.262 250.297 381.957 261.7 373.591C261.7 373.591 262.082 329.163 261.328 323.391C259.88 312.33 255.546 309.373 246.606 308.85L234.097 309.061Z" fill="#0276AA"/>
<path opacity="0.2" d="M234.097 309.061C232.498 309.454 227.409 310.821 223.276 312.279C221.18 313.08 219.366 314.479 218.057 316.302C215.04 320.676 217.766 330.38 219.968 348.742C219.807 360.578 219.465 375.3 219.465 375.3C224.905 379.262 250.297 381.957 261.7 373.591C261.7 373.591 262.082 329.163 261.328 323.391C259.88 312.33 255.546 309.373 246.606 308.85L234.097 309.061Z" fill="black"/>
<path d="M236.842 282.101C236.898 284.463 237.654 286.755 239.012 288.688C240.371 290.62 242.273 292.107 244.476 292.959C246.68 293.811 249.086 293.991 251.392 293.475C253.697 292.96 255.798 291.772 257.429 290.063C259.06 288.353 260.147 286.198 260.554 283.871C260.96 281.544 260.667 279.148 259.712 276.987C258.757 274.826 257.183 272.997 255.188 271.731C253.194 270.465 250.869 269.818 248.507 269.873C245.339 269.95 242.331 271.28 240.144 273.573C237.957 275.866 236.769 278.933 236.842 282.101Z" fill="black"/>
<path d="M228.345 290.8C228.345 290.8 230.497 299.85 231.311 301.318C231.851 302.228 232.718 302.897 233.735 303.189L233.453 296.793L228.345 290.8Z" fill="black"/>
<path d="M230.466 277.717C229.788 277.653 229.103 277.744 228.466 277.985C227.828 278.225 227.253 278.608 226.786 279.105C225.227 280.774 226.243 285.852 228.345 290.8L232.005 291.132L230.466 277.717Z" fill="black"/>
<path d="M233.091 291.111C232.377 291.564 231.301 290.186 230.376 289.261C229.451 288.336 226.474 287.119 225.076 290.267C223.679 293.414 226.555 297.557 228.888 298.231C232.91 299.388 233.453 296.813 233.453 296.813L234.137 313.114C237.475 316.928 241.997 319.51 246.978 320.445C248.638 317.991 248.788 314.411 247.089 310.801L246.968 306.135C248.755 306.377 250.562 306.424 252.358 306.276C255.285 305.753 257.085 303.4 257.889 300.192C259.116 295.305 259.418 289.844 258.191 280.905C256.672 269.923 243.791 270.125 236.983 274.64C230.175 279.155 233.091 291.111 233.091 291.111Z" fill="#FFA8A7"/>
<path d="M233.121 292.338C232.759 292.338 231.301 290.066 230.376 289.261C229.089 288.145 230.466 277.717 230.466 277.717C230.007 276.813 229.831 275.792 229.962 274.788C230.093 273.783 230.525 272.841 231.2 272.085C233.745 269.139 237.103 268.284 240.935 268.375C242.343 268.375 243.72 268.526 245.118 268.546C246.785 268.532 248.44 268.247 250.015 267.701C252.167 267.017 254.239 266.082 256.431 265.559C256.77 265.424 257.138 265.379 257.499 265.428C257.86 265.478 258.202 265.62 258.492 265.841C258.659 266.062 258.775 266.317 258.832 266.588C258.889 266.859 258.887 267.14 258.824 267.409C258.668 268.685 258.136 269.886 257.296 270.859C258.046 270.732 258.809 270.694 259.568 270.748C260.333 270.81 261.049 271.15 261.58 271.703C261.911 272.125 262.119 272.63 262.181 273.162C262.243 273.694 262.157 274.234 261.932 274.72C261.457 275.694 260.686 276.493 259.729 277.003C257.906 278.058 255.754 278.396 253.696 277.948C253.459 278.493 253.11 278.983 252.672 279.385C252.233 279.787 251.715 280.092 251.152 280.281C249.438 281.022 247.587 281.395 245.72 281.376C243.852 281.357 242.01 280.946 240.311 280.17C239.938 280.736 239.524 281.273 239.074 281.779C238.567 282.275 238 282.704 237.385 283.057C237.094 283.227 236.791 283.378 236.48 283.509C236.133 283.591 235.796 283.709 235.474 283.861C235.082 284.153 235.122 284.927 235.062 285.39C234.861 286.707 234.7 288.024 234.438 289.331C234.368 290.286 234.072 291.209 233.574 292.026C233.523 292.106 233.457 292.175 233.379 292.228C233.301 292.282 233.214 292.319 233.121 292.338Z" fill="black"/>
<path d="M230.487 278.551L226.012 276.289C226.144 275.987 226.337 275.715 226.578 275.49C226.82 275.265 227.104 275.091 227.415 274.98C227.726 274.869 228.056 274.823 228.385 274.844C228.714 274.865 229.036 274.953 229.33 275.102C229.931 275.416 230.387 275.951 230.603 276.594C230.818 277.237 230.777 277.939 230.487 278.551Z" fill="black"/>
<path d="M246.968 306.115C246.968 306.115 240.382 304.948 238.059 303.782C236.697 303.125 235.566 302.074 234.81 300.765C235.193 302.095 235.835 303.336 236.701 304.415C238.431 306.527 247.008 308.026 247.008 308.026L246.968 306.115Z" fill="#F28F8F"/>
<path d="M244.756 289.502C244.734 289.76 244.637 290.006 244.476 290.208C244.316 290.411 244.099 290.562 243.853 290.642C243.607 290.723 243.343 290.729 243.094 290.66C242.845 290.592 242.621 290.451 242.451 290.257C242.281 290.062 242.172 289.821 242.138 289.565C242.103 289.309 242.145 289.048 242.258 288.816C242.371 288.583 242.55 288.389 242.772 288.257C242.995 288.125 243.251 288.062 243.509 288.075C243.685 288.086 243.857 288.132 244.015 288.21C244.172 288.288 244.313 288.397 244.429 288.529C244.545 288.662 244.634 288.816 244.69 288.983C244.746 289.15 244.768 289.327 244.756 289.502Z" fill="black"/>
<path d="M243.911 284.585L241.015 285.993C240.836 285.597 240.817 285.147 240.961 284.737C241.105 284.326 241.402 283.988 241.789 283.791C241.98 283.7 242.188 283.649 242.399 283.64C242.61 283.631 242.82 283.665 243.018 283.739C243.216 283.813 243.397 283.926 243.551 284.072C243.704 284.217 243.827 284.391 243.911 284.585Z" fill="black"/>
<path d="M257.507 285.782L254.49 284.726C254.553 284.525 254.655 284.339 254.791 284.179C254.927 284.019 255.094 283.888 255.281 283.795C255.469 283.701 255.674 283.646 255.884 283.633C256.093 283.62 256.304 283.65 256.501 283.72C256.896 283.876 257.218 284.174 257.404 284.556C257.59 284.937 257.627 285.375 257.507 285.782Z" fill="black"/>
<path d="M256.009 289.13C256.023 289.388 255.962 289.645 255.832 289.868C255.701 290.092 255.508 290.272 255.277 290.386C255.045 290.501 254.784 290.544 254.528 290.512C254.272 290.48 254.03 290.372 253.834 290.204C253.638 290.035 253.496 289.813 253.426 289.564C253.355 289.315 253.36 289.051 253.438 288.805C253.517 288.559 253.666 288.341 253.867 288.179C254.069 288.017 254.313 287.918 254.571 287.893C254.746 287.88 254.923 287.901 255.091 287.956C255.258 288.011 255.413 288.098 255.547 288.213C255.68 288.328 255.79 288.468 255.869 288.626C255.949 288.783 255.996 288.955 256.009 289.13Z" fill="black"/>
<path d="M248.899 288.386L249.372 296.29L253.495 294.862L248.899 288.386Z" fill="#F28F8F"/>
<path d="M244.434 297.658L249.613 299.076C249.539 299.425 249.395 299.755 249.189 300.047C248.984 300.339 248.722 300.587 248.418 300.775C248.115 300.963 247.776 301.087 247.424 301.141C247.071 301.194 246.711 301.176 246.365 301.087C245.659 300.881 245.062 300.406 244.701 299.766C244.34 299.125 244.244 298.368 244.434 297.658Z" fill="#B16668"/>
<path d="M244.434 298.935C244.662 298.862 244.899 298.825 245.138 298.824C245.746 298.824 246.333 299.051 246.783 299.46C247.233 299.869 247.514 300.431 247.572 301.037H247.481C247.113 301.116 246.733 301.116 246.365 301.037C245.881 300.897 245.446 300.627 245.105 300.256C244.764 299.886 244.532 299.429 244.434 298.935Z" fill="#F28F8F"/>
<path d="M233.946 308.438C233.946 308.438 236.641 321.943 237.797 331.084C238.954 340.225 238.742 366.019 238.119 382.37C237.666 394.286 235.887 416.329 235.887 416.329C235.887 416.329 232.95 416.922 225.831 415.756C222.158 415.271 218.62 414.057 215.423 412.186C215.423 412.186 216.539 378.669 217.434 366.934C218.218 356.134 218.188 350.2 218.188 350.2L215.644 325.573C215.644 325.573 215.835 310.097 220.672 309.484C225.599 308.82 233.946 308.438 233.946 308.438Z" fill="#FAFAFA"/>
<path d="M229.35 330.591C229.35 330.028 229.3 328.811 229.199 327.263C228.717 319.711 229.411 308.8 231.955 308.247L232.186 309.252C230.316 309.645 230.024 323.492 230.265 327.152C230.366 328.731 230.436 329.978 230.416 330.601L229.35 330.591Z" fill="#0276AA"/>
<path d="M233.755 304.033C233.011 303.883 232.317 304.275 231.744 305.311C231.17 306.346 229.732 308.539 229.732 308.539C229.732 308.539 229.039 315.799 229.732 317.589C230.336 319.158 234.328 326.539 234.328 326.539C234.328 326.539 234.067 333.709 234.006 335.851C233.946 337.993 238.089 346.912 238.551 351.075C238.551 351.075 238.763 334.202 238.139 329.515C237.073 321.36 235.716 311.153 233.906 307.815L233.755 304.033Z" fill="#EBEBEB"/>
<path d="M230.899 354.404C231.865 355.04 233 355.369 234.157 355.349L234.066 354.615C233.179 354.621 232.308 354.377 231.552 353.911C232.272 353.337 232.902 352.659 233.423 351.9C234.479 350.251 236.158 338.988 235.132 336.484C234.278 334.402 231.794 329.887 229.903 329.887H229.853C227.962 329.968 225.831 334.744 225.157 336.927C224.342 339.511 226.977 350.593 228.174 352.141C228.748 352.852 229.426 353.472 230.185 353.982C229.47 354.504 228.624 354.817 227.741 354.887V355.631H227.832C228.949 355.52 230.013 355.094 230.899 354.404ZM234.439 336.776C235.384 339.079 233.775 349.979 232.789 351.498C232.257 352.267 231.605 352.945 230.859 353.509C230.068 353.01 229.359 352.393 228.757 351.679C227.651 350.231 225.127 339.511 225.871 337.138C226.776 334.232 228.777 330.692 229.893 330.642C230.979 330.642 233.292 333.98 234.439 336.776Z" fill="#455A64"/>
<path d="M235.203 354.977C235.221 355.195 235.173 355.413 235.066 355.603C234.959 355.793 234.798 355.947 234.603 356.046C234.408 356.144 234.188 356.181 233.971 356.154C233.755 356.126 233.552 356.034 233.388 355.89C233.223 355.746 233.106 355.557 233.05 355.346C232.995 355.135 233.003 354.912 233.075 354.706C233.147 354.499 233.279 354.319 233.454 354.189C233.628 354.058 233.838 353.982 234.056 353.972C234.341 353.958 234.619 354.055 234.833 354.242C235.047 354.43 235.18 354.694 235.203 354.977Z" fill="#263238"/>
<path d="M228.837 355.208C228.855 355.426 228.807 355.645 228.7 355.835C228.593 356.026 228.431 356.18 228.235 356.278C228.04 356.376 227.819 356.413 227.603 356.385C227.386 356.356 227.182 356.264 227.018 356.119C226.855 355.974 226.738 355.783 226.683 355.571C226.629 355.36 226.639 355.136 226.712 354.93C226.786 354.724 226.919 354.545 227.095 354.415C227.271 354.286 227.482 354.212 227.701 354.203C227.984 354.189 228.262 354.286 228.474 354.474C228.686 354.662 228.817 354.926 228.837 355.208Z" fill="#263238"/>
<path d="M235.313 341.371H234.69C234.626 341.364 234.567 341.333 234.524 341.285C234.482 341.237 234.458 341.174 234.459 341.11C234.635 339.701 234.57 338.273 234.268 336.886C233.171 334.201 230.889 330.853 229.893 330.853C228.898 330.853 226.876 334.443 226.042 337.218C225.866 338.626 225.924 340.053 226.213 341.442C226.222 341.506 226.206 341.57 226.168 341.623C226.131 341.675 226.075 341.711 226.012 341.723L225.388 341.814C225.356 341.82 225.322 341.819 225.29 341.811C225.258 341.803 225.228 341.789 225.202 341.769C225.175 341.749 225.153 341.724 225.137 341.696C225.12 341.667 225.11 341.636 225.107 341.603C224.761 340.051 224.706 338.448 224.946 336.876C225.418 335.398 227.61 329.837 229.813 329.737C232.015 329.636 234.68 334.996 235.273 336.444C235.665 337.984 235.757 339.585 235.545 341.16C235.538 341.217 235.51 341.27 235.468 341.308C235.426 341.347 235.371 341.369 235.313 341.371Z" fill="#0276AA"/>
<path d="M247.008 307.613C248.014 307.694 248.406 308.156 250.669 308.82C254.892 310.077 258.201 310.57 259.91 312.842C262.746 316.613 262.193 319.711 262.927 338.847C263.661 357.984 263.862 412.487 263.862 412.487C261.838 413.41 259.63 413.857 257.406 413.795C257.406 413.795 257.577 353.65 257.175 340.114C256.773 326.579 254.721 320.002 251.795 315.537C250.971 311.797 249.372 309.635 247.069 308.84L247.008 307.613Z" fill="#FAFAFA"/>
<path d="M251.765 315.558C254.691 320.012 256.793 326.619 257.145 340.134C257.145 341.743 257.235 344.006 257.276 346.721C257.276 346.721 259.679 334.463 259.287 331.858C258.895 329.254 256.039 323.864 256.039 323.864C256.393 319.515 255.566 315.151 253.645 311.233C252.944 310.195 252.007 309.337 250.91 308.73C249.767 307.964 248.414 307.574 247.039 307.613L247.109 310.479C248.175 311.294 249.181 312.088 251.765 315.558Z" fill="#EBEBEB"/>
<path d="M207.73 358.457C208.546 359.803 209.443 361.099 210.415 362.338C211.188 363.442 212.341 364.222 213.653 364.53C216.349 364.892 219.003 365.518 221.577 366.401C223.839 367.105 225.267 366.924 225.338 367.507C225.438 368.251 225.036 369.116 222.985 369.518C221.485 369.691 219.97 369.691 218.47 369.518C220.261 371.644 222.347 373.503 224.664 375.039C229.24 378.056 230.788 380.338 226.032 383.224C222.552 385.346 216.489 384.783 208.112 376.96C204.094 373.031 200.448 368.739 197.221 364.138L207.73 358.457Z" fill="#FFA8A7"/>
<path d="M197.996 366.26C194.979 362.499 191.962 358.145 190.091 355.771C184.279 348.4 186.411 345.655 189.015 341.804C209.771 311.083 211.139 309.725 221.195 309.423C225.72 317.187 221.426 327.816 217.655 332.029L201.384 348.169C203.808 352.091 208.886 359.874 208.886 359.874C208.886 359.874 203.466 365.033 197.996 366.26Z" fill="#E6E6E6"/>
</svg>
