<svg width="301" height="301" viewBox="0 0 301 301" fill="none" xmlns="http://www.w3.org/2000/svg">
<path d="M200.236 41.928C196.226 40.2107 192.167 38.6293 188.06 37.184C159.46 27.2 125.268 32.88 100.204 49.408C86.9485 58.152 77.7164 69.856 70.8365 84.072C63.8445 98.528 58.9805 114.12 48.9725 126.92C39.1805 139.456 25.4605 149.368 19.9405 164.8C7.94045 198.512 28.4685 244.544 66.9165 247.736C94.0445 249.992 104.092 265.384 132.516 273.152C160.94 280.92 188.972 280 221.444 256.8C234.556 247.44 246.044 235.104 251.044 219.512C255.548 205.48 251.388 190.824 252.02 176.496C252.82 158.816 265.164 145.568 271.772 129.952C281.58 106.792 267.876 86.424 249.94 72.04C234.795 59.8234 218.077 49.6956 200.236 41.928Z" fill="#00D816"/>
<path opacity="0.7" d="M200.236 41.928C196.226 40.2107 192.167 38.6293 188.06 37.184C159.46 27.2 125.268 32.88 100.204 49.408C86.9485 58.152 77.7164 69.856 70.8365 84.072C63.8445 98.528 58.9805 114.12 48.9725 126.92C39.1805 139.456 25.4605 149.368 19.9405 164.8C7.94045 198.512 28.4685 244.544 66.9165 247.736C94.0445 249.992 104.092 265.384 132.516 273.152C160.94 280.92 188.972 280 221.444 256.8C234.556 247.44 246.044 235.104 251.044 219.512C255.548 205.48 251.388 190.824 252.02 176.496C252.82 158.816 265.164 145.568 271.772 129.952C281.58 106.792 267.876 86.424 249.94 72.04C234.795 59.8234 218.077 49.6956 200.236 41.928Z" fill="white"/>
<path d="M225.13 225.337C266.391 184.075 266.391 117.178 225.13 75.9166C183.869 34.6553 116.971 34.6553 75.7101 75.9166C34.4488 117.178 34.4488 184.075 75.7101 225.337C116.971 266.598 183.869 266.598 225.13 225.337Z" fill="white" stroke="#263238" stroke-miterlimit="10"/>
<path d="M150.42 245.08C123.368 245.079 97.3462 234.702 77.7164 216.088C58.0867 197.473 46.3442 172.038 44.9085 145.024C44.8125 146.88 44.7565 148.752 44.7565 150.624C44.9989 178.488 56.2377 205.127 76.0265 224.745C95.8153 244.362 122.552 255.369 150.416 255.369C178.281 255.369 205.018 244.362 224.806 224.745C244.595 205.127 255.834 178.488 256.076 150.624C256.076 148.741 256.028 146.875 255.932 145.024C254.497 172.038 242.754 197.473 223.124 216.088C203.495 234.702 177.473 245.079 150.42 245.08Z" fill="#263238" stroke="#263238" stroke-miterlimit="10"/>
<path d="M144.612 103.224L147.62 107.232L154.396 109.744L155.9 115.008L151.636 116.76V117.768L159.156 120.776L162.668 120.024L164.42 117.264L163.924 112.496L159.404 110.744L156.652 106.232L146.62 101.712L144.612 103.224Z" fill="#00D816" stroke="#263238" stroke-miterlimit="10"/>
<path d="M209.812 217.6L201.812 214.344L192.028 210.832H184.26L176.988 209.328L168.988 211.08L164.468 211.336H161.716L156.444 214.344L151.428 216.344L144.604 212.056L146.356 205.032L142.1 203.272H137.084L136.332 201.016L136.828 196.504L135.076 194L131.564 194.496L130.564 197.008L126.3 197.256L122.54 192.744L121.036 186.728L124.796 179.704L132.068 180.208L134.076 181.96H137.084L140.844 179.704L144.1 180.704L148.604 188.48L150.356 188.232L149.852 182.464L148.348 179.456L148.852 174.656L158.132 170.656L159.38 161.384L163.38 158.12L166.644 152.352L169.148 151.856L174.916 148.088L175.164 146.088L171.164 146.336L170.412 144.328H167.652L163.388 145.336L165.396 142.072L174.196 139.568L176.204 137.304L179.708 142.824L181.972 145.08L185.476 144.08L183.98 140.8L178.716 137.04L172.7 130.272L166.428 126.008L160.412 125.008L157.404 122.024L153.404 121.024L152.9 122.024L152.404 129.296L153.404 131.808L151.148 139.808L146.132 135.808L146.884 132.304L141.62 129.792L139.364 127.032L140.604 120.8L147.876 115.528L148.372 109.512L145.612 109.76L143.86 107.504L143.108 103.744L141.356 103.496L140.348 107.496L137.588 108L136.34 99.2L134.332 97.944L130.82 96.44L126.82 98.448L131.828 103.248L132.836 107.512L123.804 100.712L117.54 93.944L117.036 87.168L110.516 85.168L105.5 88.424C104.285 89.1616 103.03 89.8319 101.74 90.432C100.484 90.936 95.7244 91.432 95.7244 91.432L94.7164 95.696L88.9484 95.944L89.4524 98.704L98.7324 100.208L103.492 105.48V114.28L100.74 122.048L101.236 130.328L94.2044 142.592L92.7004 160.896L95.0044 171.432L98.2604 179.432L102.02 179.928L100.772 175.928L98.7644 172.92L97.5084 167.4L99.7644 166.896L103.276 175.928L105.78 183.928V190.448L110.58 196.216L119.004 202.52L132.044 206.032L136.044 209.792L139.052 213.792L143.572 216.552L149.084 218.056L154.604 217.8C154.604 217.8 154.356 220.312 154.356 221.568C154.356 222.824 150.844 227.08 150.844 227.08L148.084 232.096L150.092 237.616L155.604 239.872L163.38 247.872L166.892 249.376V253.136L167.332 254.888C186.845 251.726 205.072 243.131 219.924 230.088L220.052 228.272L226.828 215.984L223.564 213.728L209.812 217.6Z" fill="#00D816" stroke="#263238" stroke-miterlimit="10"/>
<path d="M235.892 118.52L233.132 113.72L229.62 108.2L228.62 100.68L233.132 101.432L233.38 98.928L230.124 98.672L232.884 97.424L235.892 95.664V93.16L232.884 89.16L232.236 83.768C217.663 65.9349 197.664 53.3493 175.281 47.9255C152.898 42.5016 129.357 44.5363 108.236 53.72L114.02 57.816L110.508 62.328L105.708 63.328L105.212 70.104L103.204 70.856L100.732 73.6L100.98 78.112L105.244 78.616L103.484 82.872H107.748L115.004 73.6L115.756 69.6L122.78 69.096L124.532 66.088L131.804 65.336L132.556 61.072L137.828 60.824C137.828 60.824 141.588 58.816 142.34 58.816C143.79 59.1307 145.215 59.5504 146.604 60.072L150.364 63.08H155.628L160.148 60.32L165.908 60.824C166.736 61.3718 167.682 61.7146 168.668 61.824C169.924 61.824 173.684 60.072 173.684 60.072L180.956 64.584L183.964 66.84V70.608L187.732 71.104L188.98 68.848L192.244 70.352L191.988 72.36L184.468 74.368L188.732 79.88L197.756 84.896L201.524 89.912L207.036 90.416L208.292 87.904L210.3 87.408L203.804 82.4L199.804 81.896L203.068 80.896L200.052 76.632L204.316 76.376L209.836 79.392L211.092 85.408L213.852 88.664L216.108 95.936L221.62 99.936V108.208L227.388 111.976L227.14 114.728L226.388 117.992L227.892 122.504L228.396 124.76L232.652 125.512L234.66 121.248L235.892 118.52Z" fill="#00D816" stroke="#263238" stroke-miterlimit="10"/>
<path d="M239.148 93.256V94.696L237.9 98.696L238.652 102.208L241.404 103.2V108L238.388 106.744L237.636 120.288L234.628 125.808L236.636 132.824L239.892 135.832V149.36L243.156 159.896L246.668 167.896L252.436 169.4L254.444 164.384L255.244 163.744C255.778 159.386 256.045 154.999 256.044 150.608C256.083 130.258 250.214 110.335 239.148 93.256Z" fill="#00D816" stroke="#263238" stroke-miterlimit="10"/>
<path d="M181.228 91.688L164.676 84.408L157.404 84.664L155.644 89.424L152.636 86.168L147.124 87.424L146.62 95.696L151.132 98.96L154.396 94.192L158.156 97.952L165.924 104.728L167.436 112L173.956 120.272L184.484 118.52L184.236 114.752L181.98 110.496L181.476 100.464L183.98 96.2L181.228 91.688Z" fill="#00D816" stroke="#263238" stroke-miterlimit="10"/>
<path d="M194.764 97.2L191.004 96.2L187.748 98.96L189.5 106.232H192.756L194.764 97.2Z" fill="#00D816" stroke="#263238" stroke-miterlimit="10"/>
<path d="M218.084 101.968L209.564 97.448L207.804 94.44L205.796 95.192L207.556 100.208L209.06 106.728L212.82 108.232L213.572 107.232L211.316 103.472L217.836 105.976L218.084 101.968Z" fill="#00D816" stroke="#263238" stroke-miterlimit="10"/>
<path d="M144.86 192.496L143.86 193.496L151.38 195.752L154.396 199.264L159.156 199.768L160.916 197.008L155.148 196L144.86 192.496Z" fill="#00D816" stroke="#263238" stroke-miterlimit="10"/>
<path d="M167.18 197.256L161.916 198.76L162.668 200.768H169.188L170.444 198.76L168.188 199.016L167.18 197.256Z" fill="#00D816" stroke="#263238" stroke-miterlimit="10"/>
<path d="M131.428 30.464C129.829 30.4682 128.297 31.1065 127.168 32.2387C126.039 33.371 125.404 34.9049 125.404 36.504C125.404 39.84 131.444 47.344 131.444 47.344C131.444 47.344 137.484 39.84 137.484 36.504C137.484 35.7095 137.328 34.9228 137.023 34.1889C136.719 33.4551 136.272 32.7885 135.71 32.2274C135.147 31.6663 134.479 31.2218 133.745 30.9192C133.01 30.6166 132.223 30.4619 131.428 30.464ZM131.348 38.904C130.858 38.904 130.378 38.7586 129.971 38.4861C129.563 38.2136 129.245 37.8262 129.057 37.3731C128.87 36.9199 128.82 36.4213 128.916 35.9402C129.012 35.4591 129.248 35.0172 129.595 34.6704C129.942 34.3236 130.384 34.0874 130.865 33.9917C131.346 33.896 131.844 33.9451 132.298 34.1328C132.751 34.3205 133.138 34.6384 133.411 35.0462C133.683 35.454 133.828 35.9335 133.828 36.424C133.828 37.0817 133.567 37.7125 133.102 38.1776C132.637 38.6427 132.006 38.904 131.348 38.904Z" fill="#263238"/>
<path d="M215.62 58.664C214.019 58.664 212.482 59.3004 211.35 60.4331C210.217 61.5658 209.58 63.1021 209.58 64.704C209.58 68.04 215.62 75.544 215.62 75.544C215.62 75.544 221.66 68.04 221.66 64.704C221.66 63.1021 221.024 61.5658 219.891 60.4331C218.759 59.3004 217.222 58.664 215.62 58.664ZM215.54 67.104C215.05 67.104 214.57 66.9586 214.163 66.686C213.755 66.4135 213.437 66.0262 213.249 65.5731C213.062 65.1199 213.012 64.6212 213.108 64.1402C213.204 63.6591 213.44 63.2172 213.787 62.8704C214.134 62.5235 214.576 62.2873 215.057 62.1916C215.538 62.096 216.036 62.1451 216.49 62.3328C216.943 62.5205 217.33 62.8384 217.602 63.2462C217.875 63.654 218.02 64.1335 218.02 64.624C218.02 65.2817 217.759 65.9125 217.294 66.3776C216.829 66.8427 216.198 67.104 215.54 67.104Z" fill="#263238"/>
<path d="M173.22 230.776C171.619 230.776 170.082 231.412 168.949 232.545C167.817 233.678 167.18 235.214 167.18 236.816C167.18 240.152 173.22 247.656 173.22 247.656C173.22 247.656 179.26 240.152 179.26 236.816C179.26 235.214 178.624 233.678 177.491 232.545C176.359 231.412 174.822 230.776 173.22 230.776ZM173.132 239.2C172.642 239.198 172.164 239.052 171.757 238.778C171.35 238.505 171.033 238.117 170.847 237.664C170.66 237.21 170.612 236.712 170.709 236.231C170.806 235.751 171.042 235.31 171.39 234.964C171.737 234.618 172.179 234.382 172.66 234.287C173.14 234.192 173.639 234.242 174.091 234.43C174.544 234.618 174.931 234.935 175.203 235.343C175.475 235.751 175.62 236.23 175.62 236.72C175.62 237.046 175.556 237.369 175.431 237.671C175.306 237.972 175.122 238.246 174.891 238.476C174.66 238.707 174.386 238.889 174.084 239.014C173.782 239.138 173.459 239.201 173.132 239.2Z" fill="#263238"/>
<path d="M130.26 157.312C128.659 157.312 127.122 157.948 125.99 159.081C124.857 160.214 124.22 161.75 124.22 163.352C124.22 166.688 130.26 174.184 130.26 174.184C130.26 174.184 136.3 166.688 136.3 163.352C136.3 162.559 136.144 161.773 135.841 161.041C135.537 160.308 135.092 159.642 134.531 159.081C133.971 158.52 133.305 158.075 132.572 157.772C131.839 157.468 131.054 157.312 130.26 157.312ZM130.204 165.752C129.712 165.752 129.231 165.606 128.822 165.333C128.413 165.059 128.094 164.671 127.906 164.216C127.718 163.761 127.668 163.261 127.764 162.779C127.86 162.296 128.097 161.853 128.445 161.505C128.793 161.157 129.236 160.92 129.719 160.824C130.202 160.728 130.702 160.777 131.157 160.965C131.611 161.154 132 161.473 132.273 161.882C132.547 162.291 132.692 162.772 132.692 163.264C132.694 163.591 132.63 163.915 132.505 164.217C132.381 164.52 132.197 164.794 131.966 165.026C131.735 165.257 131.46 165.44 131.158 165.565C130.855 165.689 130.531 165.753 130.204 165.752Z" fill="#263238"/>
</svg>
