<svg width="120" height="121" viewBox="0 0 120 121" fill="none" xmlns="http://www.w3.org/2000/svg">
<path d="M0.000855042 60.0101C0.00326434 73.4329 4.50657 86.4673 12.7906 97.0288C21.0747 107.59 32.661 115.069 45.6969 118.269C58.7327 121.469 72.465 120.205 84.6979 114.68C96.9307 109.154 106.958 99.6868 113.175 87.7908C119.392 75.8947 121.441 62.2574 118.994 49.0596C116.546 35.8618 109.744 23.8659 99.6748 14.99C89.6055 6.11417 76.8507 0.871129 63.4501 0.0993128C50.0496 -0.672504 36.7772 3.07149 25.7554 10.7326C17.8054 16.2591 11.3108 23.6273 6.82599 32.2082C2.34123 40.7892 -0.000454947 50.3279 0.000855042 60.0101Z" fill="white"/>
<path opacity="0.55" d="M5.19395 84.415C10.6567 96.674 20.0722 106.747 31.935 113.024C43.7978 119.301 57.4227 121.419 70.6311 119.039C83.8395 116.66 95.8685 109.92 104.795 99.8975C113.721 89.8752 119.029 77.1493 119.87 63.7546C120.711 50.3599 117.036 37.0701 109.433 26.0101C101.831 14.9502 90.739 6.75883 77.932 2.74592C65.1249 -1.26699 51.3421 -0.869711 38.7874 3.87423C26.2328 8.61818 15.6313 17.4348 8.67827 28.9143C3.66173 37.1975 0.724654 46.5718 0.1179 56.2366C-0.488854 65.9014 1.25275 75.5694 5.19395 84.415Z" fill="white"/>
<path d="M50.8807 9.13492C48.1419 9.28708 44.6576 10.3927 47.2645 11.8534C49.8714 13.3141 51.5045 13.3749 51.6009 15.4037C51.6973 17.4324 50.4598 19.598 51.1647 20.9826C51.8697 22.3672 53.0007 24.0257 54.0252 23.5185C55.0497 23.0113 57.7885 19.6995 59.4216 19.7857C61.0547 19.8719 66.6134 19.9074 67.3488 18.0613C68.0842 16.2151 68.9109 16.3064 70.1637 14.2422C71.4164 12.178 71.244 9.48488 69.621 9.53559C67.998 9.58631 67.8104 10.2862 65.0919 10.1899C62.3734 10.0935 61.0344 8.35387 58.4275 8.92698C55.8206 9.50009 52.9094 8.99798 50.8807 9.13492Z" fill="#455A64"/>
<path d="M40.7371 10.2204C37.694 12.0006 31.2325 14.7546 28.1692 14.0293C26.6476 13.6591 24.8319 13.1265 22.9046 12.8476C11.5375 21.7983 3.7783 34.5472 1.05029 48.7559C1.83003 50.235 2.79277 51.6101 3.91585 52.8488C6.39596 55.547 8.86593 55.8057 11.8938 56.2723C14.9216 56.7389 13.6486 57.8648 15.1955 59.5791C15.9521 60.5165 16.9179 61.2635 18.0154 61.76C19.7398 62.6425 17.5083 64.5241 16.9352 66.4919C16.362 68.4598 16.1947 69.535 17.7314 73.4403C19.2682 77.3456 23.4068 80.3785 24.6595 81.8595C25.9122 83.3404 23.9596 85.1917 24.5936 88.3666C25.2275 91.5415 25.3898 100.032 28.651 104.698C31.9122 109.364 33.7228 108.72 33.3475 105.514C32.9722 102.309 31.8259 99.3014 33.5909 96.8111C35.3559 94.3209 39.1699 94.823 40.2755 90.3547C41.3812 85.8865 42.218 86.0691 44.2113 84.4867C46.2045 82.9043 45.2256 81.6566 47.0007 78.1723C47.6956 76.8029 48.6896 74.9771 48.1165 73.4403C47.5789 71.9999 46.2146 70.945 44.8757 70.2958C43.1259 69.4589 41.1732 69.0633 39.4843 68.1098C36.5173 66.4362 34.7118 63.2511 31.9679 61.2325C29.853 59.7761 27.4167 58.8537 24.8674 58.5444C22.5902 58.1945 20.0594 59.1378 17.843 58.585C15.6266 58.0322 15.5911 55.3036 15.6723 53.6654C15.7534 52.0272 14.0949 51.6772 12.5227 52.1438C10.9504 52.6104 10.0223 51.6367 9.47961 49.5116C8.93693 47.3865 12.1626 44.5919 14.8456 44.2826C17.5285 43.9732 19.0095 45.1651 19.6739 48.6088C19.8962 49.9984 20.5478 51.2835 21.5374 52.284C22.527 53.2846 23.805 53.9503 25.192 54.1878C27.6924 54.695 26.0441 52.1946 24.2233 50.5006C22.4025 48.8066 22.22 47.2141 23.3966 43.2834C24.5733 39.3528 27.8395 39.5201 30.132 35.8583C32.4244 32.1965 32.9924 34.844 35.4624 35.1229C37.9324 35.4018 37.4911 34.073 38.333 31.811C39.175 29.549 42.3448 31.3495 44.8351 29.4374C47.3253 27.5254 41.8782 24.8728 42.1318 22.4333C42.3854 19.9937 44.83 19.9633 43.3288 16.3471C41.8275 12.7309 43.7041 12.5078 44.6221 11.1029C45.5401 9.698 43.7802 8.43512 40.7371 10.2204ZM37.4506 19.3496C36.7101 21.2008 36 20.8712 34.7473 22.8999C33.4946 24.9286 31.4608 26.1205 30.1269 26.3386C28.793 26.5566 26.5005 24.254 26.3281 22.7883C26.1557 21.3225 28.2706 20.8002 30.6645 20.3995C33.0584 19.9988 35.0719 18.8779 37.1868 17.0724C38.8402 15.6371 38.1707 17.4832 37.4303 19.3243L37.4506 19.3496Z" fill="#455A64"/>
<path d="M119.619 53.1734V53.3407C119.092 53.5725 118.618 53.9093 118.225 54.3305C117.833 54.7516 117.53 55.2484 117.336 55.7904C116.099 59.1834 115.815 57.7329 112.68 60.1217C109.546 62.5105 110.855 64.2552 111.113 66.5274C111.372 68.7996 107.766 71.518 105.965 72.4005C104.165 73.283 103.551 78.4867 104.246 81.0226C104.941 83.5585 101.959 84.6692 100.189 87.0428C98.4186 89.4164 97.5209 93.3065 96.3797 95.1982C95.8307 96.1455 95.0198 96.914 94.0445 97.4115C93.0692 97.9091 91.9711 98.1144 90.8819 98.0029C88.6807 97.7088 86.51 94.1636 85.2066 91.0647C83.8504 87.9133 83.4042 84.4451 83.9183 81.053C84.7907 75.611 84.7248 68.6322 78.1619 67.2019C76.0875 66.7506 73.932 66.8418 71.8475 66.4615C69.763 66.0811 67.6125 65.0819 66.6793 63.1749C65.8982 61.5824 66.1214 59.6754 65.528 58.0017C64.8636 56.1201 63.1747 54.3855 63.6717 52.4532C63.9862 51.2309 65.0918 50.4245 66.1265 49.689C68.0639 48.345 69.8644 47.1785 71.3555 45.3577C72.6995 43.7094 74.713 42.6849 76.7265 42.0509C80.1246 40.9858 82.5185 41.7923 84.6639 42.766C86.8092 43.7398 87.9048 46.0323 89.4263 46.1591C90.9478 46.2859 92.1904 45.4389 93.7018 45.6519C95.2132 45.8649 96.2377 46.58 97.6984 46.2757C99.1591 45.9714 98.1599 44.3282 97.9165 43.4051C97.673 42.482 96.3544 42.7711 94.5995 42.8269C92.8447 42.8827 92.3781 42.4161 91.7137 41.2749C91.0493 40.1338 90.0755 41.1938 89.2133 40.7678C88.3511 40.3417 88.5945 42.4668 88.554 43.3037C88.5134 44.1405 87.8084 42.7001 87.8084 42.7001C87.8084 42.7001 87.1288 43.8565 86.794 43.3544C86.4593 42.8523 87.1339 41.559 86.9868 40.2758C86.8397 38.9926 84.9885 39.3679 83.7915 38.4144C82.5946 37.461 80.9665 37.4001 79.4044 37.9783C77.8423 38.5565 77.538 38.1913 76.8685 39.6165C76.1991 41.0416 72.8111 42.1118 71.7156 41.9698C70.6201 41.8278 71.3048 39.581 72.167 37.5877C73.0292 35.5945 74.9768 36.1727 76.1027 34.1491C77.2286 32.1254 75.5955 31.9124 74.4544 31.6132C73.3132 31.3139 72.9328 30.2894 74.0081 27.7332C75.0833 25.1771 76.6302 25.806 77.3098 26.9471C77.9894 28.0883 79.3943 28.6056 80.8854 28.565C82.3765 28.5244 81.9809 27.4999 81.8592 25.3394C81.7375 23.1788 82.696 21.992 84.6233 21.0993C86.5506 20.2067 89.7763 18.741 90.9935 17.5187C92.2107 16.2964 94.4474 17.0115 95.6697 18.2033C96.892 19.3952 99.509 19.7908 102.263 20.1509C102.615 20.1908 102.971 20.1467 103.302 20.0224C103.634 19.8981 103.931 19.6971 104.17 19.4358C112.772 28.7554 118.183 40.5721 119.619 53.1734Z" fill="#455A64"/>
<path d="M109.516 83.1071C108.045 82.9143 108.192 83.3911 107.38 84.5728C106.569 85.7545 105.352 87.1087 105.641 88.2904C105.93 89.4722 106.082 90.9531 107.061 90.025C108.04 89.0968 107.644 88.0622 109.054 87.3572C110.464 86.6522 111.742 83.3962 109.516 83.1071Z" fill="#455A64"/>
<path opacity="0.1" d="M94.2799 16.4434C62.9008 -7.99757 46.6051 13.5322 59.2846 36.2995C71.964 59.0667 102.202 76.9905 110.565 68.6778C118.929 60.3651 117.605 34.6156 94.2799 16.4434Z" fill="white"/>
<path opacity="0.1" d="M22.2809 86.0893C-4.98004 34.5345 42.6948 2.54163 42.6948 2.54163C34.9335 4.88405 27.7273 8.77468 21.511 13.9787C15.2947 19.1828 10.1972 25.5923 6.52611 32.8206C2.85505 40.0489 0.686566 47.946 0.151492 56.0354C-0.383582 64.1248 0.725858 72.2388 3.41286 79.8876C6.09986 87.5364 10.3087 94.5616 15.7854 100.539C21.2621 106.517 27.8931 111.322 35.2783 114.667C42.6634 118.011 50.6496 119.824 58.7548 119.997C66.8601 120.17 74.9163 118.699 82.4374 115.673C82.4374 115.673 40.2299 120.03 22.2809 86.0893Z" fill="black"/>
</svg>
