<svg width="541" height="539" viewBox="0 0 541 539" fill="none" xmlns="http://www.w3.org/2000/svg">
<path opacity="0.7" d="M105.71 70.6C105.71 70.6 39.126 135.126 19.4 208.332C-0.326006 281.538 28.206 358.384 95.308 400.916C162.41 443.448 251.94 406.516 340.98 418.668C430.02 430.82 512.592 396.184 523.61 306.948C534.628 217.712 470.214 206.148 431.378 119.348C392.542 32.548 266.024 -72.452 105.71 70.6Z" fill="#592EBC"/>
<path d="M270.672 538.004C419.899 538.004 540.872 516.517 540.872 490.012C540.872 463.507 419.899 442.02 270.672 442.02C121.445 442.02 0.471985 463.507 0.471985 490.012C0.471985 516.517 121.445 538.004 270.672 538.004Z" fill="#E8E8E8"/>
<path d="M373.796 185.4C368.895 191.501 365.568 198.712 364.108 206.4C361.532 219.462 355.19 244.004 355.988 252.516C356.786 261.028 358.788 265.774 366.474 267.16C374.16 268.546 378.542 261.812 380.138 256.072C381.15 252.295 381.94 248.462 382.504 244.592L384.086 213.4C384.086 213.4 381.286 194.654 379.956 190.706C378.626 186.758 373.796 185.4 373.796 185.4Z" fill="#54A8A8" stroke="#263238" stroke-linecap="round" stroke-linejoin="round"/>
<path d="M476.752 179.156C476.752 179.156 479.552 178.54 482.212 188.256C484.872 197.972 488.078 211.916 493.328 229.108C498.578 246.3 499.6 251.97 499.194 255.806C498.788 259.642 495.764 263.898 485.194 263.898C474.624 263.898 469.794 259.852 466.994 250.752C464.194 241.652 464.6 213.54 464.404 209.9C464.208 206.26 473.504 177.336 476.752 179.156Z" fill="#54A8A8" stroke="#263238" stroke-linecap="round" stroke-linejoin="round"/>
<path d="M404.54 481.136C404.54 481.136 397.666 488.416 393.62 493.078C389.574 497.74 388.16 500.554 394.824 503.382C401.488 506.21 411.82 501.982 414.858 497.32C417.896 492.658 424.364 487.408 424.364 487.408C424.364 487.408 427.794 483.572 423.342 478.112C418.89 472.652 406.556 478.91 404.54 481.136Z" fill="#4E5263" stroke="#22242B" stroke-linecap="round" stroke-linejoin="round"/>
<path d="M445.798 487.212C445.798 487.212 452.672 488.22 456.312 491.412C459.952 494.604 472.706 501.73 481.19 498.286C489.674 494.842 484.228 489.186 479.58 485.14C476.969 482.825 474.121 480.793 471.082 479.078C471.082 479.078 457.53 478.07 451.482 481.094C445.434 484.118 445.798 487.212 445.798 487.212Z" fill="#4E5263" stroke="#22242B" stroke-linecap="round" stroke-linejoin="round"/>
<path d="M396.644 393.146C396.644 393.146 399.892 417.422 398.268 424.702C396.644 431.982 391.996 436.238 395.468 443.322C398.038 448.799 399.919 454.574 401.068 460.514C401.474 462.936 399.248 463.538 401.068 466.114C402.395 467.775 403.483 469.613 404.302 471.574C404.302 472.19 401.88 475.62 401.88 476.432C401.88 477.244 403.098 482.298 403.098 482.298C403.098 482.298 409.566 480.898 414.214 482.704C417.581 484.154 420.771 485.986 423.72 488.164C423.72 488.164 427.92 486.54 429.39 484.118C430.183 482.849 430.662 481.409 430.79 479.918C430.986 479.106 433.016 474.85 432.82 471.616C432.624 468.382 430.384 461.508 430.384 457.462C430.384 453.416 433.422 448.964 433.422 442.496C433.422 436.028 430.384 394.56 430.384 394.56L433.184 393.538C433.184 393.538 437.636 418.22 437.636 429.756C437.636 441.292 434.206 455.642 436.432 458.47C438.658 461.298 441.276 463.734 441.276 464.336C441.276 464.938 438.644 469.39 439.26 471.616C440.221 474.54 441.029 477.512 441.682 480.52C441.682 481.738 443.908 486.386 445.728 487.198C447.548 488.01 448.528 486.176 459.28 483.964C470.032 481.752 476.08 482.34 475.058 479.106C474.036 475.872 473.042 471.616 471.824 470.804C470.606 469.992 472.23 469.404 471.824 466.366C471.418 463.328 469.192 460.094 467.176 455.236C465.16 450.378 467.974 445.128 468.786 440.06C469.598 434.992 468.38 427.46 466.364 419.228C464.348 410.996 466.154 390.71 466.154 390.71L467.176 382.828C467.176 382.828 436.222 385.628 417.21 385.446L396.784 385.25C396.784 385.25 395.44 386.678 396.644 393.146Z" fill="#000921" stroke="black" stroke-linecap="round" stroke-linejoin="round"/>
<path d="M475.128 308.6C475.128 308.6 477.928 345.42 481.596 364.6C483.707 375.425 485.045 386.387 485.6 397.402H470.886C470.27 397.402 471.894 329.236 472.286 323.202C472.819 318.263 473.77 313.378 475.128 308.6V308.6Z" fill="#54A8A8" stroke="#263238" stroke-linecap="round" stroke-linejoin="round"/>
<path d="M414.2 158.8C414.2 158.8 397.008 170.322 388.118 174.368C379.228 178.414 374.356 183.678 373.754 185.568C373.152 187.458 383.456 216.508 383.456 216.508C383.456 216.508 382.854 312.59 382.854 328.774C382.854 344.958 377.8 393.692 378.402 393.692C379.004 393.692 395.202 404.22 417.434 404.822C439.666 405.424 446.834 402.19 453.834 402.19C460.834 402.19 474.834 402.19 475.072 400.174C475.31 398.158 475.478 353.442 475.674 332.61C475.87 311.778 476.08 297.008 475.674 293.578C475.268 290.148 469.612 216.102 469.612 216.102C469.612 216.102 473.812 203.768 476.29 193.856C478.768 183.944 478.712 182.726 475.674 178.288C472.636 173.85 449.844 161.754 445.798 160.2C440.826 158.46 435.65 157.373 430.398 156.966C426.59 156.7 414.2 158.8 414.2 158.8Z" fill="#54A8A8" stroke="#263238" stroke-linecap="round" stroke-linejoin="round"/>
<path d="M376.218 241.05C376.218 241.05 378.85 247.112 382.084 249.744C385.318 252.376 392.808 253.594 394.418 257.64C396.028 261.686 394.418 264.71 392.598 269.568C390.778 274.426 391.8 282.518 385.122 283.568C378.444 284.618 376.428 282.168 370.954 278.304C365.48 274.44 362.064 273.852 358.83 267.986C355.596 262.12 354.63 253.986 357.43 249.59" fill="#54A8A8"/>
<path d="M376.218 241.05C376.218 241.05 378.85 247.112 382.084 249.744C385.318 252.376 392.808 253.594 394.418 257.64C396.028 261.686 394.418 264.71 392.598 269.568C390.778 274.426 391.8 282.518 385.122 283.568C378.444 284.618 376.428 282.168 370.954 278.304C365.48 274.44 362.064 273.852 358.83 267.986C355.596 262.12 354.63 253.986 357.43 249.59" stroke="#263238" stroke-linecap="round" stroke-linejoin="round"/>
<path d="M413.444 150.834L412.8 167.83C412.8 167.83 411.19 170.252 420.892 170.854C427.128 171.181 433.381 170.711 439.498 169.454L437.888 151.058C437.888 151.058 427.766 155.258 421.9 153.284C419.149 152.249 416.322 151.43 413.444 150.834V150.834Z" fill="#B38B6D" stroke="#263238" stroke-linecap="round" stroke-linejoin="round"/>
<path d="M409.594 146.592C409.594 146.592 408.194 166.192 407.172 172.072C406.15 177.952 406.36 181.578 408.572 182.992C410.784 184.406 423.734 189.474 430.412 189.068C437.09 188.662 447.212 182.586 448.01 180.766C448.808 178.946 441.962 150.4 441.962 150.4L440.94 151.618C440.94 151.618 442.76 166.584 442.158 167.018C441.556 167.452 418.092 165.8 413.836 165.618C409.58 165.436 410.812 165.212 410.812 165.212L410.602 148.02L409.594 146.592Z" fill="white" stroke="#263238" stroke-linecap="round" stroke-linejoin="round"/>
<path d="M408.95 169.916C408.95 169.916 431.056 173.178 444.314 170.616" stroke="#263238" stroke-width="0.5" stroke-miterlimit="10"/>
<path d="M408.026 175.04C408.026 175.04 423.426 181.55 444.314 175.726" stroke="#263238" stroke-width="0.5" stroke-miterlimit="10"/>
<path d="M409.65 181.088C409.65 181.088 424.308 188.998 444.314 180.612" stroke="#263238" stroke-width="0.5" stroke-miterlimit="10"/>
<path d="M445.406 125.956C445.91 119.74 446.33 113.356 444.79 110.178C442.368 105.124 435.074 99.258 424.56 99.664C414.046 100.07 405.142 104.116 405.352 117.052C405.352 117.052 405.8 120.902 406.318 125.62C405.355 127.68 405.019 129.978 405.352 132.228C405.678 134.387 406.435 136.458 407.578 138.318C407.676 139.522 407.746 140.558 407.774 141.328C407.97 146.788 411.61 153.256 414.858 155.482C418.106 157.708 424.154 161.152 428.004 161.152C431.854 161.152 438.714 157.512 442.004 152.248C444.552 148.048 444.804 145.248 444.804 140.306H445C445.579 137.71 445.921 135.068 446.022 132.41C446.105 130.241 445.897 128.07 445.406 125.956Z" fill="#B38B6D" stroke="#263238" stroke-linecap="round" stroke-linejoin="round"/>
<path d="M407.2 127.174C407.2 127.174 407.802 132.228 408.81 132.018C409.818 131.808 411.036 124.542 411.036 124.542L407.2 127.174Z" fill="#241913" stroke="#241913" stroke-linecap="round" stroke-linejoin="round"/>
<path d="M441.556 126.6C441.556 126.6 441.556 132.27 442.956 133.082C444.356 133.894 445.378 128.224 445.378 128.224C444.231 127.422 442.929 126.869 441.556 126.6V126.6Z" fill="#241913" stroke="#241913" stroke-linecap="round" stroke-linejoin="round"/>
<path d="M444.79 110.178C442.368 105.124 435.074 99.258 424.56 99.664C414.046 100.07 405.142 104.116 405.352 117.052C405.352 117.052 405.8 120.902 406.318 125.62C405.68 126.988 405.314 128.467 405.24 129.974C409.174 126.824 416.538 122.316 425.778 123.128C432.968 123.947 439.879 126.384 445.994 130.254C445.93 128.806 445.733 127.368 445.406 125.956C445.91 119.74 446.4 113.398 444.79 110.178Z" fill="#54A8A8" stroke="#263238" stroke-linecap="round" stroke-linejoin="round"/>
<path d="M423.146 130.8L421.928 138.08C421.928 138.08 419.702 138.276 420.528 139.69C421.354 141.104 425.582 142.728 427.612 142.126C429.642 141.524 431.658 139.494 431.448 138.682C431.386 138.439 431.259 138.217 431.082 138.04C430.905 137.863 430.683 137.736 430.44 137.674L427.808 130.184" stroke="#263238" stroke-linecap="round" stroke-linejoin="round"/>
<path d="M420.92 145.78C424.804 146.618 428.835 146.479 432.652 145.374" stroke="#263238" stroke-linecap="round" stroke-linejoin="round"/>
<path d="M418.694 130.506C418.694 131.57 418.148 132.424 417.476 132.424C416.804 132.424 416.272 131.57 416.272 130.506C416.272 129.442 416.818 128.588 417.476 128.588C418.134 128.588 418.694 129.4 418.694 130.506Z" fill="#263238"/>
<path d="M434.066 130.408C434.066 131.472 433.52 132.326 432.862 132.326C432.204 132.326 431.644 131.472 431.644 130.408C431.644 129.344 432.19 128.49 432.862 128.49C433.534 128.49 434.066 129.4 434.066 130.408Z" fill="#263238"/>
<path d="M414.046 127.58C414.046 127.58 415.446 124.136 419.912 125.354" stroke="#263238" stroke-linecap="round" stroke-linejoin="round"/>
<path d="M429.012 125.55C429.012 125.55 433.212 122.512 436.292 127.776" stroke="#263238" stroke-linecap="round" stroke-linejoin="round"/>
<path d="M390.778 266.334C390.778 266.334 403.126 269.134 405.954 268.56C409.661 267.868 413.055 266.026 415.656 263.296C419.31 259.656 422.334 256.618 422.334 259.656C422.347 260.855 422.12 262.044 421.669 263.155C421.217 264.265 420.548 265.275 419.702 266.124C418.302 267.748 415.656 269.568 415.054 272.2C414.452 274.832 415.264 276.848 418.498 278.066C421.732 279.284 431.84 281.09 431.84 283.666C431.84 286.242 431.028 292.374 427.388 294.39C423.748 296.406 414.858 294.992 414.858 294.992C414.858 294.992 422.138 299.038 420.724 300.06C419.31 301.082 415.054 299.654 413.038 297.834C411.022 296.014 410.238 295.804 404.33 291.562C398.422 287.32 393.41 282.252 390.582 280.642C389.05 279.924 387.634 278.981 386.382 277.842C384.758 276.442 384.156 273.642 385.36 270.366C385.77 269.396 386.378 268.521 387.145 267.798C387.911 267.075 388.819 266.519 389.812 266.166L390.778 266.334Z" fill="#FDF8F5" stroke="#263238" stroke-linecap="round" stroke-linejoin="round"/>
<path d="M486.86 243.276C486.86 243.276 472.3 246.076 470.886 247.112C469.472 248.148 470.886 252.376 470.886 252.376C470.886 252.376 458.538 258.242 453.89 261.476C449.242 264.71 453.484 271.192 453.694 271.99C453.694 271.99 457.334 283.932 463.396 287.978C469.458 292.024 475.73 290.596 481.806 284.128C487.882 277.66 491.718 268.728 494.546 265.718C497.374 262.708 500.412 259.852 499.404 253.118C498.396 246.384 493.132 245.628 493.132 245.628" fill="#54A8A8"/>
<path d="M486.86 243.276C486.86 243.276 472.3 246.076 470.886 247.112C469.472 248.148 470.886 252.376 470.886 252.376C470.886 252.376 458.538 258.242 453.89 261.476C449.242 264.71 453.484 271.192 453.694 271.99C453.694 271.99 457.334 283.932 463.396 287.978C469.458 292.024 475.73 290.596 481.806 284.128C487.882 277.66 491.718 268.728 494.546 265.718C497.374 262.708 500.412 259.852 499.404 253.118C498.396 246.384 493.132 245.628 493.132 245.628" stroke="#263238" stroke-linecap="round" stroke-linejoin="round"/>
<path d="M457.124 269.974C457.124 269.974 447.828 272.396 445.196 272.606C442.564 272.816 442.158 273.208 440.548 271.99C438.938 270.772 431.434 266.39 427.948 262.288C424.462 258.186 421.872 257.43 422.278 259.656C422.684 261.882 421.872 263.492 424.308 265.116C426.744 266.74 429.152 271.192 429.152 273.012C429.152 274.832 428.956 275.434 423.902 277.212C418.848 278.99 407.312 281.258 408.502 282.672C409.692 284.086 412.142 284.492 414.774 284.296C417.406 284.1 428.326 282.476 429.124 283.078C429.388 283.348 429.585 283.675 429.7 284.034C429.814 284.393 429.844 284.774 429.785 285.147C429.727 285.52 429.582 285.873 429.363 286.18C429.144 286.487 428.856 286.738 428.522 286.914C426.702 288.132 420.234 288.132 416.384 288.538C412.534 288.944 412.338 289.938 413.962 290.764C416.57 291.737 419.343 292.189 422.124 292.094C425.358 292.094 429.124 291.772 427.514 292.78C425.904 293.788 423.664 293.998 419.618 294.6C415.572 295.202 414.158 293.396 414.774 295.006C415.39 296.616 420.234 296.63 426.296 296.406C431.814 296.124 437.173 294.458 441.878 291.562C445.924 289.126 460.68 285.486 461.702 284.688C462.724 283.89 464.32 279.214 463.312 273.558C462.304 267.902 457.124 269.974 457.124 269.974Z" fill="#FDF8F5" stroke="#263238" stroke-linecap="round" stroke-linejoin="round"/>
<path d="M473.112 246.3C477.053 243.038 481.323 240.195 485.852 237.816" stroke="#263238" stroke-linecap="round" stroke-linejoin="round"/>
<path d="M417.28 284.408C417.28 284.408 428.788 283.092 429.95 282.924C431.112 282.756 433.24 284.072 432.246 285.556C431.252 287.04 430.762 286.704 426.646 287.53C422.56 288.151 418.43 288.427 414.298 288.356" fill="white"/>
<path d="M417.28 284.408C417.28 284.408 428.788 283.092 429.95 282.924C431.112 282.756 433.24 284.072 432.246 285.556C431.252 287.04 430.762 286.704 426.646 287.53C422.56 288.151 418.43 288.427 414.298 288.356" stroke="#263238" stroke-linecap="round" stroke-linejoin="round"/>
<path d="M418.596 292.304C418.596 292.304 431.42 291.478 431.098 292.472C430.776 293.466 429.95 294.768 425.344 295.104C420.738 295.44 415.544 295.762 411.19 293.62" fill="white"/>
<path d="M418.596 292.304C418.596 292.304 431.42 291.478 431.098 292.472C430.776 293.466 429.95 294.768 425.344 295.104C420.738 295.44 415.544 295.762 411.19 293.62" stroke="#263238" stroke-linecap="round" stroke-linejoin="round"/>
<path d="M290.328 471.168C290.328 471.168 292.512 473.338 283.804 478.658C275.096 483.978 267.83 486.4 267.83 489.55C267.83 492.7 277.504 495.836 287.43 493.414C297.356 490.992 301.43 490.278 307.03 489.312C312.63 488.346 314.296 483.502 314.296 476.712C314.296 469.922 299.54 468.312 297.846 468.004C296.152 467.696 291.546 468.508 290.328 471.168Z" fill="white" stroke="#263238" stroke-linecap="round" stroke-linejoin="round"/>
<path d="M312.098 476.726C308.433 482.217 303.948 487.113 298.798 491.244C291.294 496.844 290.328 499.462 294.206 500.918C298.084 502.374 309.2 502.85 316.704 499.952C324.208 497.054 327.834 492.7 330.004 490.754C332.174 488.808 333.392 490.026 333.392 482.284C333.392 474.542 325.16 471.882 318.398 472.372C311.636 472.862 312.098 476.726 312.098 476.726Z" fill="white" stroke="#263238" stroke-linecap="round" stroke-linejoin="round"/>
<path d="M282.6 319.002C282.6 319.002 284.784 363.032 285.512 375.856C286.24 388.68 291.56 436.812 292.512 448.18C293.464 459.548 293.478 462.936 293.478 462.936C293.478 462.936 289.124 466.086 289.124 466.814C289.124 467.542 288.634 474.304 288.634 474.304C291.847 476.073 295.259 477.455 298.798 478.42C302.686 479.296 306.69 479.542 310.656 479.148C310.656 479.148 318.636 481.808 325.412 483.74C332.188 485.672 334.848 484.706 334.848 484.706C334.848 484.706 336.78 475.032 337.256 471.882C337.732 468.732 345.964 435.356 345.964 420.082C345.964 404.808 344.032 397.822 341.134 388.876C338.236 379.93 344.998 347.982 347.42 336.376C348.809 329.902 349.86 323.359 350.57 316.776C350.57 316.776 329.766 327.472 282.6 319.002Z" fill="#111144" stroke="#000621" stroke-linecap="round" stroke-linejoin="round"/>
<path d="M309.69 333.8C309.69 333.8 308.472 366 308.472 378.306C308.472 390.612 311.622 405.648 313.064 420.166C314.506 434.684 313.554 458.386 311.86 462.502C310.166 466.618 308.962 468.102 309.2 471.21C309.438 474.318 309.69 478.7 309.69 478.7" stroke="white" stroke-linecap="round" stroke-linejoin="round"/>
<path d="M305.812 146.508C305.812 146.508 304.412 142.154 302.172 143.848C299.932 145.542 301.458 148.692 303.39 151.842C305.322 154.992 307.492 155.706 307.744 154.012C307.996 152.318 305.812 146.508 305.812 146.508Z" fill="#9C6546" stroke="#263238" stroke-linecap="round" stroke-linejoin="round"/>
<path d="M305.812 148.454L303.39 141.454C303.39 141.454 293.24 137.338 296.39 127.174C299.54 117.01 323.732 107.826 330.256 107.826C336.78 107.826 349.366 116.534 351.55 126.698C353.734 136.862 346.468 146.046 346.468 146.046C346.468 146.046 343.318 154.992 340.868 154.516C338.418 154.04 339.888 147.012 336.752 141.454C333.616 135.896 331.67 133.054 328.282 134.454C324.894 135.854 310.866 140.054 309.662 141.944C308.458 143.834 306.302 149.658 305.812 148.454Z" fill="#151B1E" stroke="#263238" stroke-linecap="round" stroke-linejoin="round"/>
<path d="M354.924 248.12L356.128 254.406L341.134 277.632L344.522 282.952C351.635 278.209 358.134 272.604 363.87 266.264C373.544 255.624 374.51 254.168 374.51 249.814C374.51 245.46 371.136 237.956 371.136 237.956C371.136 237.956 364.36 248.12 354.924 248.12Z" fill="#9C6546" stroke="#263238" stroke-linecap="round" stroke-linejoin="round"/>
<path d="M272.912 234.092C272.912 234.092 268.068 245.698 269.048 249.324C270.028 252.95 286.702 274.244 286.702 274.244L289.6 266.264C289.6 266.264 283.314 253.202 283.314 248.848C283.314 244.494 285.498 236.024 285.498 236.024L272.912 234.092Z" fill="#9C6546" stroke="#263238" stroke-linecap="round" stroke-linejoin="round"/>
<path d="M315.738 176.51C315.738 176.51 294.934 184.49 291.056 185.708C287.178 186.926 284.518 187.64 284.28 188.844C284.042 190.048 272.436 219.812 270.28 223.928C268.124 228.044 265.198 232.636 265.198 232.636C268.016 234.398 270.923 236.015 273.906 237.48C276.949 238.81 280.108 239.86 283.342 240.616L284.742 257.318L270.462 320.206C270.462 320.206 299.008 328.186 318.062 327.472C330.194 327.059 342.189 324.773 353.622 320.696C357.262 319.478 362.82 317.308 362.82 317.308L344.62 248.848L346.02 238.684L346.986 248.61C346.986 248.61 356.66 250.78 362.218 249.324C367.776 247.868 374.818 242.324 374.818 242.324L356.912 186.45L323.536 177.252L315.738 176.51Z" fill="#54A8A8" stroke="#263238" stroke-linecap="round" stroke-linejoin="round"/>
<path d="M339.244 181.508L323.718 177.238L315.738 176.51L308.556 179.31C308.416 183.118 308.234 189.6 308.234 197.37C308.234 209.97 309.634 221.086 313.316 218.902C316.998 216.718 334.316 193.268 337.256 186.702C338.051 185.024 338.715 183.288 339.244 181.508Z" fill="#54A8A8" stroke="#263238" stroke-linecap="round" stroke-linejoin="round"/>
<path d="M346.216 238.684C345.726 238.208 343.556 217.39 343.556 217.39" stroke="#263238" stroke-linecap="round" stroke-linejoin="round"/>
<path d="M283.314 240.616C283.314 240.616 281.62 232.398 282.11 229.248C282.6 226.098 285.974 207.478 285.974 207.478" stroke="#263238" stroke-linecap="round" stroke-linejoin="round"/>
<path d="M291.546 275.462C291.546 275.462 280.416 279.088 280.416 279.816C280.416 280.544 280.164 283.918 280.164 283.918L291.546 278.598V275.462Z" stroke="#263238" stroke-linecap="round" stroke-linejoin="round"/>
<path d="M321.058 277.156L320.568 280.292L344.76 286.578L345.964 284.17L321.058 277.156Z" stroke="#263238" stroke-linecap="round" stroke-linejoin="round"/>
<path d="M329.038 229.052C328.708 229.052 328.391 228.921 328.157 228.687C327.923 228.453 327.792 228.136 327.792 227.806C327.792 223.606 329.878 213.47 331.908 203.67C333.518 195.872 335.044 188.494 335.044 186.184C335.106 184.911 334.896 183.639 334.428 182.454C333.959 181.269 333.244 180.197 332.328 179.31C329.43 176.622 324.278 175.53 317.026 176.062C301.892 177.182 300.786 211.062 300.772 211.384C300.765 211.71 300.63 212.019 300.397 212.247C300.164 212.475 299.852 212.602 299.526 212.602V212.602C299.362 212.597 299.201 212.559 299.052 212.491C298.903 212.424 298.769 212.327 298.657 212.208C298.545 212.088 298.458 211.947 298.401 211.794C298.343 211.641 298.316 211.478 298.322 211.314C298.322 209.83 299.512 174.914 316.886 173.514C324.866 172.94 330.648 174.242 334.064 177.434C335.228 178.555 336.142 179.908 336.748 181.406C337.353 182.904 337.636 184.513 337.578 186.128C337.578 188.69 336.108 195.844 334.4 204.118C332.482 213.344 330.326 223.802 330.326 227.75C330.334 227.922 330.306 228.094 330.244 228.254C330.182 228.415 330.088 228.561 329.967 228.683C329.846 228.805 329.701 228.901 329.541 228.965C329.381 229.028 329.21 229.058 329.038 229.052V229.052Z" fill="#263238" stroke="#263238" stroke-linecap="round" stroke-linejoin="round"/>
<path d="M313.064 169.02C313.064 169.02 313.064 176.02 312.826 177.42C312.588 178.82 312.826 184.924 312.826 193.156C312.826 201.388 314.226 206.932 316.214 205C318.202 203.068 330.97 185.89 331.698 182.502C332.125 180.598 332.369 178.657 332.426 176.706L333.392 167.018C333.392 167.018 318.398 171.372 312.098 169.44" fill="#9C6546"/>
<path d="M313.064 169.02C313.064 169.02 313.064 176.02 312.826 177.42C312.588 178.82 312.826 184.924 312.826 193.156C312.826 201.388 314.226 206.932 316.214 205C318.202 203.068 330.97 185.89 331.698 182.502C332.125 180.598 332.369 178.657 332.426 176.706L333.392 167.018C333.392 167.018 318.398 171.372 312.098 169.44" stroke="#263238" stroke-linecap="round" stroke-linejoin="round"/>
<path d="M337.984 154.502C339.244 162.906 339.568 171.423 338.95 179.898C337.984 194.654 336.234 201.57 331.95 203.698C327.666 205.826 333.196 208.234 339.72 208.472C346.244 208.71 355.932 207.744 357.626 188.396C359.32 169.048 345.292 156.462 344.074 154.04C343.762 153.478 343.296 153.016 342.73 152.711C342.164 152.406 341.522 152.269 340.881 152.318C340.24 152.367 339.626 152.598 339.112 152.985C338.599 153.373 338.207 153.899 337.984 154.502V154.502Z" fill="#151B1E" stroke="#263238" stroke-linecap="round" stroke-linejoin="round"/>
<path d="M290.818 228.324H290.72C290.55 228.314 290.384 228.269 290.233 228.192C290.081 228.115 289.947 228.007 289.84 227.875C289.732 227.744 289.652 227.591 289.606 227.428C289.56 227.264 289.549 227.092 289.572 226.924C289.572 226.238 290.972 210.04 299.526 210.04C308.08 210.04 308.276 225.622 308.276 226.294C308.276 226.624 308.145 226.941 307.911 227.175C307.677 227.409 307.361 227.54 307.03 227.54V227.54C306.7 227.54 306.383 227.409 306.149 227.175C305.915 226.941 305.784 226.624 305.784 226.294C305.784 226.154 305.602 212.546 299.54 212.546C294.332 212.546 292.386 223.06 292.078 227.12C292.064 227.444 291.925 227.751 291.69 227.975C291.455 228.199 291.143 228.324 290.818 228.324Z" fill="#263238"/>
<path d="M290.818 226.112C290.818 226.112 290.818 238.208 291.294 240.616C291.77 243.024 297.832 248.12 305.084 251.27" stroke="#263238" stroke-width="2" stroke-linecap="round" stroke-linejoin="round"/>
<path d="M306.54 224.6C306.54 224.6 307.016 236.696 304.608 242.016C302.2 247.336 294.934 249.52 291.784 250.724" stroke="#263238" stroke-width="2" stroke-linecap="round" stroke-linejoin="round"/>
<path d="M308.472 251.746C308.428 251.199 308.18 250.688 307.776 250.316C307.373 249.944 306.844 249.737 306.295 249.737C305.746 249.737 305.217 249.944 304.814 250.316C304.41 250.688 304.162 251.199 304.118 251.746C304.094 252.047 304.132 252.349 304.231 252.634C304.329 252.919 304.486 253.18 304.69 253.402C304.895 253.624 305.143 253.8 305.419 253.921C305.695 254.042 305.993 254.105 306.295 254.105C306.597 254.105 306.895 254.042 307.171 253.921C307.447 253.8 307.695 253.624 307.9 253.402C308.104 253.18 308.261 252.919 308.359 252.634C308.458 252.349 308.496 252.047 308.472 251.746V251.746Z" fill="#AFAFAF" stroke="#263238" stroke-linecap="round" stroke-linejoin="round"/>
<path d="M293.478 251.27C293.481 250.837 293.355 250.414 293.117 250.053C292.879 249.692 292.538 249.41 292.14 249.242C291.741 249.075 291.301 249.03 290.877 249.112C290.452 249.195 290.062 249.402 289.755 249.707C289.448 250.012 289.238 250.401 289.153 250.825C289.068 251.249 289.11 251.689 289.275 252.089C289.44 252.488 289.72 252.83 290.079 253.071C290.439 253.312 290.861 253.44 291.294 253.44C291.871 253.44 292.424 253.212 292.833 252.805C293.243 252.399 293.474 251.847 293.478 251.27V251.27Z" fill="#AFAFAF" stroke="#263238" stroke-linecap="round" stroke-linejoin="round"/>
<path d="M336.29 232.398C336.293 230.913 335.855 229.46 335.031 228.224C334.208 226.988 333.036 226.024 331.664 225.454C330.292 224.884 328.782 224.734 327.326 225.024C325.869 225.313 324.53 226.028 323.48 227.078C322.43 228.128 321.715 229.467 321.426 230.923C321.136 232.38 321.286 233.89 321.856 235.262C322.426 236.634 323.39 237.806 324.626 238.629C325.862 239.453 327.315 239.891 328.8 239.888C330.785 239.884 332.688 239.094 334.092 237.69C335.496 236.286 336.286 234.383 336.29 232.398Z" fill="white" stroke="#263238" stroke-linecap="round" stroke-linejoin="round"/>
<path d="M332.902 232.398C332.902 231.583 332.66 230.787 332.207 230.11C331.754 229.433 331.111 228.905 330.358 228.594C329.605 228.283 328.777 228.202 327.978 228.362C327.179 228.522 326.446 228.915 325.871 229.493C325.296 230.07 324.905 230.804 324.747 231.604C324.59 232.403 324.674 233.231 324.987 233.983C325.301 234.735 325.831 235.377 326.51 235.827C327.188 236.278 327.985 236.517 328.8 236.514C329.889 236.51 330.933 236.075 331.701 235.303C332.47 234.532 332.902 233.487 332.902 232.398V232.398Z" fill="white" stroke="#263238" stroke-linecap="round" stroke-linejoin="round"/>
<path d="M332.902 129.582C332.902 129.582 311.86 137.8 309.2 139.2C308.055 139.892 306.839 140.46 305.574 140.894C305.574 140.894 306.778 159.276 307.268 164.12C307.758 168.964 315.486 173.556 322.262 173.318C329.038 173.08 334.596 169.44 335.814 167.27C337.032 165.1 340.406 158.562 340.406 158.562C340.406 158.562 348.386 157.162 348.806 150.092C349.226 143.022 346.874 144.492 344.214 145.976C341.554 147.46 340.098 148.398 340.098 148.398C340.615 145.832 340.183 143.165 338.88 140.894C336.78 137.324 333.392 132.97 332.902 129.582Z" fill="#9C6546" stroke="#263238" stroke-linecap="round" stroke-linejoin="round"/>
<path d="M315.738 152.08C315.738 152.08 317.67 154.978 319.364 154.74" stroke="#263238" stroke-linecap="round" stroke-linejoin="round"/>
<path d="M315.01 156.434C315.01 156.434 319.112 160.312 326.21 157.162" stroke="#263238" stroke-linecap="round" stroke-linejoin="round"/>
<path d="M325.412 146.27C325.412 146.27 330.368 144.1 333.154 147.964" stroke="#263238" stroke-width="1.5" stroke-linecap="round" stroke-linejoin="round"/>
<path d="M315.738 145.794C315.738 145.794 311.86 143.372 308.962 145.304" stroke="#263238" stroke-width="1.5" stroke-linecap="round" stroke-linejoin="round"/>
<path d="M318.58 144.884C318.583 146.236 318.184 147.559 317.434 148.685C316.685 149.811 315.618 150.688 314.369 151.207C313.12 151.726 311.745 151.863 310.419 151.599C309.092 151.336 307.873 150.685 306.917 149.729C305.961 148.773 305.31 147.554 305.047 146.227C304.783 144.901 304.92 143.526 305.439 142.277C305.958 141.028 306.835 139.961 307.961 139.212C309.087 138.462 310.41 138.063 311.762 138.066C313.569 138.07 315.301 138.789 316.579 140.067C317.857 141.345 318.576 143.077 318.58 144.884Z" stroke="#EB9138" stroke-linecap="round" stroke-linejoin="round"/>
<path d="M335.59 146.802C335.593 148.154 335.194 149.476 334.445 150.601C333.696 151.727 332.63 152.605 331.382 153.124C330.134 153.643 328.76 153.78 327.434 153.518C326.108 153.256 324.889 152.607 323.932 151.652C322.975 150.697 322.323 149.48 322.058 148.154C321.794 146.828 321.928 145.454 322.445 144.205C322.961 142.956 323.837 141.888 324.961 141.136C326.085 140.385 327.406 139.984 328.758 139.984C330.566 139.988 332.3 140.707 333.58 141.984C334.86 143.262 335.583 144.994 335.59 146.802V146.802Z" stroke="#EB9138" stroke-linecap="round" stroke-linejoin="round"/>
<path d="M318.58 144.884C319.069 144.719 319.592 144.687 320.097 144.793C320.602 144.899 321.069 145.138 321.45 145.486" stroke="#EB9138" stroke-linecap="round" stroke-linejoin="round"/>
<path d="M335.828 147.88L342.534 146.928" stroke="#EB9138" stroke-linecap="round" stroke-linejoin="round"/>
<path d="M51.404 472.932C49.5496 476.871 47.2679 480.594 44.6 484.034C40.554 489.004 39.532 492.546 43.928 495.626C48.324 498.706 56.332 498.23 60.364 493.26C64.396 488.29 70.892 474.584 70.892 474.584C70.892 474.584 56.724 470.328 51.404 472.932Z" fill="#293941" stroke="#263238" stroke-linecap="round" stroke-linejoin="round"/>
<path d="M100.712 475.998C100.712 475.998 107.712 485.224 111.912 489.998C116.112 494.772 124.05 497.082 128.292 496.844C132.534 496.606 138.624 495.192 134.508 487.632C130.392 480.072 121.796 472.736 121.796 472.736C121.796 472.736 112.808 472.736 106.634 472.022C100.46 471.308 100.404 474.584 100.712 475.998Z" fill="#293941" stroke="#263238" stroke-linecap="round" stroke-linejoin="round"/>
<path d="M55.268 302.23C55.268 302.23 52.468 334.43 53.42 357.082C54.372 379.734 50.2 424.94 48.8 436C47.4 447.06 50.074 465.316 50.2 469.334C50.326 473.352 50.466 475.494 50.466 475.494C50.466 475.494 52.538 474.094 60.168 475.494C63.6126 476.23 67.1091 476.698 70.626 476.894C73.7738 471.569 76.377 465.941 78.396 460.094C80.678 452.534 79.39 444.694 79.208 440.704C79.026 436.714 78.368 432.43 78.816 431.716C79.264 431.002 88.616 363.396 89.12 348.5C89.6928 338.402 91.1925 328.378 93.6 318.554C93.6 318.554 98.066 339.358 98.416 347.394C98.766 355.43 97.618 420.922 98.192 434.194C98.766 447.466 97.744 450.994 96.232 454.298C94.72 457.602 95.266 459.254 96.33 461.858C97.394 464.462 100.74 476.04 100.74 476.04C100.74 476.04 117.806 476.992 120.116 475.802C122.426 474.612 123.322 473.45 123.28 472.736C123.238 472.022 131.498 454.998 130.714 447.914C129.93 440.83 129.034 442.006 128.236 429.238C127.438 416.47 132.66 308.838 132.646 303.238C132.632 297.638 131.694 308.432 96.89 301.838C62.086 295.244 56.262 297.736 55.268 302.23Z" fill="#54A8A8" stroke="#263238" stroke-linecap="round" stroke-linejoin="round"/>
<path d="M101.72 466.8C101.72 466.8 112.654 457.336 121.768 454.97Z" fill="white"/>
<path d="M101.72 466.8C101.72 466.8 112.654 457.336 121.768 454.97" stroke="#263238" stroke-linecap="round" stroke-linejoin="round"/>
<path d="M57.074 462.292C57.074 462.292 70.738 455.67 74.686 454.018Z" fill="white"/>
<path d="M57.074 462.292C57.074 462.292 70.738 455.67 74.686 454.018" stroke="#263238" stroke-linecap="round" stroke-linejoin="round"/>
<path d="M80.006 127.286C80.006 127.286 76.338 119.012 73.622 121.854C70.906 124.696 72.964 128.462 76.702 132.956C80.44 137.45 83.394 134.608 82.61 132.718C81.826 130.828 80.006 127.286 80.006 127.286Z" fill="#FFCC99" stroke="#263238" stroke-linecap="round" stroke-linejoin="round"/>
<path d="M115.51 122.792C115.51 122.792 119.178 114.756 122.174 118.592C125.17 122.428 118.73 131.836 117.148 133.488C115.566 135.14 114.544 122.61 114.544 122.61L115.51 122.792Z" fill="#FFCC99" stroke="#263238" stroke-linecap="round" stroke-linejoin="round"/>
<path d="M35.878 226.35C35.878 226.35 34.856 241.008 33.61 244.788C31.0664 253.697 29.8771 262.937 30.082 272.2C30.572 283.302 34.926 307.424 35.01 314.746C35.094 322.068 32.812 323.734 35.262 325.624C37.712 327.514 42.92 333.198 44.81 333.198C46.7 333.198 49.584 334.136 49.514 332.722C49.444 331.308 48.52 331.532 47.722 329.642C46.7032 326.887 45.8707 324.067 45.23 321.2C45.805 319.112 46.5015 317.06 47.316 315.054C47.316 315.054 48.996 320.962 49.318 322.866C49.64 324.77 52.272 325.456 52.118 321.914C51.964 318.372 51.894 316.944 51.726 313.164C51.558 309.384 48.576 306.08 47.316 304.176C46.056 302.272 45.062 301.11 45.02 300.396C44.978 299.682 49.094 274.636 49.22 265.886C49.346 257.136 49.472 250.038 50.102 248.386C50.732 246.734 53.868 231.838 53.868 231.838L35.878 226.35Z" fill="#FFCC99" stroke="#263238" stroke-linecap="round" stroke-linejoin="round"/>
<path d="M152.806 227.05C152.806 227.05 153.814 241.792 155.074 245.684C157.587 254.709 158.771 264.052 158.588 273.418C158.098 284.492 153.716 308.222 153.632 315.544C153.548 322.866 155.844 324.714 153.394 326.394C150.944 328.074 145.722 333.282 143.832 333.128C141.942 332.974 139.072 333.646 139.128 332.232C139.184 330.818 140.122 331.14 140.92 329.32C141.954 326.621 142.792 323.852 143.426 321.032C142.846 318.88 142.145 316.763 141.326 314.69C141.326 314.69 139.646 320.458 139.324 322.32C139.002 324.182 136.384 324.658 136.524 321.13C136.664 317.602 136.734 316.188 136.902 312.422C137.07 308.656 140.052 305.604 141.326 303.826C142.6 302.048 143.58 300.942 143.622 300.242C143.664 299.542 139.548 274.118 139.422 265.354C139.296 256.59 139.184 249.492 138.54 247.784C137.896 246.076 134.774 230.9 134.774 230.9L152.806 227.05Z" fill="#FFCC99" stroke="#263238" stroke-linecap="round" stroke-linejoin="round"/>
<path d="M87.58 154.474C87.58 154.474 74.14 160.858 66.02 164.4C57.9 167.942 47.694 172.198 47.82 173.864C47.946 175.53 39.168 208.612 36.396 215.472C33.624 222.332 31.034 227.764 31.034 227.764C31.034 227.764 40.96 234.4 47.4 235.8C51.5504 236.679 55.7633 237.231 60 237.452L52.342 305.548C52.342 305.548 67.742 311.694 91.864 311.932C106.831 312.042 121.792 311.252 136.664 309.566C136.664 309.566 138.932 253.566 138.694 248.092C138.53 245.092 138.637 242.084 139.016 239.104C142.69 239.905 146.509 239.746 150.104 238.642C153.266 237.466 156.364 236.124 159.386 234.624C159.386 234.624 147.64 187.808 145.708 181.424C143.776 175.04 144.672 174.102 142.992 173.388C141.312 172.674 122.748 164.638 116.686 161.096C110.624 157.554 108.286 157.54 102.98 155.888C97.674 154.236 90.31 152.108 87.58 154.474Z" fill="#54A8A8" stroke="#263238" stroke-linecap="round" stroke-linejoin="round"/>
<path d="M139.044 239.104L136.048 197.118" stroke="#263238" stroke-linecap="round" stroke-linejoin="round"/>
<path d="M60.56 261.098L86.782 260.384C86.782 260.384 85.62 293.256 84.822 296.784C84.024 300.312 78.704 302.692 71.83 302.454C64.956 302.216 60.798 298.912 60.014 297.26" stroke="#263238" stroke-linecap="round" stroke-linejoin="round"/>
<path d="M59.09 265.354L86.74 265.116" stroke="#263238" stroke-linecap="round" stroke-linejoin="round"/>
<path d="M131.89 302.468C129.314 303.182 123.168 303.182 121.824 299.402C120.48 295.622 121.362 261.812 121.362 261.812L134.858 262.274" stroke="#263238" stroke-linecap="round" stroke-linejoin="round"/>
<path d="M121.25 264.64L134.088 266.53" stroke="#263238" stroke-linecap="round" stroke-linejoin="round"/>
<path d="M60 237.452C60 237.452 60.952 205.07 60.574 196.558" stroke="#263238" stroke-linecap="round" stroke-linejoin="round"/>
<path d="M83.576 138.626C83.576 138.626 85.62 158.226 85.704 160.382C85.788 162.538 88.182 168.418 90.45 171.498C92.718 174.578 99.06 184.504 101.58 182.6C104.1 180.696 111.198 170.07 111.884 164.162C112.57 158.254 112.906 144.31 112.906 144.31C112.906 144.31 103.708 144.786 96.736 142.42C89.764 140.054 83.576 138.626 83.576 138.626Z" fill="#FFCC99" stroke="#263238" stroke-linecap="round" stroke-linejoin="round"/>
<path d="M73.776 109.31L78.998 125.872C78.998 125.872 80.958 138.164 84.486 143.12C88.014 148.076 100.376 155.188 105.99 153.76C111.604 152.332 118.226 147.138 117.974 141.468C117.722 135.798 116.574 119.25 116.728 112.866C116.882 106.482 115.328 93.476 111.464 89.934C107.6 86.392 94.664 84.25 85.382 88.044C76.1 91.838 69.8 98.908 73.776 109.31Z" fill="#111111" stroke="#111111" stroke-linecap="round" stroke-linejoin="round"/>
<path d="M79.292 127.286C79.292 127.286 78.83 127.524 80.048 122.792C81.266 118.06 84.934 115.694 85.298 113.342C85.662 110.99 80.678 110.262 81.224 106.72C81.77 103.178 86.642 100.574 96.988 99.384C107.334 98.194 114.222 104.354 113.886 107.42C113.55 110.486 112.626 110.976 114.138 113.104C115.65 115.232 116.294 119.25 116.406 121.616C116.518 123.982 117.806 132.48 115.566 135.084C113.326 137.688 111.646 137.212 109.42 135.084C107.194 132.956 106.368 130.128 101.412 130.128C96.456 130.128 94.874 132.018 94.006 133.908C93.138 135.798 92.298 138.108 89.47 138.108C86.642 138.108 84.626 135.504 82.61 132.662C81.3815 130.949 80.2729 129.152 79.292 127.286V127.286Z" fill="#FFCC99" stroke="#111111" stroke-linecap="round" stroke-linejoin="round"/>
<path d="M100.6 115.694C100.6 115.694 105.178 128.462 104.982 129.414C104.786 130.366 102.546 133.194 99.928 132.956C97.31 132.718 96.008 129.652 96.008 129.652" stroke="#263238" stroke-linecap="round" stroke-linejoin="round"/>
<path d="M101.888 114C101.763 113.573 101.736 113.123 101.809 112.683C101.882 112.244 102.054 111.827 102.311 111.464C102.568 111.1 102.904 110.799 103.294 110.584C103.684 110.369 104.117 110.244 104.562 110.22C106.025 110.149 107.486 110.387 108.852 110.917C110.217 111.448 111.455 112.26 112.486 113.3" stroke="#111111" stroke-width="2" stroke-linecap="round" stroke-linejoin="round"/>
<path d="M95 112.6C94.3244 112.098 93.5457 111.752 92.7201 111.587C91.8945 111.422 91.0426 111.443 90.226 111.648C87.426 112.362 84.052 116.618 84.094 117.332" stroke="#111111" stroke-width="2" stroke-linecap="round" stroke-linejoin="round"/>
<path d="M94.09 119.488C94.09 120.664 93.6 121.616 92.872 121.616C92.144 121.616 91.472 120.664 91.472 119.488C91.472 118.312 91.962 117.36 92.676 117.36C93.39 117.36 94.034 118.312 94.09 119.488Z" fill="#263238"/>
<path d="M107.768 118.774C107.768 119.95 107.278 120.902 106.564 120.902C105.85 120.902 105.164 119.95 105.164 118.774C105.164 117.598 105.654 116.646 106.368 116.646C107.082 116.646 107.712 117.598 107.768 118.774Z" fill="#263238"/>
<path d="M95.616 138.164C95.616 138.164 100.194 140.292 107.152 137.212" stroke="#FFCC99" stroke-width="2" stroke-linecap="round" stroke-linejoin="round"/>
<path d="M78.774 158.8C78.774 158.8 85.774 182.908 93.292 198.756C100.81 214.604 106.774 225.706 106.774 225.706C106.774 225.706 118.1 187.64 118.044 175.306C117.988 162.972 117.918 161.6 117.918 161.6" stroke="#263238" stroke-linecap="round" stroke-linejoin="round"/>
<path d="M115.16 249.744H100.726L99.676 225.636H114.096L115.16 249.744Z" fill="white" stroke="#263238" stroke-linecap="round" stroke-linejoin="round"/>
<path d="M221.196 483.334C221.196 483.334 228.756 489.48 234.188 491.132C239.62 492.784 242.462 493.736 241.286 496.34C240.11 498.944 236.316 499.882 225.214 500.12C214.112 500.358 211.97 497.992 207.714 496.802C203.458 495.612 197.55 496.802 195.66 494.45C193.77 492.098 194.47 488.528 194.47 484.748C194.47 480.968 210.794 479.316 215.05 480.73C217.186 481.375 219.247 482.248 221.196 483.334V483.334Z" fill="#272E41" stroke="#11141D" stroke-linecap="round" stroke-linejoin="round"/>
<path d="M199.678 488.066C199.678 488.066 206.776 495.626 212.684 498.93C218.592 502.234 221.896 504.614 220.482 506.266C219.068 507.918 214.574 510.046 202.744 508.87C190.914 507.694 188.562 505.076 182.892 501.058C177.222 497.04 174.618 497.516 172.728 495.388C170.838 493.26 170.838 488.528 170.838 488.528L199.678 488.066Z" fill="#272E41" stroke="#11141D" stroke-linecap="round" stroke-linejoin="round"/>
<path d="M235.14 313.108C235.14 313.108 230.94 369.374 229.232 379.538C227.524 389.702 225.914 395.386 226.152 402.47C226.39 409.554 228.518 429.896 224.262 441.964C220.006 454.032 220.062 468.676 220.482 472.932C220.902 477.188 222.372 482.858 222.134 483.81C221.896 484.762 215.05 488.528 210.08 489.48C206.957 490.054 203.791 490.368 200.616 490.418C195.806 492.116 190.81 493.23 185.734 493.736C178.636 494.212 168.934 492.084 168.934 492.084C168.934 492.084 168.934 474.584 167.982 463.23C167.03 451.876 163.782 433.69 167.744 419.97C171.706 406.25 170.824 398.97 170.544 394.434C170.264 389.898 170.544 369.612 170.306 368.898C170.068 368.184 168.654 309.09 168.654 309.09C168.654 309.09 194.414 312.87 211.676 311.218C228.938 309.566 233.432 309.566 233.432 309.566C233.432 309.566 237.268 305.31 235.14 313.108Z" fill="#000621" stroke="#000209" stroke-linecap="round" stroke-linejoin="round"/>
<path d="M201.806 487.114C201.793 483.287 201.323 479.475 200.406 475.76C199.006 471.042 198.74 454.256 199.454 447.396C200.168 440.536 203.654 423.288 203.654 413.586C203.654 403.884 204.606 389.002 204.606 389.002" stroke="white" stroke-linecap="round" stroke-linejoin="round"/>
<path d="M250.736 383.794L223.8 383.556C222.624 383.556 222.624 365.594 222.624 365.594L250.736 383.794Z" fill="white" stroke="#263238" stroke-linecap="round" stroke-linejoin="round"/>
<path d="M193.77 316.426C193.77 316.426 220.72 318.078 235.854 315.474L230.646 188.284C230.646 188.284 227.104 182.376 217.64 179.058C208.176 175.74 196.836 180.458 192.818 184.966C188.8 189.474 191.642 315.95 191.642 315.95L193.77 316.426Z" fill="#DC143C" stroke="#263238" stroke-linecap="round" stroke-linejoin="round"/>
<path d="M194.946 179.058C194.946 179.058 168.234 192.54 164.216 194.906C160.198 197.272 160.016 205.77 160.016 209.802C160.016 213.834 161.192 392.782 161.192 392.782C171.303 393.442 181.453 392.406 191.222 389.716C200.856 387.195 209.922 382.862 217.934 376.948L213.44 280.726L208.4 196.32C208.4 196.32 205.348 172.912 194.946 179.058Z" fill="white" stroke="#263238" stroke-linecap="round" stroke-linejoin="round"/>
<path d="M202.982 170.308C202.982 170.308 196.836 171.022 194.232 174.508C192.706 176.565 191.585 178.893 190.928 181.368L188.562 202.648L196.598 200.758L192.58 210.208C192.58 210.208 196.598 222.038 201.092 231.964C205.586 241.89 212.208 262.218 212.208 262.218L209.128 198.63C209.128 198.63 209.128 180.192 207.728 176.23C206.328 172.268 204.872 170.308 202.982 170.308Z" fill="white" stroke="#263238" stroke-linecap="round" stroke-linejoin="round"/>
<path d="M218.354 183.314L223.086 375.996L250.736 383.794L246.718 236.99C246.718 236.99 247.432 199.19 245.066 193.954C242.7 188.718 221.434 178.12 219.306 178.4C217.178 178.68 218.354 183.314 218.354 183.314Z" fill="white" stroke="#263238" stroke-linecap="round" stroke-linejoin="round"/>
<path d="M218.354 173.626C220.075 174.046 221.685 174.834 223.073 175.936C224.46 177.038 225.592 178.428 226.39 180.01C228.756 185.204 234.902 201.29 234.902 201.29L227.104 202.228L235.378 208.136L220.72 263.226L219.068 203.6L217.668 179.016C217.668 179.016 215.988 175.04 218.354 173.626Z" fill="white" stroke="#263238" stroke-linecap="round" stroke-linejoin="round"/>
<path d="M201.092 162.272C201.092 162.272 202.044 169.132 200.616 172.912C199.188 176.692 205.11 188.522 207.476 195.844C209.842 203.166 212.208 209.088 213.622 208.374C215.036 207.66 220.006 180.01 219.768 176.454C219.53 172.898 221.896 162.272 221.896 162.272C221.896 162.272 208.89 166.052 201.092 162.272Z" fill="#F5DEB3" stroke="#263238" stroke-linecap="round" stroke-linejoin="round"/>
<path d="M184.488 155.062C191.934 155.062 197.97 148.756 197.97 140.978C197.97 133.2 191.934 126.894 184.488 126.894C177.042 126.894 171.006 133.2 171.006 140.978C171.006 148.756 177.042 155.062 184.488 155.062Z" fill="#574337" stroke="#403128" stroke-linecap="round" stroke-linejoin="round"/>
<path d="M191.404 147.6C191.404 147.6 189.038 141.454 186.196 143.82C183.354 146.186 186.196 151.38 188.324 154.46C190.452 157.54 194.47 156.112 194.008 153.06C193.626 151.046 192.729 149.165 191.404 147.6V147.6Z" fill="#F5DEB3" stroke="#263238" stroke-linecap="round" stroke-linejoin="round"/>
<path d="M228 143.778C228 143.778 229.19 137.87 230.8 141.888C231.513 143.462 231.841 145.183 231.758 146.908C231.675 148.634 231.184 150.315 230.324 151.814C228.924 154.18 229.148 153.942 228.672 151.814C228.3 149.15 228.076 146.467 228 143.778V143.778Z" fill="#F5DEB3" stroke="#263238" stroke-linecap="round" stroke-linejoin="round"/>
<path d="M188.086 136.218C188.086 136.218 192.58 157.96 195.422 163.168C198.264 168.376 207.714 177.168 216.226 173.57C224.738 169.972 229.47 163.406 229.47 155.37C229.47 147.334 230.646 137.17 229.232 128.406C228.518 124.415 226.464 120.788 223.41 118.123C220.355 115.457 216.483 113.914 212.432 113.748C204.858 113.51 193.042 117.766 190.676 125.34C189.449 128.87 188.582 132.514 188.086 136.218V136.218Z" fill="#F5DEB3" stroke="#263238" stroke-linecap="round" stroke-linejoin="round"/>
<path d="M188.324 144.254C188.324 144.254 201.568 139.046 210.08 132.662C218.592 126.278 221.196 121.56 221.196 121.56C221.196 121.56 225.214 132.424 226.866 135.98C228.518 139.536 229.932 143.54 229.932 143.54C229.932 143.54 232.536 139.046 232.536 129.54C232.536 120.034 229.932 112.516 219.936 107.546C209.94 102.576 193.7 105.656 186.336 112.754C178.972 119.852 180.428 131.43 182.318 135.924C183.797 139.043 185.833 141.865 188.324 144.254Z" fill="#574337" stroke="#403128" stroke-linecap="round" stroke-linejoin="round"/>
<path d="M217.64 135.504C217.64 135.504 216.24 135.742 216.24 139.998C216.24 144.254 217.64 151.338 217.416 152.29C217.192 153.242 214.616 156.07 212.936 154.418" stroke="#263238" stroke-linecap="round" stroke-linejoin="round"/>
<path d="M207 158.674C207 158.674 213.146 161.278 221 156.546" stroke="#263238" stroke-linecap="round" stroke-linejoin="round"/>
<path d="M218.592 135C218.592 135 223.576 133.096 226.866 135.952" stroke="#263238" stroke-linecap="round" stroke-linejoin="round"/>
<path d="M210.318 135.98C208.154 135.337 205.869 135.216 203.65 135.628C201.43 136.039 199.34 136.971 197.55 138.346" stroke="#263238" stroke-linecap="round" stroke-linejoin="round"/>
<path d="M207 142.826C207 144.226 206.426 145.43 205.712 145.43C204.998 145.43 204.41 144.268 204.41 142.826C204.41 141.384 204.984 140.236 205.712 140.236C206.44 140.236 207 141.398 207 142.826Z" fill="#263238"/>
<path d="M222.4 141.888C222.4 143.288 221.812 144.492 221.098 144.492C220.384 144.492 219.796 143.33 219.796 141.888C219.796 140.446 220.384 139.284 221.098 139.284C221.812 139.284 222.4 140.446 222.4 141.888Z" fill="#263238"/>
<path d="M237.506 237.69L233.306 230.83C232.116 228.94 226.684 229.654 224.08 229.654C222.727 229.795 221.425 230.247 220.276 230.976C219.127 231.705 218.162 232.69 217.458 233.854C216.52 235.744 212.264 238.824 213.916 240.714C215.568 242.604 220.062 241.414 220.776 241.89C221.49 242.366 227.398 246.384 229.526 247.098C230.658 247.513 231.868 247.671 233.068 247.56L237.506 237.69Z" fill="#F5DEB3" stroke="#263238" stroke-linecap="round" stroke-linejoin="round"/>
<path d="M243.89 192.54C246.268 193.638 248.396 195.21 250.144 197.16C251.892 199.11 253.222 201.397 254.054 203.88C256.658 212.154 265.394 267.244 263.504 272.48C261.614 277.716 256.896 281.692 248.622 278.864C240.348 276.036 227.622 262.54 227.622 262.54L237.548 237.718L245.346 241.736L243.694 219.518" fill="white"/>
<path d="M243.89 192.54C246.268 193.638 248.396 195.21 250.144 197.16C251.892 199.11 253.222 201.397 254.054 203.88C256.658 212.154 265.394 267.244 263.504 272.48C261.614 277.716 256.896 281.692 248.622 278.864C240.348 276.036 227.622 262.54 227.622 262.54L237.548 237.718L245.346 241.736L243.694 219.518" stroke="#263238" stroke-linecap="round" stroke-linejoin="round"/>
<path d="M245.304 241.708C245.304 241.708 257.834 249.044 259.024 251.648" stroke="#263238" stroke-linecap="round" stroke-linejoin="round"/>
<path d="M229.456 208.612H183.83V272.452H229.456V208.612Z" fill="#263238" stroke="#263238" stroke-linecap="round" stroke-linejoin="round"/>
<path d="M204.41 253.062C204.41 253.062 213.146 248.33 215.75 245.726C218.354 243.122 218.83 242.926 220.244 242.926C223.724 242.925 227.199 242.687 230.646 242.212C232.046 241.736 231.36 245.012 230.646 245.754C229.932 246.496 225.452 247.42 225.452 247.42C225.452 247.42 233.012 246.706 233.25 249.072C233.419 249.751 233.398 250.463 233.188 251.13C232.978 251.797 232.587 252.393 232.06 252.852L231.36 253.566C231.36 253.566 232.06 258.522 231.36 260.888C230.66 263.254 229.232 263.968 226.152 264.43C222.041 264.693 217.914 264.458 213.86 263.73C211.494 263.254 203.458 264.906 203.458 264.906L204.41 253.062Z" fill="#F5DEB3" stroke="#263238" stroke-linecap="round" stroke-linejoin="round"/>
<path d="M172.966 190.65C172.966 190.65 158.966 193.716 156.642 195.13C154.318 196.544 146.478 252.824 144.826 262.33C143.174 271.836 159.484 273.684 164.426 275.574C169.368 277.464 205.6 280.25 205.6 280.25L206.076 250.934L181.016 244.55L180.778 204.118" fill="white"/>
<path d="M172.966 190.65C172.966 190.65 158.966 193.716 156.642 195.13C154.318 196.544 146.478 252.824 144.826 262.33C143.174 271.836 159.484 273.684 164.426 275.574C169.368 277.464 205.6 280.25 205.6 280.25L206.076 250.934L181.016 244.55L180.778 204.118" stroke="#263238" stroke-linecap="round" stroke-linejoin="round"/>
<path d="M181.002 244.55C181.002 244.55 172.252 240.532 166.582 242.66C160.912 244.788 156.18 255.666 156.18 255.666" stroke="#263238" stroke-linecap="round" stroke-linejoin="round"/>
<path d="M171.3 241.708C171.3 241.708 163.026 241.232 159.008 242.898C156.537 243.943 154.349 245.56 152.624 247.616" stroke="#263238" stroke-linecap="round" stroke-linejoin="round"/>
<path d="M216.226 206.484H200.154V211.692H216.226V206.484Z" fill="white" stroke="#263238" stroke-linecap="round" stroke-linejoin="round"/>
</svg>
