<svg width="700" height="700" viewBox="0 0 700 700" fill="none" xmlns="http://www.w3.org/2000/svg">
<path opacity="0.7" d="M192.71 152.6C192.71 152.6 126.126 217.126 106.4 290.332C86.674 363.538 115.206 440.384 182.308 482.916C249.41 525.448 338.94 488.516 427.98 500.668C517.02 512.82 599.592 478.184 610.61 388.948C621.628 299.712 557.214 288.148 518.378 201.348C479.542 114.548 353.024 9.548 192.71 152.6Z" fill="#E91E63"/>
<path d="M357.672 620.004C506.899 620.004 627.872 598.517 627.872 572.012C627.872 545.507 506.899 524.02 357.672 524.02C208.445 524.02 87.472 545.507 87.472 572.012C87.472 598.517 208.445 620.004 357.672 620.004Z" fill="#E8E8E8"/>
<path d="M460.796 267.4C455.895 273.501 452.568 280.712 451.108 288.4C448.532 301.462 442.19 326.004 442.988 334.516C443.786 343.028 445.788 347.774 453.474 349.16C461.16 350.546 465.542 343.812 467.138 338.072C468.15 334.295 468.94 330.462 469.504 326.592L471.086 295.4C471.086 295.4 468.286 276.654 466.956 272.706C465.626 268.758 460.796 267.4 460.796 267.4Z" fill="#54A8A8" stroke="#263238" stroke-linecap="round" stroke-linejoin="round"/>
<path d="M563.752 261.156C563.752 261.156 566.552 260.54 569.212 270.256C571.872 279.972 575.078 293.916 580.328 311.108C585.578 328.3 586.6 333.97 586.194 337.806C585.788 341.642 582.764 345.898 572.194 345.898C561.624 345.898 556.794 341.852 553.994 332.752C551.194 323.652 551.6 295.54 551.404 291.9C551.208 288.26 560.504 259.336 563.752 261.156Z" fill="#54A8A8" stroke="#263238" stroke-linecap="round" stroke-linejoin="round"/>
<path d="M491.54 563.136C491.54 563.136 484.666 570.416 480.62 575.078C476.574 579.74 475.16 582.554 481.824 585.382C488.488 588.21 498.82 583.982 501.858 579.32C504.896 574.658 511.364 569.408 511.364 569.408C511.364 569.408 514.794 565.572 510.342 560.112C505.89 554.652 493.556 560.91 491.54 563.136Z" fill="#4E5263" stroke="#22242B" stroke-linecap="round" stroke-linejoin="round"/>
<path d="M532.798 569.212C532.798 569.212 539.672 570.22 543.312 573.412C546.952 576.604 559.706 583.73 568.19 580.286C576.674 576.842 571.228 571.186 566.58 567.14C563.969 564.825 561.121 562.793 558.082 561.078C558.082 561.078 544.53 560.07 538.482 563.094C532.434 566.118 532.798 569.212 532.798 569.212Z" fill="#4E5263" stroke="#22242B" stroke-linecap="round" stroke-linejoin="round"/>
<path d="M483.644 475.146C483.644 475.146 486.892 499.422 485.268 506.702C483.644 513.982 478.996 518.238 482.468 525.322C485.038 530.799 486.919 536.574 488.068 542.514C488.474 544.936 486.248 545.538 488.068 548.114C489.395 549.775 490.483 551.613 491.302 553.574C491.302 554.19 488.88 557.62 488.88 558.432C488.88 559.244 490.098 564.298 490.098 564.298C490.098 564.298 496.566 562.898 501.214 564.704C504.581 566.154 507.771 567.986 510.72 570.164C510.72 570.164 514.92 568.54 516.39 566.118C517.183 564.849 517.662 563.409 517.79 561.918C517.986 561.106 520.016 556.85 519.82 553.616C519.624 550.382 517.384 543.508 517.384 539.462C517.384 535.416 520.422 530.964 520.422 524.496C520.422 518.028 517.384 476.56 517.384 476.56L520.184 475.538C520.184 475.538 524.636 500.22 524.636 511.756C524.636 523.292 521.206 537.642 523.432 540.47C525.658 543.298 528.276 545.734 528.276 546.336C528.276 546.938 525.644 551.39 526.26 553.616C527.221 556.54 528.029 559.512 528.682 562.52C528.682 563.738 530.908 568.386 532.728 569.198C534.548 570.01 535.528 568.176 546.28 565.964C557.032 563.752 563.08 564.34 562.058 561.106C561.036 557.872 560.042 553.616 558.824 552.804C557.606 551.992 559.23 551.404 558.824 548.366C558.418 545.328 556.192 542.094 554.176 537.236C552.16 532.378 554.974 527.128 555.786 522.06C556.598 516.992 555.38 509.46 553.364 501.228C551.348 492.996 553.154 472.71 553.154 472.71L554.176 464.828C554.176 464.828 523.222 467.628 504.21 467.446L483.784 467.25C483.784 467.25 482.44 468.678 483.644 475.146Z" fill="#000921" stroke="black" stroke-linecap="round" stroke-linejoin="round"/>
<path d="M562.128 390.6C562.128 390.6 564.928 427.42 568.596 446.6C570.707 457.425 572.045 468.387 572.6 479.402H557.886C557.27 479.402 558.894 411.236 559.286 405.202C559.819 400.263 560.77 395.378 562.128 390.6Z" fill="#54A8A8" stroke="#263238" stroke-linecap="round" stroke-linejoin="round"/>
<path d="M501.2 240.8C501.2 240.8 484.008 252.322 475.118 256.368C466.228 260.414 461.356 265.678 460.754 267.568C460.152 269.458 470.456 298.508 470.456 298.508C470.456 298.508 469.854 394.59 469.854 410.774C469.854 426.958 464.8 475.692 465.402 475.692C466.004 475.692 482.202 486.22 504.434 486.822C526.666 487.424 533.834 484.19 540.834 484.19C547.834 484.19 561.834 484.19 562.072 482.174C562.31 480.158 562.478 435.442 562.674 414.61C562.87 393.778 563.08 379.008 562.674 375.578C562.268 372.148 556.612 298.102 556.612 298.102C556.612 298.102 560.812 285.768 563.29 275.856C565.768 265.944 565.712 264.726 562.674 260.288C559.636 255.85 536.844 243.754 532.798 242.2C527.826 240.46 522.65 239.373 517.398 238.966C513.59 238.7 501.2 240.8 501.2 240.8Z" fill="#54A8A8" stroke="#263238" stroke-linecap="round" stroke-linejoin="round"/>
<path d="M463.218 323.05C463.218 323.05 465.85 329.112 469.084 331.744C472.318 334.376 479.808 335.594 481.418 339.64C483.028 343.686 481.418 346.71 479.598 351.568C477.778 356.426 478.8 364.518 472.122 365.568C465.444 366.618 463.428 364.168 457.954 360.304C452.48 356.44 449.064 355.852 445.83 349.986C442.596 344.12 441.63 335.986 444.43 331.59" fill="#54A8A8"/>
<path d="M463.218 323.05C463.218 323.05 465.85 329.112 469.084 331.744C472.318 334.376 479.808 335.594 481.418 339.64C483.028 343.686 481.418 346.71 479.598 351.568C477.778 356.426 478.8 364.518 472.122 365.568C465.444 366.618 463.428 364.168 457.954 360.304C452.48 356.44 449.064 355.852 445.83 349.986C442.596 344.12 441.63 335.986 444.43 331.59" stroke="#263238" stroke-linecap="round" stroke-linejoin="round"/>
<path d="M500.444 232.834L499.8 249.83C499.8 249.83 498.19 252.252 507.892 252.854C514.128 253.181 520.381 252.711 526.498 251.454L524.888 233.058C524.888 233.058 514.766 237.258 508.9 235.284C506.149 234.249 503.322 233.43 500.444 232.834Z" fill="#B38B6D" stroke="#263238" stroke-linecap="round" stroke-linejoin="round"/>
<path d="M496.594 228.592C496.594 228.592 495.194 248.192 494.172 254.072C493.15 259.952 493.36 263.578 495.572 264.992C497.784 266.406 510.734 271.474 517.412 271.068C524.09 270.662 534.212 264.586 535.01 262.766C535.808 260.946 528.962 232.4 528.962 232.4L527.94 233.618C527.94 233.618 529.76 248.584 529.158 249.018C528.556 249.452 505.092 247.8 500.836 247.618C496.58 247.436 497.812 247.212 497.812 247.212L497.602 230.02L496.594 228.592Z" fill="white" stroke="#263238" stroke-linecap="round" stroke-linejoin="round"/>
<path d="M495.95 251.916C495.95 251.916 518.056 255.178 531.314 252.616" stroke="#263238" stroke-width="0.5" stroke-miterlimit="10"/>
<path d="M495.026 257.04C495.026 257.04 510.426 263.55 531.314 257.726" stroke="#263238" stroke-width="0.5" stroke-miterlimit="10"/>
<path d="M496.65 263.088C496.65 263.088 511.308 270.998 531.314 262.612" stroke="#263238" stroke-width="0.5" stroke-miterlimit="10"/>
<path d="M532.406 207.956C532.91 201.74 533.33 195.356 531.79 192.178C529.368 187.124 522.074 181.258 511.56 181.664C501.046 182.07 492.142 186.116 492.352 199.052C492.352 199.052 492.8 202.902 493.318 207.62C492.355 209.68 492.019 211.978 492.352 214.228C492.678 216.387 493.435 218.458 494.578 220.318C494.676 221.522 494.746 222.558 494.774 223.328C494.97 228.788 498.61 235.256 501.858 237.482C505.106 239.708 511.154 243.152 515.004 243.152C518.854 243.152 525.714 239.512 529.004 234.248C531.552 230.048 531.804 227.248 531.804 222.306H532C532.579 219.71 532.921 217.068 533.022 214.41C533.105 212.241 532.897 210.07 532.406 207.956Z" fill="#B38B6D" stroke="#263238" stroke-linecap="round" stroke-linejoin="round"/>
<path d="M494.2 209.174C494.2 209.174 494.802 214.228 495.81 214.018C496.818 213.808 498.036 206.542 498.036 206.542L494.2 209.174Z" fill="#241913" stroke="#241913" stroke-linecap="round" stroke-linejoin="round"/>
<path d="M528.556 208.6C528.556 208.6 528.556 214.27 529.956 215.082C531.356 215.894 532.378 210.224 532.378 210.224C531.231 209.422 529.929 208.869 528.556 208.6Z" fill="#241913" stroke="#241913" stroke-linecap="round" stroke-linejoin="round"/>
<path d="M531.79 192.178C529.368 187.124 522.074 181.258 511.56 181.664C501.046 182.07 492.142 186.116 492.352 199.052C492.352 199.052 492.8 202.902 493.318 207.62C492.68 208.988 492.314 210.467 492.24 211.974C496.174 208.824 503.538 204.316 512.778 205.128C519.968 205.947 526.879 208.384 532.994 212.254C532.93 210.806 532.733 209.368 532.406 207.956C532.91 201.74 533.4 195.398 531.79 192.178Z" fill="#54A8A8" stroke="#263238" stroke-linecap="round" stroke-linejoin="round"/>
<path d="M510.146 212.8L508.928 220.08C508.928 220.08 506.702 220.276 507.528 221.69C508.354 223.104 512.582 224.728 514.612 224.126C516.642 223.524 518.658 221.494 518.448 220.682C518.386 220.439 518.259 220.217 518.082 220.04C517.905 219.863 517.683 219.736 517.44 219.674L514.808 212.184" stroke="#263238" stroke-linecap="round" stroke-linejoin="round"/>
<path d="M507.92 227.78C511.804 228.618 515.835 228.479 519.652 227.374" stroke="#263238" stroke-linecap="round" stroke-linejoin="round"/>
<path d="M505.694 212.506C505.694 213.57 505.148 214.424 504.476 214.424C503.804 214.424 503.272 213.57 503.272 212.506C503.272 211.442 503.818 210.588 504.476 210.588C505.134 210.588 505.694 211.4 505.694 212.506Z" fill="#263238"/>
<path d="M521.066 212.408C521.066 213.472 520.52 214.326 519.862 214.326C519.204 214.326 518.644 213.472 518.644 212.408C518.644 211.344 519.19 210.49 519.862 210.49C520.534 210.49 521.066 211.4 521.066 212.408Z" fill="#263238"/>
<path d="M501.046 209.58C501.046 209.58 502.446 206.136 506.912 207.354" stroke="#263238" stroke-linecap="round" stroke-linejoin="round"/>
<path d="M516.012 207.55C516.012 207.55 520.212 204.512 523.292 209.776" stroke="#263238" stroke-linecap="round" stroke-linejoin="round"/>
<path d="M477.778 348.334C477.778 348.334 490.126 351.134 492.954 350.56C496.661 349.868 500.055 348.026 502.656 345.296C506.31 341.656 509.334 338.618 509.334 341.656C509.347 342.855 509.12 344.044 508.669 345.155C508.217 346.265 507.548 347.275 506.702 348.124C505.302 349.748 502.656 351.568 502.054 354.2C501.452 356.832 502.264 358.848 505.498 360.066C508.732 361.284 518.84 363.09 518.84 365.666C518.84 368.242 518.028 374.374 514.388 376.39C510.748 378.406 501.858 376.992 501.858 376.992C501.858 376.992 509.138 381.038 507.724 382.06C506.31 383.082 502.054 381.654 500.038 379.834C498.022 378.014 497.238 377.804 491.33 373.562C485.422 369.32 480.41 364.252 477.582 362.642C476.05 361.924 474.634 360.981 473.382 359.842C471.758 358.442 471.156 355.642 472.36 352.366C472.77 351.396 473.378 350.521 474.145 349.798C474.911 349.075 475.819 348.519 476.812 348.166L477.778 348.334Z" fill="#FDF8F5" stroke="#263238" stroke-linecap="round" stroke-linejoin="round"/>
<path d="M573.86 325.276C573.86 325.276 559.3 328.076 557.886 329.112C556.472 330.148 557.886 334.376 557.886 334.376C557.886 334.376 545.538 340.242 540.89 343.476C536.242 346.71 540.484 353.192 540.694 353.99C540.694 353.99 544.334 365.932 550.396 369.978C556.458 374.024 562.73 372.596 568.806 366.128C574.882 359.66 578.718 350.728 581.546 347.718C584.374 344.708 587.412 341.852 586.404 335.118C585.396 328.384 580.132 327.628 580.132 327.628" fill="#54A8A8"/>
<path d="M573.86 325.276C573.86 325.276 559.3 328.076 557.886 329.112C556.472 330.148 557.886 334.376 557.886 334.376C557.886 334.376 545.538 340.242 540.89 343.476C536.242 346.71 540.484 353.192 540.694 353.99C540.694 353.99 544.334 365.932 550.396 369.978C556.458 374.024 562.73 372.596 568.806 366.128C574.882 359.66 578.718 350.728 581.546 347.718C584.374 344.708 587.412 341.852 586.404 335.118C585.396 328.384 580.132 327.628 580.132 327.628" stroke="#263238" stroke-linecap="round" stroke-linejoin="round"/>
<path d="M544.124 351.974C544.124 351.974 534.828 354.396 532.196 354.606C529.564 354.816 529.158 355.208 527.548 353.99C525.938 352.772 518.434 348.39 514.948 344.288C511.462 340.186 508.872 339.43 509.278 341.656C509.684 343.882 508.872 345.492 511.308 347.116C513.744 348.74 516.152 353.192 516.152 355.012C516.152 356.832 515.956 357.434 510.902 359.212C505.848 360.99 494.312 363.258 495.502 364.672C496.692 366.086 499.142 366.492 501.774 366.296C504.406 366.1 515.326 364.476 516.124 365.078C516.388 365.348 516.585 365.675 516.7 366.034C516.814 366.393 516.844 366.774 516.785 367.147C516.727 367.52 516.582 367.873 516.363 368.18C516.144 368.487 515.856 368.738 515.522 368.914C513.702 370.132 507.234 370.132 503.384 370.538C499.534 370.944 499.338 371.938 500.962 372.764C503.57 373.737 506.343 374.189 509.124 374.094C512.358 374.094 516.124 373.772 514.514 374.78C512.904 375.788 510.664 375.998 506.618 376.6C502.572 377.202 501.158 375.396 501.774 377.006C502.39 378.616 507.234 378.63 513.296 378.406C518.814 378.124 524.173 376.458 528.878 373.562C532.924 371.126 547.68 367.486 548.702 366.688C549.724 365.89 551.32 361.214 550.312 355.558C549.304 349.902 544.124 351.974 544.124 351.974Z" fill="#FDF8F5" stroke="#263238" stroke-linecap="round" stroke-linejoin="round"/>
<path d="M560.112 328.3C564.053 325.038 568.323 322.195 572.852 319.816" stroke="#263238" stroke-linecap="round" stroke-linejoin="round"/>
<path d="M504.28 366.408C504.28 366.408 515.788 365.092 516.95 364.924C518.112 364.756 520.24 366.072 519.246 367.556C518.252 369.04 517.762 368.704 513.646 369.53C509.56 370.151 505.43 370.427 501.298 370.356" fill="white"/>
<path d="M504.28 366.408C504.28 366.408 515.788 365.092 516.95 364.924C518.112 364.756 520.24 366.072 519.246 367.556C518.252 369.04 517.762 368.704 513.646 369.53C509.56 370.151 505.43 370.427 501.298 370.356" stroke="#263238" stroke-linecap="round" stroke-linejoin="round"/>
<path d="M505.596 374.304C505.596 374.304 518.42 373.478 518.098 374.472C517.776 375.466 516.95 376.768 512.344 377.104C507.738 377.44 502.544 377.762 498.19 375.62" fill="white"/>
<path d="M505.596 374.304C505.596 374.304 518.42 373.478 518.098 374.472C517.776 375.466 516.95 376.768 512.344 377.104C507.738 377.44 502.544 377.762 498.19 375.62" stroke="#263238" stroke-linecap="round" stroke-linejoin="round"/>
<path d="M377.328 553.168C377.328 553.168 379.512 555.338 370.804 560.658C362.096 565.978 354.83 568.4 354.83 571.55C354.83 574.7 364.504 577.836 374.43 575.414C384.356 572.992 388.43 572.278 394.03 571.312C399.63 570.346 401.296 565.502 401.296 558.712C401.296 551.922 386.54 550.312 384.846 550.004C383.152 549.696 378.546 550.508 377.328 553.168Z" fill="white" stroke="#263238" stroke-linecap="round" stroke-linejoin="round"/>
<path d="M399.098 558.726C395.433 564.217 390.948 569.113 385.798 573.244C378.294 578.844 377.328 581.462 381.206 582.918C385.084 584.374 396.2 584.85 403.704 581.952C411.208 579.054 414.834 574.7 417.004 572.754C419.174 570.808 420.392 572.026 420.392 564.284C420.392 556.542 412.16 553.882 405.398 554.372C398.636 554.862 399.098 558.726 399.098 558.726Z" fill="white" stroke="#263238" stroke-linecap="round" stroke-linejoin="round"/>
<path d="M369.6 401.002C369.6 401.002 371.784 445.032 372.512 457.856C373.24 470.68 378.56 518.812 379.512 530.18C380.464 541.548 380.478 544.936 380.478 544.936C380.478 544.936 376.124 548.086 376.124 548.814C376.124 549.542 375.634 556.304 375.634 556.304C378.847 558.073 382.259 559.455 385.798 560.42C389.686 561.296 393.69 561.542 397.656 561.148C397.656 561.148 405.636 563.808 412.412 565.74C419.188 567.672 421.848 566.706 421.848 566.706C421.848 566.706 423.78 557.032 424.256 553.882C424.732 550.732 432.964 517.356 432.964 502.082C432.964 486.808 431.032 479.822 428.134 470.876C425.236 461.93 431.998 429.982 434.42 418.376C435.809 411.902 436.86 405.359 437.57 398.776C437.57 398.776 416.766 409.472 369.6 401.002Z" fill="#111144" stroke="#000621" stroke-linecap="round" stroke-linejoin="round"/>
<path d="M396.69 415.8C396.69 415.8 395.472 448 395.472 460.306C395.472 472.612 398.622 487.648 400.064 502.166C401.506 516.684 400.554 540.386 398.86 544.502C397.166 548.618 395.962 550.102 396.2 553.21C396.438 556.318 396.69 560.7 396.69 560.7" stroke="white" stroke-linecap="round" stroke-linejoin="round"/>
<path d="M392.812 228.508C392.812 228.508 391.412 224.154 389.172 225.848C386.932 227.542 388.458 230.692 390.39 233.842C392.322 236.992 394.492 237.706 394.744 236.012C394.996 234.318 392.812 228.508 392.812 228.508Z" fill="#9C6546" stroke="#263238" stroke-linecap="round" stroke-linejoin="round"/>
<path d="M392.812 230.454L390.39 223.454C390.39 223.454 380.24 219.338 383.39 209.174C386.54 199.01 410.732 189.826 417.256 189.826C423.78 189.826 436.366 198.534 438.55 208.698C440.734 218.862 433.468 228.046 433.468 228.046C433.468 228.046 430.318 236.992 427.868 236.516C425.418 236.04 426.888 229.012 423.752 223.454C420.616 217.896 418.67 215.054 415.282 216.454C411.894 217.854 397.866 222.054 396.662 223.944C395.458 225.834 393.302 231.658 392.812 230.454Z" fill="#151B1E" stroke="#263238" stroke-linecap="round" stroke-linejoin="round"/>
<path d="M441.924 330.12L443.128 336.406L428.134 359.632L431.522 364.952C438.635 360.209 445.134 354.604 450.87 348.264C460.544 337.624 461.51 336.168 461.51 331.814C461.51 327.46 458.136 319.956 458.136 319.956C458.136 319.956 451.36 330.12 441.924 330.12Z" fill="#9C6546" stroke="#263238" stroke-linecap="round" stroke-linejoin="round"/>
<path d="M359.912 316.092C359.912 316.092 355.068 327.698 356.048 331.324C357.028 334.95 373.702 356.244 373.702 356.244L376.6 348.264C376.6 348.264 370.314 335.202 370.314 330.848C370.314 326.494 372.498 318.024 372.498 318.024L359.912 316.092Z" fill="#9C6546" stroke="#263238" stroke-linecap="round" stroke-linejoin="round"/>
<path d="M402.738 258.51C402.738 258.51 381.934 266.49 378.056 267.708C374.178 268.926 371.518 269.64 371.28 270.844C371.042 272.048 359.436 301.812 357.28 305.928C355.124 310.044 352.198 314.636 352.198 314.636C355.016 316.398 357.923 318.015 360.906 319.48C363.949 320.81 367.108 321.86 370.342 322.616L371.742 339.318L357.462 402.206C357.462 402.206 386.008 410.186 405.062 409.472C417.194 409.059 429.189 406.773 440.622 402.696C444.262 401.478 449.82 399.308 449.82 399.308L431.62 330.848L433.02 320.684L433.986 330.61C433.986 330.61 443.66 332.78 449.218 331.324C454.776 329.868 461.818 324.324 461.818 324.324L443.912 268.45L410.536 259.252L402.738 258.51Z" fill="#54A8A8" stroke="#263238" stroke-linecap="round" stroke-linejoin="round"/>
<path d="M426.244 263.508L410.718 259.238L402.738 258.51L395.556 261.31C395.416 265.118 395.234 271.6 395.234 279.37C395.234 291.97 396.634 303.086 400.316 300.902C403.998 298.718 421.316 275.268 424.256 268.702C425.051 267.024 425.715 265.288 426.244 263.508Z" fill="#54A8A8" stroke="#263238" stroke-linecap="round" stroke-linejoin="round"/>
<path d="M433.216 320.684C432.726 320.208 430.556 299.39 430.556 299.39" stroke="#263238" stroke-linecap="round" stroke-linejoin="round"/>
<path d="M370.314 322.616C370.314 322.616 368.62 314.398 369.11 311.248C369.6 308.098 372.974 289.478 372.974 289.478" stroke="#263238" stroke-linecap="round" stroke-linejoin="round"/>
<path d="M378.546 357.462C378.546 357.462 367.416 361.088 367.416 361.816C367.416 362.544 367.164 365.918 367.164 365.918L378.546 360.598V357.462Z" stroke="#263238" stroke-linecap="round" stroke-linejoin="round"/>
<path d="M408.058 359.156L407.568 362.292L431.76 368.578L432.964 366.17L408.058 359.156Z" stroke="#263238" stroke-linecap="round" stroke-linejoin="round"/>
<path d="M416.038 311.052C415.708 311.052 415.391 310.921 415.157 310.687C414.923 310.453 414.792 310.136 414.792 309.806C414.792 305.606 416.878 295.47 418.908 285.67C420.518 277.872 422.044 270.494 422.044 268.184C422.106 266.911 421.896 265.639 421.428 264.454C420.959 263.268 420.244 262.197 419.328 261.31C416.43 258.622 411.278 257.53 404.026 258.062C388.892 259.182 387.786 293.062 387.772 293.384C387.765 293.71 387.63 294.019 387.397 294.247C387.164 294.475 386.852 294.602 386.526 294.602C386.362 294.597 386.201 294.559 386.052 294.491C385.903 294.424 385.769 294.327 385.657 294.208C385.545 294.088 385.458 293.947 385.401 293.794C385.343 293.641 385.316 293.478 385.322 293.314C385.322 291.83 386.512 256.914 403.886 255.514C411.866 254.94 417.648 256.242 421.064 259.434C422.228 260.555 423.142 261.908 423.748 263.406C424.353 264.904 424.636 266.513 424.578 268.128C424.578 270.69 423.108 277.844 421.4 286.118C419.482 295.344 417.326 305.802 417.326 309.75C417.334 309.922 417.306 310.093 417.244 310.254C417.182 310.415 417.088 310.561 416.967 310.683C416.846 310.805 416.701 310.901 416.541 310.965C416.381 311.028 416.21 311.058 416.038 311.052Z" fill="#263238" stroke="#263238" stroke-linecap="round" stroke-linejoin="round"/>
<path d="M400.064 251.02C400.064 251.02 400.064 258.02 399.826 259.42C399.588 260.82 399.826 266.924 399.826 275.156C399.826 283.388 401.226 288.932 403.214 287C405.202 285.068 417.97 267.89 418.698 264.502C419.125 262.598 419.369 260.657 419.426 258.706L420.392 249.018C420.392 249.018 405.398 253.372 399.098 251.44" fill="#9C6546"/>
<path d="M400.064 251.02C400.064 251.02 400.064 258.02 399.826 259.42C399.588 260.82 399.826 266.924 399.826 275.156C399.826 283.388 401.226 288.932 403.214 287C405.202 285.068 417.97 267.89 418.698 264.502C419.125 262.598 419.369 260.657 419.426 258.706L420.392 249.018C420.392 249.018 405.398 253.372 399.098 251.44" stroke="#263238" stroke-linecap="round" stroke-linejoin="round"/>
<path d="M424.984 236.502C426.244 244.906 426.568 253.423 425.95 261.898C424.984 276.654 423.234 283.57 418.95 285.698C414.666 287.826 420.196 290.234 426.72 290.472C433.244 290.71 442.932 289.744 444.626 270.396C446.32 251.048 432.292 238.462 431.074 236.04C430.762 235.478 430.296 235.016 429.73 234.711C429.164 234.406 428.522 234.269 427.881 234.318C427.24 234.367 426.626 234.598 426.112 234.985C425.599 235.373 425.207 235.899 424.984 236.502Z" fill="#151B1E" stroke="#263238" stroke-linecap="round" stroke-linejoin="round"/>
<path d="M377.818 310.324H377.72C377.55 310.314 377.384 310.269 377.233 310.192C377.081 310.115 376.947 310.007 376.84 309.875C376.732 309.744 376.652 309.591 376.606 309.428C376.56 309.264 376.549 309.092 376.572 308.924C376.572 308.238 377.972 292.04 386.526 292.04C395.08 292.04 395.276 307.622 395.276 308.294C395.276 308.624 395.145 308.941 394.911 309.175C394.677 309.409 394.361 309.54 394.03 309.54C393.7 309.54 393.383 309.409 393.149 309.175C392.915 308.941 392.784 308.624 392.784 308.294C392.784 308.154 392.602 294.546 386.54 294.546C381.332 294.546 379.386 305.06 379.078 309.12C379.064 309.444 378.925 309.751 378.69 309.975C378.455 310.199 378.143 310.324 377.818 310.324Z" fill="#263238"/>
<path d="M377.818 308.112C377.818 308.112 377.818 320.208 378.294 322.616C378.77 325.024 384.832 330.12 392.084 333.27" stroke="#263238" stroke-width="2" stroke-linecap="round" stroke-linejoin="round"/>
<path d="M393.54 306.6C393.54 306.6 394.016 318.696 391.608 324.016C389.2 329.336 381.934 331.52 378.784 332.724" stroke="#263238" stroke-width="2" stroke-linecap="round" stroke-linejoin="round"/>
<path d="M395.472 333.746C395.428 333.199 395.18 332.688 394.776 332.316C394.373 331.944 393.844 331.737 393.295 331.737C392.746 331.737 392.217 331.944 391.814 332.316C391.41 332.688 391.162 333.199 391.118 333.746C391.094 334.047 391.132 334.349 391.231 334.634C391.329 334.919 391.486 335.18 391.69 335.402C391.895 335.624 392.143 335.8 392.419 335.921C392.695 336.042 392.993 336.105 393.295 336.105C393.597 336.105 393.895 336.042 394.171 335.921C394.447 335.8 394.695 335.624 394.9 335.402C395.104 335.18 395.261 334.919 395.359 334.634C395.458 334.349 395.496 334.047 395.472 333.746Z" fill="#AFAFAF" stroke="#263238" stroke-linecap="round" stroke-linejoin="round"/>
<path d="M380.478 333.27C380.481 332.837 380.355 332.414 380.117 332.053C379.879 331.692 379.538 331.41 379.14 331.242C378.741 331.075 378.301 331.03 377.877 331.112C377.452 331.195 377.062 331.402 376.755 331.707C376.448 332.012 376.238 332.401 376.153 332.825C376.068 333.249 376.11 333.689 376.275 334.089C376.44 334.488 376.72 334.83 377.079 335.071C377.439 335.312 377.861 335.44 378.294 335.44C378.871 335.44 379.424 335.212 379.833 334.805C380.243 334.399 380.474 333.847 380.478 333.27Z" fill="#AFAFAF" stroke="#263238" stroke-linecap="round" stroke-linejoin="round"/>
<path d="M423.29 314.398C423.293 312.913 422.855 311.46 422.031 310.224C421.208 308.988 420.036 308.024 418.664 307.454C417.292 306.884 415.782 306.734 414.326 307.024C412.869 307.313 411.53 308.028 410.48 309.078C409.43 310.128 408.715 311.467 408.426 312.923C408.136 314.38 408.286 315.89 408.856 317.262C409.426 318.634 410.39 319.806 411.626 320.629C412.862 321.453 414.315 321.891 415.8 321.888C417.785 321.884 419.688 321.094 421.092 319.69C422.496 318.286 423.286 316.383 423.29 314.398Z" fill="white" stroke="#263238" stroke-linecap="round" stroke-linejoin="round"/>
<path d="M419.902 314.398C419.902 313.583 419.66 312.787 419.207 312.11C418.754 311.433 418.111 310.905 417.358 310.594C416.605 310.283 415.777 310.202 414.978 310.362C414.179 310.522 413.446 310.915 412.871 311.493C412.296 312.07 411.905 312.804 411.747 313.604C411.59 314.403 411.674 315.231 411.987 315.983C412.301 316.735 412.831 317.377 413.51 317.827C414.188 318.278 414.985 318.517 415.8 318.514C416.889 318.51 417.933 318.075 418.701 317.303C419.47 316.532 419.902 315.487 419.902 314.398Z" fill="white" stroke="#263238" stroke-linecap="round" stroke-linejoin="round"/>
<path d="M419.902 211.582C419.902 211.582 398.86 219.8 396.2 221.2C395.055 221.892 393.839 222.46 392.574 222.894C392.574 222.894 393.778 241.276 394.268 246.12C394.758 250.964 402.486 255.556 409.262 255.318C416.038 255.08 421.596 251.44 422.814 249.27C424.032 247.1 427.406 240.562 427.406 240.562C427.406 240.562 435.386 239.162 435.806 232.092C436.226 225.022 433.874 226.492 431.214 227.976C428.554 229.46 427.098 230.398 427.098 230.398C427.615 227.832 427.183 225.165 425.88 222.894C423.78 219.324 420.392 214.97 419.902 211.582Z" fill="#9C6546" stroke="#263238" stroke-linecap="round" stroke-linejoin="round"/>
<path d="M402.738 234.08C402.738 234.08 404.67 236.978 406.364 236.74" stroke="#263238" stroke-linecap="round" stroke-linejoin="round"/>
<path d="M402.01 238.434C402.01 238.434 406.112 242.312 413.21 239.162" stroke="#263238" stroke-linecap="round" stroke-linejoin="round"/>
<path d="M412.412 228.27C412.412 228.27 417.368 226.1 420.154 229.964" stroke="#263238" stroke-width="1.5" stroke-linecap="round" stroke-linejoin="round"/>
<path d="M402.738 227.794C402.738 227.794 398.86 225.372 395.962 227.304" stroke="#263238" stroke-width="1.5" stroke-linecap="round" stroke-linejoin="round"/>
<path d="M405.58 226.884C405.583 228.236 405.184 229.559 404.434 230.685C403.685 231.811 402.618 232.688 401.369 233.207C400.12 233.726 398.745 233.863 397.419 233.599C396.092 233.336 394.873 232.685 393.917 231.729C392.961 230.773 392.31 229.554 392.047 228.227C391.783 226.901 391.92 225.526 392.439 224.277C392.958 223.028 393.835 221.961 394.961 221.212C396.087 220.462 397.41 220.063 398.762 220.066C400.569 220.07 402.301 220.789 403.579 222.067C404.857 223.345 405.576 225.077 405.58 226.884Z" stroke="#EB9138" stroke-linecap="round" stroke-linejoin="round"/>
<path d="M422.59 228.802C422.593 230.154 422.194 231.476 421.445 232.601C420.696 233.727 419.63 234.605 418.382 235.124C417.134 235.643 415.76 235.78 414.434 235.518C413.108 235.256 411.889 234.607 410.932 233.652C409.975 232.697 409.323 231.48 409.058 230.154C408.794 228.828 408.928 227.454 409.445 226.205C409.961 224.956 410.837 223.888 411.961 223.136C413.085 222.385 414.406 221.984 415.758 221.984C417.566 221.988 419.3 222.707 420.58 223.984C421.86 225.262 422.583 226.994 422.59 228.802V228.802Z" stroke="#EB9138" stroke-linecap="round" stroke-linejoin="round"/>
<path d="M405.58 226.884C406.069 226.719 406.592 226.687 407.097 226.793C407.602 226.899 408.069 227.138 408.45 227.486" stroke="#EB9138" stroke-linecap="round" stroke-linejoin="round"/>
<path d="M422.828 229.88L429.534 228.928" stroke="#EB9138" stroke-linecap="round" stroke-linejoin="round"/>
<path d="M138.404 554.932C136.55 558.871 134.268 562.594 131.6 566.034C127.554 571.004 126.532 574.546 130.928 577.626C135.324 580.706 143.332 580.23 147.364 575.26C151.396 570.29 157.892 556.584 157.892 556.584C157.892 556.584 143.724 552.328 138.404 554.932Z" fill="#293941" stroke="#263238" stroke-linecap="round" stroke-linejoin="round"/>
<path d="M187.712 557.998C187.712 557.998 194.712 567.224 198.912 571.998C203.112 576.772 211.05 579.082 215.292 578.844C219.534 578.606 225.624 577.192 221.508 569.632C217.392 562.072 208.796 554.736 208.796 554.736C208.796 554.736 199.808 554.736 193.634 554.022C187.46 553.308 187.404 556.584 187.712 557.998Z" fill="#293941" stroke="#263238" stroke-linecap="round" stroke-linejoin="round"/>
<path d="M142.268 384.23C142.268 384.23 139.468 416.43 140.42 439.082C141.372 461.734 137.2 506.94 135.8 518C134.4 529.06 137.074 547.316 137.2 551.334C137.326 555.352 137.466 557.494 137.466 557.494C137.466 557.494 139.538 556.094 147.168 557.494C150.613 558.23 154.109 558.698 157.626 558.894C160.774 553.569 163.377 547.941 165.396 542.094C167.678 534.534 166.39 526.694 166.208 522.704C166.026 518.714 165.368 514.43 165.816 513.716C166.264 513.002 175.616 445.396 176.12 430.5C176.693 420.402 178.192 410.378 180.6 400.554C180.6 400.554 185.066 421.358 185.416 429.394C185.766 437.43 184.618 502.922 185.192 516.194C185.766 529.466 184.744 532.994 183.232 536.298C181.72 539.602 182.266 541.254 183.33 543.858C184.394 546.462 187.74 558.04 187.74 558.04C187.74 558.04 204.806 558.992 207.116 557.802C209.426 556.612 210.322 555.45 210.28 554.736C210.238 554.022 218.498 536.998 217.714 529.914C216.93 522.83 216.034 524.006 215.236 511.238C214.438 498.47 219.66 390.838 219.646 385.238C219.632 379.638 218.694 390.432 183.89 383.838C149.086 377.244 143.262 379.736 142.268 384.23Z" fill="#54A8A8" stroke="#263238" stroke-linecap="round" stroke-linejoin="round"/>
<path d="M188.72 548.8C188.72 548.8 199.654 539.336 208.768 536.97L188.72 548.8Z" fill="white"/>
<path d="M188.72 548.8C188.72 548.8 199.654 539.336 208.768 536.97" stroke="#263238" stroke-linecap="round" stroke-linejoin="round"/>
<path d="M144.074 544.292C144.074 544.292 157.738 537.67 161.686 536.018L144.074 544.292Z" fill="white"/>
<path d="M144.074 544.292C144.074 544.292 157.738 537.67 161.686 536.018" stroke="#263238" stroke-linecap="round" stroke-linejoin="round"/>
<path d="M167.006 209.286C167.006 209.286 163.338 201.012 160.622 203.854C157.906 206.696 159.964 210.462 163.702 214.956C167.44 219.45 170.394 216.608 169.61 214.718C168.826 212.828 167.006 209.286 167.006 209.286Z" fill="#FFCC99" stroke="#263238" stroke-linecap="round" stroke-linejoin="round"/>
<path d="M202.51 204.792C202.51 204.792 206.178 196.756 209.174 200.592C212.17 204.428 205.73 213.836 204.148 215.488C202.566 217.14 201.544 204.61 201.544 204.61L202.51 204.792Z" fill="#FFCC99" stroke="#263238" stroke-linecap="round" stroke-linejoin="round"/>
<path d="M122.878 308.35C122.878 308.35 121.856 323.008 120.61 326.788C118.066 335.697 116.877 344.937 117.082 354.2C117.572 365.302 121.926 389.424 122.01 396.746C122.094 404.068 119.812 405.734 122.262 407.624C124.712 409.514 129.92 415.198 131.81 415.198C133.7 415.198 136.584 416.136 136.514 414.722C136.444 413.308 135.52 413.532 134.722 411.642C133.703 408.887 132.871 406.067 132.23 403.2C132.805 401.112 133.502 399.06 134.316 397.054C134.316 397.054 135.996 402.962 136.318 404.866C136.64 406.77 139.272 407.456 139.118 403.914C138.964 400.372 138.894 398.944 138.726 395.164C138.558 391.384 135.576 388.08 134.316 386.176C133.056 384.272 132.062 383.11 132.02 382.396C131.978 381.682 136.094 356.636 136.22 347.886C136.346 339.136 136.472 332.038 137.102 330.386C137.732 328.734 140.868 313.838 140.868 313.838L122.878 308.35Z" fill="#FFCC99" stroke="#263238" stroke-linecap="round" stroke-linejoin="round"/>
<path d="M239.806 309.05C239.806 309.05 240.814 323.792 242.074 327.684C244.587 336.709 245.771 346.052 245.588 355.418C245.098 366.492 240.716 390.222 240.632 397.544C240.548 404.866 242.844 406.714 240.394 408.394C237.944 410.074 232.722 415.282 230.832 415.128C228.942 414.974 226.072 415.646 226.128 414.232C226.184 412.818 227.122 413.14 227.92 411.32C228.954 408.621 229.792 405.852 230.426 403.032C229.846 400.88 229.145 398.763 228.326 396.69C228.326 396.69 226.646 402.458 226.324 404.32C226.002 406.182 223.384 406.658 223.524 403.13C223.664 399.602 223.734 398.188 223.902 394.422C224.07 390.656 227.052 387.604 228.326 385.826C229.6 384.048 230.58 382.942 230.622 382.242C230.664 381.542 226.548 356.118 226.422 347.354C226.296 338.59 226.184 331.492 225.54 329.784C224.896 328.076 221.774 312.9 221.774 312.9L239.806 309.05Z" fill="#FFCC99" stroke="#263238" stroke-linecap="round" stroke-linejoin="round"/>
<path d="M174.58 236.474C174.58 236.474 161.14 242.858 153.02 246.4C144.9 249.942 134.694 254.198 134.82 255.864C134.946 257.53 126.168 290.612 123.396 297.472C120.624 304.332 118.034 309.764 118.034 309.764C118.034 309.764 127.96 316.4 134.4 317.8C138.55 318.679 142.763 319.231 147 319.452L139.342 387.548C139.342 387.548 154.742 393.694 178.864 393.932C193.831 394.042 208.792 393.252 223.664 391.566C223.664 391.566 225.932 335.566 225.694 330.092C225.53 327.092 225.637 324.084 226.016 321.104C229.69 321.905 233.509 321.746 237.104 320.642C240.266 319.466 243.364 318.124 246.386 316.624C246.386 316.624 234.64 269.808 232.708 263.424C230.776 257.04 231.672 256.102 229.992 255.388C228.312 254.674 209.748 246.638 203.686 243.096C197.624 239.554 195.286 239.54 189.98 237.888C184.674 236.236 177.31 234.108 174.58 236.474Z" fill="#54A8A8" stroke="#263238" stroke-linecap="round" stroke-linejoin="round"/>
<path d="M226.044 321.104L223.048 279.118" stroke="#263238" stroke-linecap="round" stroke-linejoin="round"/>
<path d="M147.56 343.098L173.782 342.384C173.782 342.384 172.62 375.256 171.822 378.784C171.024 382.312 165.704 384.692 158.83 384.454C151.956 384.216 147.798 380.912 147.014 379.26" stroke="#263238" stroke-linecap="round" stroke-linejoin="round"/>
<path d="M146.09 347.354L173.74 347.116" stroke="#263238" stroke-linecap="round" stroke-linejoin="round"/>
<path d="M218.89 384.468C216.314 385.182 210.168 385.182 208.824 381.402C207.48 377.622 208.362 343.812 208.362 343.812L221.858 344.274" stroke="#263238" stroke-linecap="round" stroke-linejoin="round"/>
<path d="M208.25 346.64L221.088 348.53" stroke="#263238" stroke-linecap="round" stroke-linejoin="round"/>
<path d="M147 319.452C147 319.452 147.952 287.07 147.574 278.558" stroke="#263238" stroke-linecap="round" stroke-linejoin="round"/>
<path d="M170.576 220.626C170.576 220.626 172.62 240.226 172.704 242.382C172.788 244.538 175.182 250.418 177.45 253.498C179.718 256.578 186.06 266.504 188.58 264.6C191.1 262.696 198.198 252.07 198.884 246.162C199.57 240.254 199.906 226.31 199.906 226.31C199.906 226.31 190.708 226.786 183.736 224.42C176.764 222.054 170.576 220.626 170.576 220.626Z" fill="#FFCC99" stroke="#263238" stroke-linecap="round" stroke-linejoin="round"/>
<path d="M160.776 191.31L165.998 207.872C165.998 207.872 167.958 220.164 171.486 225.12C175.014 230.076 187.376 237.188 192.99 235.76C198.604 234.332 205.226 229.138 204.974 223.468C204.722 217.798 203.574 201.25 203.728 194.866C203.882 188.482 202.328 175.476 198.464 171.934C194.6 168.392 181.664 166.25 172.382 170.044C163.1 173.838 156.8 180.908 160.776 191.31Z" fill="#111111" stroke="#111111" stroke-linecap="round" stroke-linejoin="round"/>
<path d="M166.292 209.286C166.292 209.286 165.83 209.524 167.048 204.792C168.266 200.06 171.934 197.694 172.298 195.342C172.662 192.99 167.678 192.262 168.224 188.72C168.77 185.178 173.642 182.574 183.988 181.384C194.334 180.194 201.222 186.354 200.886 189.42C200.55 192.486 199.626 192.976 201.138 195.104C202.65 197.232 203.294 201.25 203.406 203.616C203.518 205.982 204.806 214.48 202.566 217.084C200.326 219.688 198.646 219.212 196.42 217.084C194.194 214.956 193.368 212.128 188.412 212.128C183.456 212.128 181.874 214.018 181.006 215.908C180.138 217.798 179.298 220.108 176.47 220.108C173.642 220.108 171.626 217.504 169.61 214.662C168.382 212.949 167.273 211.152 166.292 209.286Z" fill="#FFCC99" stroke="#111111" stroke-linecap="round" stroke-linejoin="round"/>
<path d="M187.6 197.694C187.6 197.694 192.178 210.462 191.982 211.414C191.786 212.366 189.546 215.194 186.928 214.956C184.31 214.718 183.008 211.652 183.008 211.652" stroke="#263238" stroke-linecap="round" stroke-linejoin="round"/>
<path d="M188.888 196C188.763 195.573 188.736 195.123 188.809 194.683C188.882 194.244 189.054 193.827 189.311 193.464C189.568 193.1 189.904 192.799 190.294 192.584C190.684 192.369 191.117 192.244 191.562 192.22C193.025 192.149 194.486 192.387 195.852 192.917C197.217 193.448 198.455 194.26 199.486 195.3" stroke="#111111" stroke-width="2" stroke-linecap="round" stroke-linejoin="round"/>
<path d="M182 194.6C181.324 194.098 180.546 193.752 179.72 193.587C178.894 193.422 178.043 193.443 177.226 193.648C174.426 194.362 171.052 198.618 171.094 199.332" stroke="#111111" stroke-width="2" stroke-linecap="round" stroke-linejoin="round"/>
<path d="M181.09 201.488C181.09 202.664 180.6 203.616 179.872 203.616C179.144 203.616 178.472 202.664 178.472 201.488C178.472 200.312 178.962 199.36 179.676 199.36C180.39 199.36 181.034 200.312 181.09 201.488Z" fill="#263238"/>
<path d="M194.768 200.774C194.768 201.95 194.278 202.902 193.564 202.902C192.85 202.902 192.164 201.95 192.164 200.774C192.164 199.598 192.654 198.646 193.368 198.646C194.082 198.646 194.712 199.598 194.768 200.774Z" fill="#263238"/>
<path d="M182.616 220.164C182.616 220.164 187.194 222.292 194.152 219.212" stroke="#FFCC99" stroke-width="2" stroke-linecap="round" stroke-linejoin="round"/>
<path d="M165.774 240.8C165.774 240.8 172.774 264.908 180.292 280.756C187.81 296.604 193.774 307.706 193.774 307.706C193.774 307.706 205.1 269.64 205.044 257.306C204.988 244.972 204.918 243.6 204.918 243.6" stroke="#263238" stroke-linecap="round" stroke-linejoin="round"/>
<path d="M202.16 331.744H187.726L186.676 307.636H201.096L202.16 331.744Z" fill="white" stroke="#263238" stroke-linecap="round" stroke-linejoin="round"/>
<path d="M308.196 565.334C308.196 565.334 315.756 571.48 321.188 573.132C326.62 574.784 329.462 575.736 328.286 578.34C327.11 580.944 323.316 581.882 312.214 582.12C301.112 582.358 298.97 579.992 294.714 578.802C290.458 577.612 284.55 578.802 282.66 576.45C280.77 574.098 281.47 570.528 281.47 566.748C281.47 562.968 297.794 561.316 302.05 562.73C304.186 563.375 306.247 564.248 308.196 565.334Z" fill="#272E41" stroke="#11141D" stroke-linecap="round" stroke-linejoin="round"/>
<path d="M286.678 570.066C286.678 570.066 293.776 577.626 299.684 580.93C305.592 584.234 308.896 586.614 307.482 588.266C306.068 589.918 301.574 592.046 289.744 590.87C277.914 589.694 275.562 587.076 269.892 583.058C264.222 579.04 261.618 579.516 259.728 577.388C257.838 575.26 257.838 570.528 257.838 570.528L286.678 570.066Z" fill="#272E41" stroke="#11141D" stroke-linecap="round" stroke-linejoin="round"/>
<path d="M322.14 395.108C322.14 395.108 317.94 451.374 316.232 461.538C314.524 471.702 312.914 477.386 313.152 484.47C313.39 491.554 315.518 511.896 311.262 523.964C307.006 536.032 307.062 550.676 307.482 554.932C307.902 559.188 309.372 564.858 309.134 565.81C308.896 566.762 302.05 570.528 297.08 571.48C293.957 572.054 290.791 572.368 287.616 572.418C282.806 574.116 277.81 575.23 272.734 575.736C265.636 576.212 255.934 574.084 255.934 574.084C255.934 574.084 255.934 556.584 254.982 545.23C254.03 533.876 250.782 515.69 254.744 501.97C258.706 488.25 257.824 480.97 257.544 476.434C257.264 471.898 257.544 451.612 257.306 450.898C257.068 450.184 255.654 391.09 255.654 391.09C255.654 391.09 281.414 394.87 298.676 393.218C315.938 391.566 320.432 391.566 320.432 391.566C320.432 391.566 324.268 387.31 322.14 395.108Z" fill="#000621" stroke="#000209" stroke-linecap="round" stroke-linejoin="round"/>
<path d="M288.806 569.114C288.793 565.287 288.323 561.475 287.406 557.76C286.006 553.042 285.74 536.256 286.454 529.396C287.168 522.536 290.654 505.288 290.654 495.586C290.654 485.884 291.606 471.002 291.606 471.002" stroke="white" stroke-linecap="round" stroke-linejoin="round"/>
<path d="M337.736 465.794L310.8 465.556C309.624 465.556 309.624 447.594 309.624 447.594L337.736 465.794Z" fill="white" stroke="#263238" stroke-linecap="round" stroke-linejoin="round"/>
<path d="M280.77 398.426C280.77 398.426 307.72 400.078 322.854 397.474L317.646 270.284C317.646 270.284 314.104 264.376 304.64 261.058C295.176 257.74 283.836 262.458 279.818 266.966C275.8 271.474 278.642 397.95 278.642 397.95L280.77 398.426Z" fill="#DC143C" stroke="#263238" stroke-linecap="round" stroke-linejoin="round"/>
<path d="M281.946 261.058C281.946 261.058 255.234 274.54 251.216 276.906C247.198 279.272 247.016 287.77 247.016 291.802C247.016 295.834 248.192 474.782 248.192 474.782C258.303 475.442 268.453 474.406 278.222 471.716C287.856 469.195 296.922 464.862 304.934 458.948L300.44 362.726L295.4 278.32C295.4 278.32 292.348 254.912 281.946 261.058Z" fill="white" stroke="#263238" stroke-linecap="round" stroke-linejoin="round"/>
<path d="M289.982 252.308C289.982 252.308 283.836 253.022 281.232 256.508C279.706 258.565 278.585 260.893 277.928 263.368L275.562 284.648L283.598 282.758L279.58 292.208C279.58 292.208 283.598 304.038 288.092 313.964C292.586 323.89 299.208 344.218 299.208 344.218L296.128 280.63C296.128 280.63 296.128 262.192 294.728 258.23C293.328 254.268 291.872 252.308 289.982 252.308Z" fill="white" stroke="#263238" stroke-linecap="round" stroke-linejoin="round"/>
<path d="M305.354 265.314L310.086 457.996L337.736 465.794L333.718 318.99C333.718 318.99 334.432 281.19 332.066 275.954C329.7 270.718 308.434 260.12 306.306 260.4C304.178 260.68 305.354 265.314 305.354 265.314Z" fill="white" stroke="#263238" stroke-linecap="round" stroke-linejoin="round"/>
<path d="M305.354 255.626C307.075 256.046 308.685 256.834 310.073 257.936C311.46 259.038 312.592 260.428 313.39 262.01C315.756 267.204 321.902 283.29 321.902 283.29L314.104 284.228L322.378 290.136L307.72 345.226L306.068 285.6L304.668 261.016C304.668 261.016 302.988 257.04 305.354 255.626Z" fill="white" stroke="#263238" stroke-linecap="round" stroke-linejoin="round"/>
<path d="M288.092 244.272C288.092 244.272 289.044 251.132 287.616 254.912C286.188 258.692 292.11 270.522 294.476 277.844C296.842 285.166 299.208 291.088 300.622 290.374C302.036 289.66 307.006 262.01 306.768 258.454C306.53 254.898 308.896 244.272 308.896 244.272C308.896 244.272 295.89 248.052 288.092 244.272Z" fill="#F5DEB3" stroke="#263238" stroke-linecap="round" stroke-linejoin="round"/>
<path d="M271.488 237.062C278.934 237.062 284.97 230.756 284.97 222.978C284.97 215.2 278.934 208.894 271.488 208.894C264.042 208.894 258.006 215.2 258.006 222.978C258.006 230.756 264.042 237.062 271.488 237.062Z" fill="#574337" stroke="#403128" stroke-linecap="round" stroke-linejoin="round"/>
<path d="M278.404 229.6C278.404 229.6 276.038 223.454 273.196 225.82C270.354 228.186 273.196 233.38 275.324 236.46C277.452 239.54 281.47 238.112 281.008 235.06C280.626 233.046 279.729 231.165 278.404 229.6Z" fill="#F5DEB3" stroke="#263238" stroke-linecap="round" stroke-linejoin="round"/>
<path d="M315 225.778C315 225.778 316.19 219.87 317.8 223.888C318.513 225.462 318.841 227.183 318.758 228.908C318.675 230.634 318.184 232.315 317.324 233.814C315.924 236.18 316.148 235.942 315.672 233.814C315.3 231.15 315.076 228.467 315 225.778Z" fill="#F5DEB3" stroke="#263238" stroke-linecap="round" stroke-linejoin="round"/>
<path d="M275.086 218.218C275.086 218.218 279.58 239.96 282.422 245.168C285.264 250.376 294.714 259.168 303.226 255.57C311.738 251.972 316.47 245.406 316.47 237.37C316.47 229.334 317.646 219.17 316.232 210.406C315.518 206.415 313.464 202.788 310.41 200.123C307.355 197.457 303.483 195.914 299.432 195.748C291.858 195.51 280.042 199.766 277.676 207.34C276.449 210.87 275.582 214.514 275.086 218.218Z" fill="#F5DEB3" stroke="#263238" stroke-linecap="round" stroke-linejoin="round"/>
<path d="M275.324 226.254C275.324 226.254 288.568 221.046 297.08 214.662C305.592 208.278 308.196 203.56 308.196 203.56C308.196 203.56 312.214 214.424 313.866 217.98C315.518 221.536 316.932 225.54 316.932 225.54C316.932 225.54 319.536 221.046 319.536 211.54C319.536 202.034 316.932 194.516 306.936 189.546C296.94 184.576 280.7 187.656 273.336 194.754C265.972 201.852 267.428 213.43 269.318 217.924C270.797 221.042 272.833 223.865 275.324 226.254Z" fill="#574337" stroke="#403128" stroke-linecap="round" stroke-linejoin="round"/>
<path d="M304.64 217.504C304.64 217.504 303.24 217.742 303.24 221.998C303.24 226.254 304.64 233.338 304.416 234.29C304.192 235.242 301.616 238.07 299.936 236.418" stroke="#263238" stroke-linecap="round" stroke-linejoin="round"/>
<path d="M294 240.674C294 240.674 300.146 243.278 308 238.546" stroke="#263238" stroke-linecap="round" stroke-linejoin="round"/>
<path d="M305.592 217C305.592 217 310.576 215.096 313.866 217.952" stroke="#263238" stroke-linecap="round" stroke-linejoin="round"/>
<path d="M297.318 217.98C295.154 217.337 292.869 217.216 290.65 217.628C288.43 218.039 286.34 218.971 284.55 220.346" stroke="#263238" stroke-linecap="round" stroke-linejoin="round"/>
<path d="M294 224.826C294 226.226 293.426 227.43 292.712 227.43C291.998 227.43 291.41 226.268 291.41 224.826C291.41 223.384 291.984 222.236 292.712 222.236C293.44 222.236 294 223.398 294 224.826Z" fill="#263238"/>
<path d="M309.4 223.888C309.4 225.288 308.812 226.492 308.098 226.492C307.384 226.492 306.796 225.33 306.796 223.888C306.796 222.446 307.384 221.284 308.098 221.284C308.812 221.284 309.4 222.446 309.4 223.888Z" fill="#263238"/>
<path d="M324.506 319.69L320.306 312.83C319.116 310.94 313.684 311.654 311.08 311.654C309.727 311.795 308.425 312.247 307.276 312.976C306.127 313.705 305.162 314.69 304.458 315.854C303.52 317.744 299.264 320.824 300.916 322.714C302.568 324.604 307.062 323.414 307.776 323.89C308.49 324.366 314.398 328.384 316.526 329.098C317.658 329.513 318.868 329.671 320.068 329.56L324.506 319.69Z" fill="#F5DEB3" stroke="#263238" stroke-linecap="round" stroke-linejoin="round"/>
<path d="M330.89 274.54C333.268 275.637 335.396 277.21 337.144 279.16C338.892 281.11 340.222 283.397 341.054 285.88C343.658 294.154 352.394 349.244 350.504 354.48C348.614 359.716 343.896 363.692 335.622 360.864C327.348 358.036 314.622 344.54 314.622 344.54L324.548 319.718L332.346 323.736L330.694 301.518" fill="white"/>
<path d="M330.89 274.54C333.268 275.637 335.396 277.21 337.144 279.16C338.892 281.11 340.222 283.397 341.054 285.88C343.658 294.154 352.394 349.244 350.504 354.48C348.614 359.716 343.896 363.692 335.622 360.864C327.348 358.036 314.622 344.54 314.622 344.54L324.548 319.718L332.346 323.736L330.694 301.518" stroke="#263238" stroke-linecap="round" stroke-linejoin="round"/>
<path d="M332.304 323.708C332.304 323.708 344.834 331.044 346.024 333.648" stroke="#263238" stroke-linecap="round" stroke-linejoin="round"/>
<path d="M316.456 290.612H270.83V354.452H316.456V290.612Z" fill="#263238" stroke="#263238" stroke-linecap="round" stroke-linejoin="round"/>
<path d="M291.41 335.062C291.41 335.062 300.146 330.33 302.75 327.726C305.354 325.122 305.83 324.926 307.244 324.926C310.724 324.925 314.199 324.687 317.646 324.212C319.046 323.736 318.36 327.012 317.646 327.754C316.932 328.496 312.452 329.42 312.452 329.42C312.452 329.42 320.012 328.706 320.25 331.072C320.419 331.751 320.398 332.463 320.188 333.13C319.978 333.797 319.587 334.393 319.06 334.852L318.36 335.566C318.36 335.566 319.06 340.522 318.36 342.888C317.66 345.254 316.232 345.968 313.152 346.43C309.041 346.693 304.914 346.458 300.86 345.73C298.494 345.254 290.458 346.906 290.458 346.906L291.41 335.062Z" fill="#F5DEB3" stroke="#263238" stroke-linecap="round" stroke-linejoin="round"/>
<path d="M259.966 272.65C259.966 272.65 245.966 275.716 243.642 277.13C241.318 278.544 233.478 334.824 231.826 344.33C230.174 353.836 246.484 355.684 251.426 357.574C256.368 359.464 292.6 362.25 292.6 362.25L293.076 332.934L268.016 326.55L267.778 286.118" fill="white"/>
<path d="M259.966 272.65C259.966 272.65 245.966 275.716 243.642 277.13C241.318 278.544 233.478 334.824 231.826 344.33C230.174 353.836 246.484 355.684 251.426 357.574C256.368 359.464 292.6 362.25 292.6 362.25L293.076 332.934L268.016 326.55L267.778 286.118" stroke="#263238" stroke-linecap="round" stroke-linejoin="round"/>
<path d="M268.002 326.55C268.002 326.55 259.252 322.532 253.582 324.66C247.912 326.788 243.18 337.666 243.18 337.666" stroke="#263238" stroke-linecap="round" stroke-linejoin="round"/>
<path d="M258.3 323.708C258.3 323.708 250.026 323.232 246.008 324.898C243.537 325.943 241.349 327.56 239.624 329.616" stroke="#263238" stroke-linecap="round" stroke-linejoin="round"/>
<path d="M303.226 288.484H287.154V293.692H303.226V288.484Z" fill="white" stroke="#263238" stroke-linecap="round" stroke-linejoin="round"/>
</svg>
