<svg width="32" height="29" viewBox="0 0 32 29" fill="none" xmlns="http://www.w3.org/2000/svg">
<path d="M31.9982 9.18438C31.8526 1.91265 22.979 -3.44642 16 2.65608C9.02566 -3.44249 0.147469 1.90908 0.00180847 9.18438C-0.0515797 11.8498 1.07801 14.4162 3.2683 16.606C3.27424 16.6122 7.71427 21.0279 15.3385 28.6106C15.7043 28.9745 16.2956 28.9746 16.6615 28.6106L28.7317 16.606C30.922 14.4162 32.0515 11.8498 31.9982 9.18438ZM16 26.6231L5.70146 16.3805H8.99653C9.32598 16.3805 9.63131 16.2076 9.80079 15.9252L10.5207 14.7257L13.2076 18.9469C13.6028 19.5679 14.5306 19.5117 14.8466 18.8449L18.5548 11.0186L21.177 15.8873C21.3406 16.191 21.6578 16.3805 22.0029 16.3805H26.2984L16 26.6231ZM28.1129 14.505H22.5632L19.3271 8.49658C18.9643 7.82304 17.9832 7.84392 17.6536 8.53972L13.8784 16.5074L11.2886 12.4387C10.911 11.8452 10.0484 11.8676 9.69301 12.4597L8.46552 14.5051H3.88733C2.53249 12.876 1.84045 11.0668 1.87733 9.22195C1.99442 3.37482 9.44783 -1.28445 15.3368 4.603C15.7027 4.9689 16.297 4.96921 16.6632 4.603C24.1821 -2.91423 34.519 6.80341 28.1129 14.505Z" fill="#01579B"/>
</svg>
