<svg width="36" height="52" viewBox="0 0 36 52" fill="none" xmlns="http://www.w3.org/2000/svg">
<path d="M16.3636 35.6417V43.4417H12.5455C11.6727 43.4417 10.9091 44.2 10.9091 45.0667C10.9091 45.9333 11.6727 46.6917 12.5455 46.6917H16.3636V50.375C16.3636 51.2417 17.1273 52 18 52C18.8727 52 19.6364 51.2417 19.6364 50.375V46.6917H23.4545C24.3273 46.6917 25.0909 45.9333 25.0909 45.0667C25.0909 44.2 24.3273 43.4417 23.4545 43.4417H19.6364V35.6417C28.8 34.775 36 27.1917 36 17.875C36 8.01667 27.9273 0 18 0C8.07273 0 0 8.01667 0 17.875C0 27.1917 7.2 34.8833 16.3636 35.6417ZM18 3.25C26.0727 3.25 32.7273 9.85833 32.7273 17.875C32.7273 25.8917 26.0727 32.5 18 32.5C9.92727 32.5 3.27273 25.8917 3.27273 17.875C3.27273 9.85833 9.92727 3.25 18 3.25Z" fill="#E786D7"/>
</svg>
