 <svg width="301" height="301" viewBox="0 0 301 301" fill="none" xmlns="http://www.w3.org/2000/svg">
<path d="M225.13 225.337C266.391 184.075 266.391 117.178 225.13 75.9166C183.869 34.6553 116.971 34.6553 75.7101 75.9166C34.4488 117.178 34.4488 184.075 75.7101 225.337C116.971 266.598 183.869 266.598 225.13 225.337Z" fill="white" stroke="#263238" stroke-miterlimit="10"/>
<path d="M150.42 245.08C123.368 245.079 97.3462 234.702 77.7164 216.088C58.0867 197.473 46.3442 172.038 44.9085 145.024C44.8125 146.88 44.7565 148.752 44.7565 150.624C44.9989 178.488 56.2377 205.127 76.0265 224.745C95.8153 244.362 122.552 255.369 150.416 255.369C178.281 255.369 205.018 244.362 224.806 224.745C244.595 205.127 255.834 178.488 256.076 150.624C256.076 148.741 256.028 146.875 255.932 145.024C254.497 172.038 242.754 197.473 223.124 216.088C203.495 234.702 177.473 245.079 150.42 245.08Z" fill="#263238" stroke="#263238" stroke-miterlimit="10"/>
<path d="M144.612 103.224L147.62 107.232L154.396 109.744L155.9 115.008L151.636 116.76V117.768L159.156 120.776L162.668 120.024L164.42 117.264L163.924 112.496L159.404 110.744L156.652 106.232L146.62 101.712L144.612 103.224Z" fill="#00D816" stroke="#263238" stroke-miterlimit="10"/>
<path d="M209.812 217.6L201.812 214.344L192.028 210.832H184.26L176.988 209.328L168.988 211.08L164.468 211.336H161.716L156.444 214.344L151.428 216.344L144.604 212.056L146.356 205.032L142.1 203.272H137.084L136.332 201.016L136.828 196.504L135.076 194L131.564 194.496L130.564 197.008L126.3 197.256L122.54 192.744L121.036 186.728L124.796 179.704L132.068 180.208L134.076 181.96H137.084L140.844 179.704L144.1 180.704L148.604 188.48L150.356 188.232L149.852 182.464L148.348 179.456L148.852 174.656L158.132 170.656L159.38 161.384L163.38 158.12L166.644 152.352L169.148 151.856L174.916 148.088L175.164 146.088L171.164 146.336L170.412 144.328H167.652L163.388 145.336L165.396 142.072L174.196 139.568L176.204 137.304L179.708 142.824L181.972 145.08L185.476 144.08L183.98 140.8L178.716 137.04L172.7 130.272L166.428 126.008L160.412 125.008L157.404 122.024L153.404 121.024L152.9 122.024L152.404 129.296L153.404 131.808L151.148 139.808L146.132 135.808L146.884 132.304L141.62 129.792L139.364 127.032L140.604 120.8L147.876 115.528L148.372 109.512L145.612 109.76L143.86 107.504L143.108 103.744L141.356 103.496L140.348 107.496L137.588 108L136.34 99.2L134.332 97.944L130.82 96.44L126.82 98.448L131.828 103.248L132.836 107.512L123.804 100.712L117.54 93.944L117.036 87.168L110.516 85.168L105.5 88.424C104.285 89.1616 103.03 89.8319 101.74 90.432C100.484 90.936 95.7244 91.432 95.7244 91.432L94.7164 95.696L88.9484 95.944L89.4524 98.704L98.7324 100.208L103.492 105.48V114.28L100.74 122.048L101.236 130.328L94.2044 142.592L92.7004 160.896L95.0044 171.432L98.2604 179.432L102.02 179.928L100.772 175.928L98.7644 172.92L97.5084 167.4L99.7644 166.896L103.276 175.928L105.78 183.928V190.448L110.58 196.216L119.004 202.52L132.044 206.032L136.044 209.792L139.052 213.792L143.572 216.552L149.084 218.056L154.604 217.8C154.604 217.8 154.356 220.312 154.356 221.568C154.356 222.824 150.844 227.08 150.844 227.08L148.084 232.096L150.092 237.616L155.604 239.872L163.38 247.872L166.892 249.376V253.136L167.332 254.888C186.845 251.726 205.072 243.131 219.924 230.088L220.052 228.272L226.828 215.984L223.564 213.728L209.812 217.6Z" fill="#00D816" stroke="#263238" stroke-miterlimit="10"/>
<path d="M235.892 118.52L233.132 113.72L229.62 108.2L228.62 100.68L233.132 101.432L233.38 98.928L230.124 98.672L232.884 97.424L235.892 95.664V93.16L232.884 89.16L232.236 83.768C217.663 65.9349 197.664 53.3493 175.281 47.9255C152.898 42.5016 129.357 44.5363 108.236 53.72L114.02 57.816L110.508 62.328L105.708 63.328L105.212 70.104L103.204 70.856L100.732 73.6L100.98 78.112L105.244 78.616L103.484 82.872H107.748L115.004 73.6L115.756 69.6L122.78 69.096L124.532 66.088L131.804 65.336L132.556 61.072L137.828 60.824C137.828 60.824 141.588 58.816 142.34 58.816C143.79 59.1307 145.215 59.5504 146.604 60.072L150.364 63.08H155.628L160.148 60.32L165.908 60.824C166.736 61.3718 167.682 61.7146 168.668 61.824C169.924 61.824 173.684 60.072 173.684 60.072L180.956 64.584L183.964 66.84V70.608L187.732 71.104L188.98 68.848L192.244 70.352L191.988 72.36L184.468 74.368L188.732 79.88L197.756 84.896L201.524 89.912L207.036 90.416L208.292 87.904L210.3 87.408L203.804 82.4L199.804 81.896L203.068 80.896L200.052 76.632L204.316 76.376L209.836 79.392L211.092 85.408L213.852 88.664L216.108 95.936L221.62 99.936V108.208L227.388 111.976L227.14 114.728L226.388 117.992L227.892 122.504L228.396 124.76L232.652 125.512L234.66 121.248L235.892 118.52Z" fill="#00D816" stroke="#263238" stroke-miterlimit="10"/>
<path d="M239.148 93.256V94.696L237.9 98.696L238.652 102.208L241.404 103.2V108L238.388 106.744L237.636 120.288L234.628 125.808L236.636 132.824L239.892 135.832V149.36L243.156 159.896L246.668 167.896L252.436 169.4L254.444 164.384L255.244 163.744C255.778 159.386 256.045 154.999 256.044 150.608C256.083 130.258 250.214 110.335 239.148 93.256Z" fill="#00D816" stroke="#263238" stroke-miterlimit="10"/>
<path d="M181.228 91.688L164.676 84.408L157.404 84.664L155.644 89.424L152.636 86.168L147.124 87.424L146.62 95.696L151.132 98.96L154.396 94.192L158.156 97.952L165.924 104.728L167.436 112L173.956 120.272L184.484 118.52L184.236 114.752L181.98 110.496L181.476 100.464L183.98 96.2L181.228 91.688Z" fill="#00D816" stroke="#263238" stroke-miterlimit="10"/>
<path d="M194.764 97.2L191.004 96.2L187.748 98.96L189.5 106.232H192.756L194.764 97.2Z" fill="#00D816" stroke="#263238" stroke-miterlimit="10"/>
<path d="M218.084 101.968L209.564 97.448L207.804 94.44L205.796 95.192L207.556 100.208L209.06 106.728L212.82 108.232L213.572 107.232L211.316 103.472L217.836 105.976L218.084 101.968Z" fill="#00D816" stroke="#263238" stroke-miterlimit="10"/>
<path d="M144.86 192.496L143.86 193.496L151.38 195.752L154.396 199.264L159.156 199.768L160.916 197.008L155.148 196L144.86 192.496Z" fill="#00D816" stroke="#263238" stroke-miterlimit="10"/>
<path d="M167.18 197.256L161.916 198.76L162.668 200.768H169.188L170.444 198.76L168.188 199.016L167.18 197.256Z" fill="#00D816" stroke="#263238" stroke-miterlimit="10"/>
</svg>
