<svg width="32" height="32" viewBox="0 0 32 32" fill="none" xmlns="http://www.w3.org/2000/svg">
<path d="M31.2676 27.7324L22.9251 19.3899C24.2841 17.3428 25 14.9722 25 12.5C25 5.6075 19.3925 0 12.5 0C5.6075 0 0 5.6075 0 12.5C0 19.3925 5.6075 25 12.5 25C14.9722 25 17.3429 24.2841 19.3899 22.9251L21.6959 25.2311L21.6969 25.2321L27.7324 31.2676C28.2048 31.7399 28.8324 32 29.5 32C30.1676 32 30.7953 31.7399 31.2674 31.2677C31.7398 30.7957 32 30.1679 32 29.5C32 28.8321 31.7398 28.2043 31.2676 27.7324ZM19.096 21.6079C17.1668 23.0092 14.8859 23.75 12.5 23.75C6.29675 23.75 1.25 18.7033 1.25 12.5C1.25 6.29675 6.29675 1.25 12.5 1.25C18.7033 1.25 23.75 6.29675 23.75 12.5C23.75 14.8859 23.0093 17.1667 21.608 19.0959C20.9069 20.0618 20.0618 20.9069 19.096 21.6079ZM20.4072 22.1746C21.0541 21.6454 21.6454 21.0541 22.1746 20.4072L23.9478 22.1804C23.4085 22.8169 22.8169 23.4086 22.1804 23.9478L20.4072 22.1746ZM30.3837 30.3837C30.1474 30.6199 29.8336 30.75 29.5 30.75C29.1664 30.75 28.8526 30.6199 28.6163 30.3837L23.0666 24.834C23.6996 24.2908 24.2908 23.6996 24.8339 23.0667L30.3838 28.6166C30.6199 28.8524 30.75 29.1661 30.75 29.5C30.75 29.8339 30.6199 30.1476 30.3837 30.3837Z" fill="#01579B"/>
</svg>
