<svg width="42" height="42" viewBox="0 0 42 42" fill="none" xmlns="http://www.w3.org/2000/svg">
<path d="M17.6164 42C22.3427 42 26.8542 40.1739 30.1841 36.844C36.7366 30.2916 37.0588 19.9795 31.2583 12.9974L38.7775 5.47826V9.23785C38.7775 10.0972 39.5294 10.8491 40.3887 10.8491C41.2481 10.8491 42 10.0972 42 9.23785V1.50384C42 1.289 42 1.07417 41.8926 0.966752C41.6778 0.537084 41.4629 0.214834 41.0332 0.107417C40.8184 4.07298e-07 40.6036 0 40.4962 0H32.8696C32.0102 0 31.2583 0.751918 31.2583 1.61125C31.2583 2.47059 32.0102 3.22251 32.8696 3.22251H36.6292L29.11 10.7417C25.8875 8.05626 21.913 6.65985 17.7238 6.65985C12.9974 6.65985 8.48593 8.48593 5.15601 11.8159C-1.71867 18.6905 -1.71867 29.9693 5.15601 36.844C8.37852 40.1739 12.89 42 17.6164 42ZM7.30435 14.0716C9.98977 11.3862 13.6419 9.77494 17.509 9.77494C21.376 9.77494 25.0281 11.2788 27.7136 14.0716C33.4067 19.7647 33.4067 28.8951 27.7136 34.5882C25.0281 37.2737 21.376 38.8849 17.509 38.8849C13.6419 38.8849 9.98977 37.3811 7.30435 34.5882C1.71867 28.8951 1.71867 19.6573 7.30435 14.0716Z" fill="#5E6BE3"/>
</svg>
