<svg width="60" height="128" viewBox="0 0 60 128" fill="none" xmlns="http://www.w3.org/2000/svg">
<g clip-path="url(#clip0)">
<path fill-rule="evenodd" clip-rule="evenodd" d="M30.5396 24.43C36.7019 24.43 42.9733 18.6031 42.9733 12.4366C42.9733 6.27297 37.0025 -0.00271606 30.8403 -0.00271606C24.6808 -0.00271606 18.5538 6.42376 18.5538 12.5869C18.5538 18.7532 24.3801 24.43 30.5396 24.43ZM57.8919 60.1345C54.6416 50.3817 53.2716 46.2614 51.7323 41.6379C50.1903 35.4743 50.1903 37.0145 48.6513 32.3911C47.1093 27.7677 44.0309 26.2246 40.9499 26.2246H20.9273C17.8461 26.2246 13.2259 27.7677 11.6839 32.3911C10.1447 37.0145 10.1447 37.0145 8.60271 41.6379C7.06357 46.2614 3.98243 55.5109 2.44316 60.1345C0.901152 64.7579 -2.17999 70.9244 2.44316 72.4647C7.06344 74.0076 10.1446 64.7579 11.6837 60.1345C13.2257 55.5111 13.2257 55.5111 14.7649 50.8877C15.0924 50.045 15.7077 47.367 16.9054 47.8151C17.6601 48.1166 16.9054 49.1642 16.304 50.8877C15.112 55.2511 5.52144 84.797 5.52144 84.797H17.846V121.787C17.846 124.871 18.9064 128 23.0922 128C27.1824 128 28.6286 124.871 28.6286 121.787V89.4204C28.6286 86.3372 28.7293 84.8435 29.4925 84.8435C30.2684 84.8435 30.1677 86.3372 30.1677 89.4204V121.787C30.1677 123.702 31.1296 127.904 35.6534 127.904C39.7463 127.904 40.9491 123.842 40.9491 121.787V84.797H53.2708C53.2708 84.797 44.9166 55.5414 43.7225 50.8137C43.2656 48.6471 42.6671 47.8346 43.4223 47.3668C44.4637 47.0822 43.9272 47.498 45.5707 52.4279C47.1098 57.0513 47.1098 57.0513 48.6518 61.6747C49.7156 64.8644 51.7328 72.4647 54.8113 72.4647C59.4337 72.4647 60.973 69.3815 57.8919 60.1345Z" fill="#5B5B5B"/>
</g>
<defs>
<clipPath id="clip0">
<rect width="59.4968" height="128" fill="white"/>
</clipPath>
</defs>
</svg>
