<svg width="32" height="22" viewBox="0 0 32 22" fill="none" xmlns="http://www.w3.org/2000/svg">
<path d="M11.7069 21.073C11.1455 21.073 10.6596 20.823 10.5457 20.2736L8.97222 12.7408L7.93599 14.529C7.7233 14.8909 7.33422 15.1469 6.91589 15.1469H1.18541C0.531217 15.1469 0 14.6157 0 13.9635C0 13.3083 0.531217 12.7761 1.18541 12.7761H6.23852L8.4914 8.96888C8.74038 8.54854 9.21817 8.31973 9.70604 8.40238C10.1889 8.48302 10.5729 8.85195 10.6717 9.33075L11.6243 13.9333L13.7965 1.88163C13.8983 1.31715 14.3892 0.925034 14.9638 0.925034C14.9648 0.925034 14.9678 0.925034 14.9688 0.925034C15.5444 0.925034 16.0353 1.3242 16.132 1.8907L18.4505 15.4191L19.1964 13.5291C19.3738 13.0755 19.8113 12.7741 20.2981 12.7741H30.8146C31.4688 12.7741 32 13.3043 32 13.9605C32 14.6137 31.4698 15.1459 30.8146 15.1459H21.1025L19.0966 20.2151C18.903 20.7091 18.4091 21.0084 17.8719 20.958C17.3457 20.9016 16.9173 20.5024 16.8266 19.9783L14.9356 8.92554L12.8732 20.2403C12.7724 20.7998 12.2895 21.0709 11.722 21.0709C11.717 21.073 11.712 21.073 11.7069 21.073Z" fill="#01579B"/>
</svg>
